<svg width="34" height="34" viewBox="0 0 34 34" fill="none" xmlns="http://www.w3.org/2000/svg">
<path d="M21.2882 22.3976L20.3027 22.5672L20.4723 23.5527L21.4578 23.3832L21.2882 22.3976ZM19.3434 16.9923L20.3027 22.5672L22.2738 22.2281L21.3144 16.6531L19.3434 16.9923ZM21.4578 23.3832L27.0327 22.4238L26.6936 20.4528L21.1187 21.4121L21.4578 23.3832Z" fill="#F0912C"/>
<path d="M16.0859 23.6956C14.5514 23.555 13.1061 22.912 11.9743 21.8663C10.8425 20.8205 10.0874 19.4306 9.82611 17.912C9.56479 16.3933 9.81186 14.8309 10.529 13.467C11.2462 12.1032 12.3933 11.014 13.7926 10.3686C15.1918 9.72309 16.7649 9.55737 18.268 9.89709C19.771 10.2368 21.1199 11.063 22.1055 12.2475C23.0912 13.432 23.6584 14.9086 23.7193 16.4484C23.7801 17.9881 23.3312 19.5049 22.4422 20.7635" stroke="#F0912C" stroke-width="2" stroke-linecap="round"/>
</svg>
