<svg width="87" height="87" viewBox="0 0 87 87" fill="none" xmlns="http://www.w3.org/2000/svg">
<circle cx="43.5" cy="43.5" r="43.5" fill="#D9D9D9"/>
<g opacity="0.5">
<path d="M25 43.1848C25 47.6182 25 52.0516 25 56.4837C25 59.4286 26.9597 61.3458 29.9673 61.3472C35.968 61.3472 41.9674 61.3472 47.9682 61.3472C48.1142 61.3472 48.2602 61.3569 48.4048 61.3402C49.0576 61.2676 49.5199 60.9352 49.7461 60.3306C50.1297 59.3015 49.3481 58.3185 48.1443 58.3185C42.0791 58.3157 36.0139 58.3185 29.9501 58.3171C28.6932 58.3171 28.1063 57.7474 28.1063 56.5283C28.1063 47.6308 28.1063 38.7332 28.1063 29.8356C28.1063 28.5803 28.6775 28.0287 29.9773 28.0287C39.083 28.0287 48.1886 28.0287 57.2929 28.0287C58.5798 28.0287 59.1581 28.5914 59.1581 29.844C59.1581 35.3819 59.1581 40.9185 59.1581 46.4564C59.1581 46.8823 59.1495 47.3082 59.161 47.7341C59.1796 48.389 59.579 48.9224 60.196 49.1402C61.2452 49.5116 62.2602 48.7506 62.2616 47.5763C62.2644 41.6599 62.2644 35.7436 62.2616 29.8286C62.2616 26.9186 60.2919 25 57.3086 25C48.1872 25 39.0658 25 29.9444 25C26.9669 25 25.0014 26.9242 25 29.8384C25 34.2872 25 38.736 25 43.1848V43.1848ZM56.0275 55.2702C56.0375 55.1725 56.0504 55.111 56.0504 55.051C56.0504 51.9916 56.0561 48.9322 56.0403 45.8741C56.0403 45.687 55.9101 45.4594 55.7698 45.3198C53.7013 43.2797 51.6213 41.2494 49.5414 39.2191C48.7011 38.3994 47.8694 38.4092 47.0163 39.2414C44.4682 41.7297 41.9216 44.2181 39.375 46.7064C39.2519 46.8265 39.123 46.941 38.977 47.075C38.8425 46.9521 38.7237 46.8502 38.612 46.7413C37.5727 45.7261 36.5392 44.704 35.4957 43.6944C34.757 42.9795 33.8781 42.9809 33.1437 43.6902C32.5926 44.2222 32.0329 44.7487 31.5133 45.31C31.3515 45.4846 31.2255 45.7652 31.2241 45.9984C31.2055 48.9475 31.2112 51.8952 31.2127 54.8443C31.2127 54.9812 31.227 55.118 31.2356 55.2716H56.0289L56.0275 55.2702ZM59.1567 58.3185C57.6064 58.3185 56.1363 58.3157 54.6647 58.3185C53.6412 58.3213 52.9397 58.9482 52.9469 59.8461C52.9541 60.7202 53.6555 61.343 54.6461 61.3458C55.9716 61.35 57.2972 61.3458 58.6213 61.3458C58.7917 61.3458 58.962 61.3458 59.1553 61.3458C59.1553 62.879 59.1495 64.3437 59.1567 65.8085C59.161 66.7273 59.8309 67.4046 60.7099 67.4018C61.5902 67.4004 62.2516 66.7259 62.2573 65.8015C62.2645 64.4932 62.2587 63.1848 62.2587 61.8764C62.2587 61.7088 62.2587 61.5427 62.2587 61.3458C63.8219 61.3458 65.3221 61.3514 66.8237 61.3444C67.7714 61.3402 68.4628 60.6979 68.4671 59.8391C68.4714 58.9789 67.78 58.3268 66.838 58.3199C65.7716 58.3115 64.7051 58.3185 63.6372 58.3185C63.1906 58.3185 62.7426 58.3185 62.2573 58.3185C62.2573 58.0951 62.2573 57.9247 62.2573 57.7543C62.2573 56.4138 62.2702 55.0733 62.2501 53.7342C62.2387 52.9467 61.6017 52.3197 60.8201 52.2639C60.0485 52.2094 59.3499 52.7149 59.1896 53.4619C59.1467 53.6602 59.1538 53.8697 59.1538 54.0735C59.151 55.4727 59.1524 56.8718 59.1524 58.3171L59.1567 58.3185ZM38.9613 38.6284C41.1057 38.634 42.8535 36.9333 42.8535 34.8429C42.8535 32.7707 41.1286 31.0742 39.01 31.0588C36.8627 31.0434 35.1034 32.733 35.0948 34.8206C35.0848 36.9123 36.8226 38.6243 38.9627 38.6284H38.9613Z" fill="#D5D5D5"/>
<path d="M25 43.1848C25 38.736 25 34.2872 25 29.8384C25 26.9242 26.9654 25 29.9444 25C39.0658 25 48.1872 25 57.3086 25C60.2933 25 62.2616 26.9186 62.2616 29.8286C62.263 35.745 62.2644 41.6613 62.2616 47.5763C62.2616 48.7506 61.2452 49.5116 60.1959 49.1402C59.579 48.921 59.1796 48.389 59.161 47.7341C59.1495 47.3082 59.1581 46.8823 59.1581 46.4564C59.1581 40.9185 59.1581 35.3819 59.1581 29.844C59.1581 28.5914 58.5798 28.0287 57.2929 28.0287C48.1872 28.0287 39.0815 28.0287 29.9773 28.0287C28.6789 28.0287 28.1078 28.5803 28.1063 29.8356C28.1063 38.7332 28.1063 47.6308 28.1063 56.5283C28.1063 57.7474 28.6932 58.3171 29.9501 58.3171C36.0153 58.3171 42.0805 58.3171 48.1443 58.3185C49.3481 58.3185 50.1312 59.3015 49.7461 60.3306C49.5199 60.9352 49.0576 61.2662 48.4048 61.3402C48.2616 61.3569 48.1142 61.3472 47.9682 61.3472C41.9674 61.3472 35.968 61.3472 29.9673 61.3472C26.9583 61.3472 25 59.4286 25 56.4837C25 52.0502 25 47.6168 25 43.1848V43.1848Z" fill="#242424"/>
<path d="M56.0276 55.2713H31.2342C31.2256 55.1177 31.2113 54.9808 31.2113 54.844C31.2113 51.8949 31.2042 48.9472 31.2228 45.9981C31.2242 45.7649 31.3487 45.4856 31.5119 45.3097C32.0316 44.7483 32.5913 44.2219 33.1424 43.6899C33.8767 42.9806 34.7557 42.9792 35.4943 43.6941C36.5379 44.7051 37.5714 45.7258 38.6107 46.7409C38.7223 46.8499 38.8411 46.9518 38.9757 47.0747C39.1203 46.9406 39.2505 46.8261 39.3736 46.706C41.9217 44.2177 44.4669 41.7294 47.0149 39.2411C47.8681 38.4075 48.6998 38.3977 49.5401 39.2188C51.62 41.2477 53.7 43.278 55.7685 45.3195C55.9102 45.4591 56.039 45.6867 56.039 45.8738C56.0548 48.9332 56.0505 51.9912 56.049 55.0507C56.049 55.1107 56.0376 55.1721 56.0261 55.2699L56.0276 55.2713Z" fill="#242424"/>
<path d="M59.1567 58.3189C59.1567 56.8723 59.1567 55.4732 59.1582 54.0754C59.1582 53.8715 59.151 53.6621 59.1939 53.4638C59.3543 52.7167 60.0543 52.2113 60.8244 52.2657C61.606 52.3216 62.243 52.9485 62.2545 53.7361C62.2745 55.0752 62.2616 56.4157 62.2616 57.7562C62.2616 57.9266 62.2616 58.0969 62.2616 58.3203C62.7469 58.3203 63.1935 58.3203 63.6416 58.3203C64.708 58.3203 65.7745 58.3147 66.8424 58.3217C67.7829 58.3287 68.4757 58.9822 68.4714 59.841C68.4671 60.6997 67.7757 61.342 66.8281 61.3462C65.3279 61.3532 63.8262 61.3476 62.263 61.3476C62.263 61.5445 62.263 61.7121 62.263 61.8782C62.263 63.1866 62.2688 64.495 62.2616 65.8034C62.2559 66.7264 61.5945 67.4008 60.7142 67.4036C59.8338 67.405 59.1653 66.7292 59.161 65.8104C59.1539 64.3456 59.1596 62.8808 59.1596 61.3476C58.9663 61.3476 58.796 61.3476 58.6256 61.3476C57.3001 61.3476 55.9745 61.3504 54.6504 61.3476C53.6598 61.3448 52.9584 60.7207 52.9512 59.8479C52.9441 58.9501 53.6455 58.3231 54.669 58.3203C56.1391 58.3175 57.6093 58.3203 59.161 58.3203L59.1567 58.3189Z" fill="#242424"/>
<path d="M38.9617 38.6283C36.8216 38.6227 35.0838 36.9122 35.0938 34.8205C35.1038 32.7343 36.8617 31.0447 39.0089 31.0587C41.1289 31.0726 42.8524 32.7706 42.8524 34.8428C42.8524 36.9332 41.1046 38.6339 38.9602 38.6283H38.9617Z" fill="#242424"/>
</g>
</svg>
