<svg width="40" height="40" viewBox="0 0 40 40" fill="none" xmlns="http://www.w3.org/2000/svg">
<path d="M8.6127 19.3738C10.1624 19.3738 11.4187 18.1175 11.4187 16.5678C11.4187 15.018 10.1624 13.7617 8.6127 13.7617C7.06295 13.7617 5.80664 15.018 5.80664 16.5678C5.80664 18.1175 7.06295 19.3738 8.6127 19.3738Z" fill="#F0912C"/>
<path d="M12.3594 21.3386C11.6311 21.8867 11.0401 22.5966 10.6333 23.4123C10.2265 24.228 10.0148 25.1272 10.0151 26.0387V26.3895H4.05227C3.7738 26.3875 3.50729 26.276 3.31038 26.0791C3.11346 25.8822 3.00197 25.6157 3 25.3372V24.6357C2.99978 24.1289 3.09943 23.6271 3.29325 23.1589C3.48707 22.6907 3.77127 22.2653 4.12959 21.9069C4.48791 21.5486 4.91334 21.2644 5.38155 21.0706C5.84976 20.8768 6.35158 20.7771 6.85833 20.7773H10.3659C11.0693 20.778 11.7589 20.9721 12.3594 21.3386V21.3386Z" fill="#F0912C"/>
<path d="M31.0619 19.3738C32.6117 19.3738 33.868 18.1175 33.868 16.5678C33.868 15.018 32.6117 13.7617 31.0619 13.7617C29.5122 13.7617 28.2559 15.018 28.2559 16.5678C28.2559 18.1175 29.5122 19.3738 31.0619 19.3738Z" fill="#F0912C"/>
<path d="M36.6758 24.6357V25.3372C36.6738 25.6157 36.5623 25.8822 36.3654 26.0791C36.1685 26.276 35.902 26.3875 35.6235 26.3895H29.6598V26.0387C29.6602 25.1272 29.4487 24.2282 29.042 23.4125C28.6353 22.5968 28.0446 21.8868 27.3164 21.3386C27.9166 20.9723 28.6059 20.7781 29.309 20.7773H32.8166C33.3234 20.777 33.8253 20.8766 34.2936 21.0704C34.762 21.2641 35.1875 21.5483 35.5459 21.9066C35.9043 22.265 36.1886 22.6904 36.3824 23.1587C36.5763 23.627 36.676 24.1289 36.6758 24.6357V24.6357Z" fill="#F0912C"/>
<path d="M19.8378 20.1865C22.1439 20.1865 24.0135 18.13 24.0135 15.5932C24.0135 13.0565 22.1439 11 19.8378 11C17.5316 11 15.6621 13.0565 15.6621 15.5932C15.6621 18.13 17.5316 20.1865 19.8378 20.1865Z" fill="#F0912C"/>
<path d="M23.6959 22.1797H15.9784C14.9554 22.1806 13.9746 22.5874 13.2512 23.3107C12.5278 24.0341 12.121 25.015 12.1201 26.038V28.1426C12.1203 28.4216 12.2313 28.6891 12.4286 28.8864C12.6259 29.0837 12.8934 29.1946 13.1724 29.1948H26.502C26.781 29.1946 27.0485 29.0837 27.2458 28.8864C27.4431 28.6891 27.554 28.4216 27.5543 28.1426V26.038C27.5534 25.015 27.1466 24.0341 26.4232 23.3107C25.6998 22.5874 24.7189 22.1806 23.6959 22.1797V22.1797Z" fill="#F0912C"/>
</svg>
