<svg width="41" height="22" viewBox="0 0 41 22" fill="none" xmlns="http://www.w3.org/2000/svg">
<path d="M6.71986 10.0247C8.57554 10.0247 10.0799 8.52036 10.0799 6.66469C10.0799 4.80901 8.57554 3.30469 6.71986 3.30469C4.86419 3.30469 3.35986 4.80901 3.35986 6.66469C3.35986 8.52036 4.86419 10.0247 6.71986 10.0247Z" fill="#F0912C"/>
<path d="M11.207 12.379C10.3349 13.0354 9.62736 13.8855 9.14021 14.8622C8.65306 15.8389 8.39965 16.9156 8.4 18.007V18.427H1.26C0.926556 18.4247 0.607437 18.2912 0.37165 18.0554C0.135863 17.8196 0.00235702 17.5005 4.33315e-07 17.167V16.327C-0.000262413 15.7203 0.119058 15.1194 0.351142 14.5587C0.583225 13.9981 0.923522 13.4887 1.35258 13.0596C1.78164 12.6306 2.29105 12.2903 2.85169 12.0582C3.41233 11.8261 4.01322 11.7068 4.62 11.707H8.82C9.66225 11.7078 10.4881 11.9403 11.207 12.379Z" fill="#F0912C"/>
<path d="M33.6022 10.0247C35.4579 10.0247 36.9622 8.52036 36.9622 6.66469C36.9622 4.80901 35.4579 3.30469 33.6022 3.30469C31.7465 3.30469 30.2422 4.80901 30.2422 6.66469C30.2422 8.52036 31.7465 10.0247 33.6022 10.0247Z" fill="#F0912C"/>
<path d="M40.3242 16.327V17.167C40.3218 17.5005 40.1883 17.8196 39.9525 18.0554C39.7168 18.2912 39.3976 18.4247 39.0642 18.427H31.9232V18.007C31.9237 16.9156 31.6704 15.8391 31.1834 14.8624C30.6965 13.8856 29.9891 13.0355 29.1172 12.379C29.8358 11.9404 30.6613 11.708 31.5032 11.707H35.7032C36.3101 11.7066 36.911 11.8259 37.4718 12.0579C38.0326 12.2899 38.5421 12.6302 38.9713 13.0593C39.4004 13.4883 39.7408 13.9978 39.9729 14.5585C40.2051 15.1192 40.3245 15.7202 40.3242 16.327Z" fill="#F0912C"/>
<path d="M20.1621 11C22.9235 11 25.1621 8.53757 25.1621 5.5C25.1621 2.46243 22.9235 0 20.1621 0C17.4007 0 15.1621 2.46243 15.1621 5.5C15.1621 8.53757 17.4007 11 20.1621 11Z" fill="#F0912C"/>
<path d="M24.7819 13.3867H15.5409C14.3159 13.3878 13.1414 13.8749 12.2752 14.7411C11.409 15.6072 10.922 16.7817 10.9209 18.0067V20.5267C10.9212 20.8608 11.054 21.1811 11.2902 21.4174C11.5265 21.6536 11.8468 21.7865 12.1809 21.7867H28.1419C28.476 21.7865 28.7963 21.6536 29.0326 21.4174C29.2688 21.1811 29.4016 20.8608 29.4019 20.5267V18.0067C29.4008 16.7817 28.9137 15.6072 28.0476 14.7411C27.1814 13.8749 26.0069 13.3878 24.7819 13.3867Z" fill="#F0912C"/>
</svg>
