<svg width="40" height="40" viewBox="0 0 40 40" fill="none" xmlns="http://www.w3.org/2000/svg">
<path d="M17.9805 9.49783C18.7966 9.8929 19.5506 10.405 20.2188 11.0179C20.8867 10.4047 21.6408 9.89253 22.4571 9.49783C21.8527 8.92485 21.0516 8.60547 20.2188 8.60547C19.386 8.60547 18.5849 8.92485 17.9805 9.49783V9.49783Z" fill="#F0912C"/>
<path d="M13.9449 8.57318C14.6749 8.57287 15.4024 8.65878 16.1122 8.82913C16.5865 8.18645 17.2051 7.66411 17.9181 7.30415C18.6312 6.94419 19.4188 6.75666 20.2175 6.75666C21.0163 6.75666 21.8039 6.94419 22.5169 7.30415C23.23 7.66411 23.8486 8.18645 24.3229 8.82913C25.0324 8.6585 25.7595 8.57227 26.4892 8.57221C26.6215 8.57221 26.7539 8.57221 26.8853 8.58097C26.2721 7.33624 25.3227 6.28804 24.1445 5.55506C22.9664 4.82208 21.6065 4.43359 20.219 4.43359C18.8314 4.43359 17.4716 4.82208 16.2934 5.55506C15.1153 6.28804 14.1659 7.33624 13.5527 8.58097C13.6841 8.57513 13.8165 8.57221 13.9488 8.57221L13.9449 8.57318Z" fill="#F0912C"/>
<path d="M29.6062 16.9242C29.4069 16.2523 28.9957 15.6627 28.434 15.2434C27.8723 14.8242 27.1901 14.5977 26.4892 14.5977C25.7882 14.5977 25.1061 14.8242 24.5443 15.2434C23.9826 15.6627 23.5714 16.2523 23.3721 16.9242H29.6062Z" fill="#F0912C"/>
<path d="M26.4893 10.4219C24.6198 10.4225 22.8192 11.1275 21.4463 12.3965C21.9282 13.0556 22.3208 13.7755 22.6141 14.5374C23.2393 13.8039 24.0597 13.2627 24.9801 12.9766C25.9005 12.6904 26.8831 12.6711 27.8141 12.9208C28.745 13.1705 29.5861 13.679 30.2397 14.3873C30.8933 15.0956 31.3327 15.9747 31.507 16.9227H33.8621C33.6337 15.1279 32.7592 13.4779 31.4021 12.2813C30.0451 11.0848 28.2985 10.4237 26.4893 10.4219Z" fill="#F0912C"/>
<path d="M14.8057 33.6836H25.6274V35.9968H14.8057V33.6836Z" fill="#F0912C"/>
<path d="M8.9293 16.9293C9.14562 15.7569 9.76579 14.6973 10.6821 13.9346C11.5984 13.1719 12.7529 12.7543 13.9451 12.7543C15.1372 12.7543 16.2917 13.1719 17.208 13.9346C18.1243 14.6973 18.7445 15.7569 18.9608 16.9293H21.3159C21.0904 15.1334 20.2169 13.4816 18.8596 12.2841C17.5024 11.0866 15.7546 10.4258 13.9446 10.4258C12.1345 10.4258 10.3868 11.0866 9.02949 12.2841C7.67221 13.4816 6.79879 15.1334 6.57324 16.9293H8.9293Z" fill="#F0912C"/>
<path d="M17.0594 16.9242C16.86 16.2523 16.4488 15.6627 15.8871 15.2434C15.3254 14.8242 14.6432 14.5977 13.9423 14.5977C13.2414 14.5977 12.5592 14.8242 11.9975 15.2434C11.4358 15.6627 11.0246 16.2523 10.8252 16.9242H17.0594Z" fill="#F0912C"/>
<path d="M4.45117 22.9375C4.59516 25.3419 5.65103 27.6007 7.4034 29.2533C9.15577 30.9058 11.4726 31.8275 13.8813 31.8304H26.552C28.9607 31.8275 31.2775 30.9058 33.0299 29.2533C34.7822 27.6007 35.8381 25.3419 35.9821 22.9375H4.45117Z" fill="#F0912C"/>
<path d="M4.43457 18.7773H35.9996V21.0906H4.43457V18.7773Z" fill="#F0912C"/>
</svg>
