<svg width="86" height="26" viewBox="0 0 86 26" fill="none" xmlns="http://www.w3.org/2000/svg">
<path d="M52.5554 18.5379C53.6358 17.541 54.84 16.4426 56.0294 15.3273C56.3755 15.0035 56.6824 14.6363 56.9998 14.2828C57.2993 13.9474 57.4125 13.613 56.9194 13.249C57.9935 13.2892 59.0379 13.2035 60.1829 13.1908C60.0728 13.3305 60.0485 13.3929 60.0178 13.395C58.986 13.4998 58.2495 14.1072 57.5533 14.8056C56.385 15.9781 55.2019 17.1357 54.0199 18.2955C53.8252 18.486 53.712 18.6204 53.9702 18.8818C55.7035 20.6341 57.3564 22.468 59.2009 24.1093C59.6104 24.4744 60.0495 24.7865 60.5522 25.0193C60.9035 25.1823 61.1532 25.0966 61.3966 24.8394C61.6834 24.5368 61.8326 24.1622 61.9723 23.7812C63.2009 20.4289 64.4273 17.0754 65.6601 13.7241C65.7553 13.4659 65.7903 13.031 66.04 13.0236C66.367 13.0141 66.3765 13.4638 66.4792 13.7252C67.6929 16.8394 68.8887 19.9601 70.0961 23.0765C70.2358 23.4363 70.3987 23.7886 70.5712 24.1347C70.9088 24.8098 71.4008 25.2691 72.2146 25.25C72.2908 25.2479 72.3458 25.2892 72.4029 25.4574C71.2844 25.5262 70.1966 25.4405 68.9458 25.4299C69.3987 25.0997 69.2686 24.8087 69.1543 24.5082C68.7204 23.3749 68.2855 22.2416 67.8739 21.0998C67.7606 20.7865 67.604 20.668 67.2633 20.6765C66.3299 20.7008 65.3966 20.6966 64.4633 20.6775C64.1352 20.6712 63.9543 20.7537 63.8495 21.0913C63.5617 22.0151 63.2262 22.923 62.9278 23.8426C62.5818 24.9082 62.6432 25.0236 63.6389 25.3431C63.622 25.4955 63.495 25.4743 63.4051 25.4743C62.2263 25.4743 61.0474 25.4542 59.8696 25.4712C58.8284 25.4849 58.0644 24.941 57.367 24.2744C55.7998 22.7759 54.3585 21.158 52.9152 19.5421C52.8231 19.4394 52.73 19.3368 52.6347 19.232C52.4644 19.34 52.5406 19.4955 52.5406 19.6193C52.5406 20.958 52.5469 22.2966 52.5628 23.6352C52.566 23.9156 52.6157 24.195 52.64 24.4754C52.6834 24.9632 52.967 25.1802 53.4379 25.2225C53.6157 25.2384 53.8316 25.1601 54.0591 25.4775C52.6739 25.4627 51.3808 25.4109 50.0284 25.4923C50.1035 25.3537 50.1141 25.305 50.1363 25.2987C51.058 25.0363 51.1522 24.9431 51.1765 23.9188C51.2517 20.8193 51.2369 17.7188 51.1935 14.6183C51.1808 13.6998 51.0305 13.5559 50.1437 13.4352C50.0432 13.4215 49.9279 13.4469 49.858 13.3379C50.0993 13.1876 53.1332 13.14 53.6485 13.2786C53.6601 13.4384 53.531 13.4172 53.44 13.4352C52.7247 13.577 52.5691 13.7252 52.5607 14.4395C52.5437 15.8934 52.5554 17.3474 52.5554 18.5379ZM65.8178 15.4754C65.7649 15.5082 65.7173 15.5188 65.7098 15.5432C65.2379 16.9611 64.7702 18.3812 64.3014 19.8003C64.1998 20.1082 64.3966 20.1103 64.6104 20.1103C65.4379 20.1082 66.2665 20.1008 67.094 20.1156C67.422 20.1209 67.4823 20.0299 67.368 19.7178C66.9913 18.6945 66.6506 17.6574 66.277 16.6331C66.1363 16.2458 66.0527 15.831 65.8188 15.4754H65.8178Z" fill="#242729"/>
<path d="M36.0708 15.6102C36.147 18.3763 36.1978 21.0885 36.3111 23.7986C36.3502 24.7276 36.3809 25.2493 37.6507 25.2451C37.7216 25.2451 37.7904 25.2642 37.8349 25.4112H34.0497C34.1015 25.2197 34.2391 25.2451 34.3566 25.2292C35.0814 25.1287 35.1788 25.0419 35.2507 24.3065C35.2931 23.8694 35.3068 23.4282 35.3079 22.988C35.3163 20.0631 35.3174 17.1393 35.3216 14.2144C35.3216 14.0028 35.3153 13.7912 35.3259 13.5806C35.3365 13.3774 35.2603 13.0949 35.4825 13.0123C35.674 12.9414 35.7989 13.1933 35.9259 13.3298C37.5206 15.0462 39.1121 16.7647 40.7015 18.4853C42.0401 19.9351 43.3745 21.3869 44.7089 22.8398C44.8232 22.9636 44.9248 23.0991 44.9999 23.1901C44.9999 21.1361 45.0052 19.1171 44.9978 17.0991C44.9946 16.3245 44.9671 15.5488 44.946 14.7742C44.9163 13.715 44.784 13.569 43.7555 13.4303C43.6433 13.4155 43.5005 13.4578 43.4179 13.2462H47.0888C47.0243 13.3319 47.0094 13.3753 46.984 13.3827C45.9364 13.6981 45.9131 13.7203 45.91 14.8314C45.8973 18.1785 45.893 21.5255 45.8793 24.8726C45.8793 25.0948 45.9745 25.4102 45.7629 25.5128C45.5036 25.6388 45.3407 25.3266 45.1777 25.1657C42.1872 22.225 39.3502 19.1393 36.546 16.0219C36.4222 15.8832 36.329 15.7055 36.0708 15.6081V15.6102Z" fill="#242729"/>
<path d="M73.3712 13.3148C73.4061 13.2142 73.4929 13.1899 73.5807 13.1963C75.2495 13.3243 76.9246 13.0809 78.5924 13.2777C80.1543 13.4608 81.2929 14.5 81.4104 15.8269C81.5045 16.8978 81.1606 17.8407 80.5352 18.6883C80.2961 19.0132 80.0252 19.319 79.7384 19.6026C79.5447 19.7941 79.4823 19.92 79.6791 20.1624C80.677 21.3931 81.6135 22.6714 82.6749 23.8502C83.3945 24.6502 84.2082 25.2502 85.3426 25.2512C85.4326 25.2512 85.5183 25.2714 85.55 25.3751C84.1225 25.8777 82.2484 25.4005 81.2897 24.2629C80.3479 23.1454 79.495 21.9571 78.6516 20.7645C78.4051 20.4153 78.1416 20.2174 77.6982 20.2629C77.1627 20.3179 76.4707 20.0227 76.1268 20.3687C75.8083 20.6894 76.0368 21.374 76.04 21.8978C76.0442 22.6714 76.0717 23.447 76.1236 24.2184C76.1786 25.029 76.3395 25.1666 77.1596 25.2364C77.2813 25.247 77.4019 25.265 77.5215 25.2883C77.5448 25.2925 77.5585 25.3423 77.6104 25.4248H73.5839C73.6146 25.3497 73.6199 25.319 73.6273 25.319C74.5881 25.2618 74.6633 24.5878 74.6876 23.8428C74.7913 20.7973 74.7426 17.7507 74.7183 14.7052C74.7098 13.682 74.5998 13.6047 73.5818 13.4375C73.495 13.4238 73.4051 13.4195 73.3723 13.3158L73.3712 13.3148ZM76.0283 16.664V17.9835C76.0283 19.7232 76.1543 19.8417 77.9342 19.7708C78.004 19.7677 78.0749 19.7613 78.1447 19.7581C78.9119 19.7232 79.4178 19.319 79.731 18.6386C80.0114 18.0312 80.0749 17.3909 80.0527 16.7327C79.9797 14.5867 78.6125 13.4513 76.495 13.7582C76.149 13.8079 76.0114 13.9285 76.0209 14.2904C76.0442 15.082 76.0284 15.8735 76.0273 16.665L76.0283 16.664Z" fill="#242729"/>
<path d="M3.59258 25.425C2.40846 25.4071 1.21799 25.479 0 25.4896C0.0486771 25.3034 0.104762 25.2589 0.179894 25.2621C1.20317 25.3012 1.62433 24.6367 1.92804 23.8018C3.11851 20.5277 4.31533 17.2558 5.52697 13.9891C5.65395 13.6462 5.65184 13.0589 6.0402 13.0547C6.35131 13.0505 6.39469 13.6399 6.52485 13.9743C7.70686 17.0071 8.87405 20.0462 10.0497 23.0822C10.1767 23.4102 10.3164 23.734 10.4719 24.0494C10.819 24.751 11.2952 25.2822 12.165 25.26C12.2391 25.2578 12.2994 25.2949 12.3449 25.4356H8.91638C9.34918 25.1139 9.22537 24.824 9.11109 24.5224C8.67723 23.3891 8.24442 22.2547 7.83067 21.1139C7.7185 20.805 7.564 20.678 7.22114 20.6864C6.28781 20.7108 5.35342 20.7044 4.42009 20.6875C4.09523 20.6811 3.91216 20.7573 3.80634 21.1012C3.51639 22.042 3.17036 22.9658 2.87195 23.9044C2.53862 24.951 2.59682 25.0473 3.5947 25.4272L3.59258 25.425ZM5.76612 15.4663C5.70475 15.5256 5.64972 15.5531 5.63596 15.5944C5.17353 16.9923 4.71745 18.3912 4.25501 19.7891C4.16189 20.0695 4.29734 20.1224 4.53861 20.1203C5.36295 20.115 6.18834 20.1076 7.01268 20.1245C7.3513 20.1309 7.44548 20.0536 7.31638 19.7087C6.95448 18.7404 6.62538 17.7605 6.27617 16.787C6.11956 16.351 6.01268 15.8939 5.76612 15.4653V15.4663Z" fill="#242729"/>
<path d="M33.4814 25.4332H30.147C30.5036 25.0554 30.3491 24.7284 30.2211 24.3941C29.8052 23.3105 29.383 22.23 28.9925 21.138C28.874 20.8068 28.7258 20.666 28.3544 20.6777C27.4221 20.7062 26.4888 20.6999 25.5565 20.6798C25.2232 20.6724 25.0549 20.7718 24.9512 21.1041C24.6634 22.0269 24.328 22.9348 24.0295 23.8544C23.6867 24.9094 23.7544 25.0332 24.7512 25.412H21.1735C21.1936 25.3009 21.2475 25.2544 21.3227 25.2575C22.3142 25.3009 22.7597 24.6787 23.0581 23.8575C23.8994 21.5454 24.7481 19.2353 25.5936 16.9242C26.0221 15.7518 26.4475 14.5782 26.8835 13.4089C26.9406 13.2544 26.965 13.0121 27.1671 13.0078C27.3766 13.0047 27.3957 13.2512 27.4549 13.4047C28.7025 16.6163 29.9428 19.8311 31.1872 23.0438C31.3015 23.339 31.4221 23.6322 31.5576 23.9179C31.9385 24.7263 32.4687 25.3422 33.5173 25.2533L33.4793 25.4332H33.4814ZM26.9703 15.4766L26.819 15.4809C26.347 16.9232 25.875 18.3655 25.4041 19.8089C25.3036 20.1168 25.5068 20.1136 25.7163 20.1136C26.383 20.1115 27.0496 20.1136 27.7163 20.1136C28.3124 20.1136 28.5131 19.8367 28.3184 19.283C27.8697 18.0142 27.42 16.7454 26.9703 15.4766Z" fill="#242729"/>
<path d="M13.511 25.3405C13.564 25.3109 13.6063 25.2738 13.6539 25.2622C14.5142 25.0389 14.5692 24.9987 14.6126 24.1119C14.7682 20.9786 14.6952 17.8421 14.6666 14.7077C14.6571 13.6654 14.5396 13.5871 13.5322 13.44C13.4444 13.4273 13.3555 13.4231 13.2666 13.2008C14.655 13.2093 15.9936 13.2739 17.3629 13.1797C17.2962 13.5035 17.1184 13.4305 17.001 13.4474C16.2666 13.5511 16.1036 13.7098 16.0856 14.4675C16.0624 15.4538 16.0592 16.44 16.0613 17.4262C16.0655 19.294 16.056 21.1617 16.0962 23.0273C16.1311 24.641 16.401 24.8791 18.0042 24.8971C18.3915 24.9013 18.7809 24.9109 19.1661 24.8791C20.0708 24.8061 20.4475 24.4876 20.711 23.622C20.7502 23.4939 20.711 23.3278 20.9597 23.2262C20.9883 23.9532 20.91 24.6336 20.6602 25.2834C20.5555 25.5564 20.256 25.5331 20.0105 25.5289C18.8486 25.5109 17.6867 25.477 16.5248 25.4643C15.7333 25.4548 14.9407 25.4738 14.1481 25.4717C13.9491 25.4717 13.729 25.5574 13.51 25.3426L13.511 25.3405Z" fill="#242729"/>
<path d="M34.4729 0.0216074C34.511 -0.0133131 34.5385 -0.00590664 34.548 0.0438287C34.5502 0.0586435 34.5375 0.0755759 34.5322 0.0914489C34.5152 0.0649939 34.4983 0.038539 34.4814 0.012084L34.474 0.0216074H34.4729Z" fill="#242729"/>
<path d="M30.3651 14.9251C30.3259 14.8912 30.3301 14.8637 30.3799 14.8521C30.3936 14.8489 30.4116 14.8616 30.4275 14.8669C30.4031 14.8838 30.3778 14.8997 30.3534 14.9166L30.3651 14.9251Z" fill="#242729"/>
</svg>
