<svg width="326" height="72" viewBox="0 0 326 72" fill="none" xmlns="http://www.w3.org/2000/svg">
<g clip-path="url(#clip0_1907_8865)">
<path d="M32.3578 70.9279C32.2151 70.8496 32.1077 70.7197 32.0577 70.5647C32.0076 70.4098 32.0187 70.2416 32.0886 70.0946C32.2185 69.9079 32.4086 69.7715 32.627 69.7082C32.7482 69.6665 32.9259 69.7863 33.1763 69.8657C33.3771 69.9003 33.5812 69.912 33.7847 69.9007C34.0037 69.8805 34.2159 69.8134 34.4067 69.7041C34.5976 69.5947 34.7628 69.4457 34.891 69.2669C35.0193 69.0882 35.1077 68.8841 35.1502 68.6682C35.1928 68.4524 35.1885 68.23 35.1376 68.0159C34.9839 67.3958 34.6734 66.8255 34.2357 66.36C33.5949 65.5523 32.9555 64.7297 32.3793 63.8708C31.9709 63.2753 31.7599 62.5665 31.7762 61.8446C31.7277 61.4462 31.7701 61.0419 31.9002 60.6621C32.0303 60.2824 32.2447 59.937 32.5274 59.652C32.81 59.367 33.1536 59.1497 33.5322 59.0165C33.9108 58.8833 34.3147 58.8376 34.7136 58.8828C35.1116 58.882 35.5087 58.9231 35.8982 59.0053C36.0539 59.0435 36.192 59.1334 36.2898 59.2604C36.3876 59.3873 36.4394 59.5438 36.4367 59.7041C36.4443 59.7838 36.4353 59.8642 36.4104 59.9402C36.3854 60.0163 36.345 60.0864 36.2916 60.1461C36.2383 60.2058 36.1731 60.2538 36.1003 60.287C36.0275 60.3203 35.9486 60.3382 35.8686 60.3395C35.7124 60.3462 35.5549 60.3395 35.3988 60.3395C35.1584 60.3276 34.9175 60.3357 34.6786 60.3637C34.4824 60.388 34.2941 60.4558 34.1275 60.5622C33.9609 60.6685 33.8201 60.8108 33.7155 60.9785C33.6108 61.1462 33.545 61.3352 33.5227 61.5316C33.5005 61.7281 33.5224 61.927 33.5868 62.1139C33.8786 62.9435 34.3253 63.7102 34.9034 64.3729C35.6642 65.1925 36.2887 66.1289 36.753 67.1463C36.9828 67.7437 37.0286 68.3963 36.8847 69.02C36.7408 69.6437 36.4136 70.2102 35.9453 70.6466C35.377 71.1032 34.6642 71.342 33.9355 71.3197C33.3842 71.3313 32.8397 71.1961 32.3578 70.9279ZM259.107 68.335C258.954 67.2693 258.866 66.1952 258.845 65.1188C258.937 63.9475 259.033 62.9122 259.092 61.8756C259.162 61.2388 259.361 60.6228 259.676 60.0649C259.81 59.7274 260.04 59.4368 260.338 59.2288C260.636 59.0209 260.988 58.9048 261.351 58.8949C261.908 58.8774 262.469 58.833 263.027 58.8694C263.634 58.8572 264.224 59.0706 264.683 59.4685C265.142 59.8664 265.437 60.4204 265.512 61.0234C266.022 63.6213 266.034 66.2924 265.549 68.8951C265.499 69.5478 265.195 70.1549 264.702 70.5866C264.21 71.0182 263.569 71.2403 262.915 71.2053C262.646 71.2214 262.389 71.2308 262.156 71.2308C260.192 71.2255 259.552 70.5793 259.107 68.335ZM261.164 61.1419C260.557 63.7109 260.551 66.3854 261.147 68.957C261.166 69.0348 261.194 69.1099 261.232 69.1805C261.316 69.4065 261.469 69.5998 261.671 69.7321C261.872 69.8644 262.11 69.9287 262.351 69.9155C262.592 69.9125 262.827 69.8408 263.029 69.709C263.23 69.5771 263.39 69.3905 263.49 69.1711C263.677 68.7315 263.798 68.2664 263.848 67.7911C263.903 66.9174 263.863 66.041 263.863 65.1618C263.987 63.8093 263.893 62.4456 263.584 61.123C263.54 60.9309 263.447 60.7537 263.313 60.6093C263.179 60.4648 263.009 60.3583 262.821 60.3005C262.641 60.2366 262.452 60.2025 262.261 60.1995C261.995 60.1971 261.737 60.2913 261.535 60.4646C261.333 60.6379 261.201 60.8786 261.164 61.1419ZM182.025 70.3962C182 69.0351 182.025 67.6713 182 66.3102C181.981 65.4661 181.801 65.2965 181.058 65.2413C179.888 65.1551 179.631 65.3638 179.605 66.5377C179.579 67.818 179.605 69.0957 179.594 70.3827C179.594 70.8687 179.287 71.0868 178.838 71.1272C178.244 71.181 177.846 70.9091 177.84 70.3881C177.82 68.3041 177.821 66.2146 177.823 64.1387C177.823 62.6968 177.816 61.255 177.846 59.8131C177.858 59.1669 178.144 58.934 178.73 58.9475C179.351 58.9623 179.561 59.3621 179.571 59.8818C179.594 61.0773 179.581 62.2727 179.581 63.4265C180.323 63.779 181.174 63.8274 181.951 63.5611C181.981 62.2579 182 60.9197 182.043 59.5842C182.062 59.0848 182.413 58.9259 182.851 58.9313C183.288 58.9367 183.635 59.0659 183.7 59.564C183.721 59.7225 183.731 59.8822 183.731 60.042C183.731 63.4059 183.734 66.7715 183.739 70.139C183.739 70.5523 183.713 70.9387 183.24 71.103C183.118 71.1461 182.99 71.1684 182.861 71.1689C182.755 71.1755 182.649 71.1605 182.549 71.1248C182.448 71.0891 182.356 71.0334 182.278 70.9612C182.2 70.889 182.137 70.8017 182.094 70.7046C182.051 70.6075 182.027 70.5025 182.025 70.3962ZM114.106 70.4729C114.077 70.069 114.09 69.6732 114.089 69.2734C114.089 68.3929 114.106 67.5138 114.089 66.6333C114.058 65.3692 113.757 65.1309 112.487 65.2426C112.388 65.2375 112.289 65.2531 112.196 65.2883C112.103 65.3236 112.019 65.3778 111.948 65.4474C111.877 65.5171 111.822 65.6007 111.785 65.6929C111.749 65.7851 111.732 65.8839 111.736 65.9831C111.709 67.4236 111.722 68.8641 111.695 70.3019C111.684 70.8916 111.41 71.1097 110.785 71.1366C110.127 71.1608 109.809 70.9481 109.808 70.3948C109.795 66.8748 109.796 63.3552 109.809 59.836C109.809 59.1696 110.045 58.9596 110.646 58.9394C111.352 58.9165 111.662 59.175 111.683 59.9235C111.714 61.1123 111.691 62.3024 111.691 63.4359C112.426 63.7828 113.268 63.8249 114.033 63.5531C114.066 62.2283 114.077 60.8861 114.133 59.5439C114.155 59.0403 114.553 58.938 114.987 58.9488C115.145 58.9355 115.303 58.9788 115.433 59.071C115.562 59.1632 115.655 59.2982 115.695 59.4523C115.734 59.6084 115.751 59.7693 115.746 59.9302C115.75 63.3704 115.752 66.8106 115.752 70.2508C115.775 70.4059 115.753 70.5643 115.689 70.7073C115.625 70.8504 115.521 70.9722 115.39 71.0585C115.268 71.1294 115.128 71.1652 114.987 71.1622C114.782 71.1708 114.581 71.1061 114.419 70.9798C114.258 70.8534 114.147 70.6737 114.106 70.4729ZM59.9514 70.4312C59.911 69.4753 59.9191 68.5168 59.9231 67.5609C59.9409 66.5258 59.7543 65.4973 59.3739 64.5345C58.7856 63.0536 58.3535 61.5215 57.8797 60.0029C57.7652 59.6354 57.636 59.2086 58.1489 58.9946C58.2745 58.9406 58.4102 58.9141 58.5468 58.9169C58.6835 58.9197 58.818 58.9516 58.9413 59.0107C59.0646 59.0697 59.1738 59.1544 59.2617 59.2592C59.3495 59.3639 59.4139 59.4862 59.4506 59.6179C59.7778 60.5993 60.0524 61.5956 60.3499 62.5797C60.4347 62.8718 60.4253 63.2205 61.0122 63.3875C61.416 62.0614 61.8118 60.769 62.2237 59.4833C62.4122 58.8963 62.8968 58.8976 63.3922 58.9623C63.5117 58.9688 63.6243 59.0205 63.7071 59.107C63.7899 59.1936 63.8366 59.3083 63.8378 59.4281C63.8415 59.6645 63.8033 59.8997 63.7247 60.1228C63.5766 60.5751 63.3976 61.0167 63.2334 61.469C62.0322 64.1706 61.4997 67.122 61.6812 70.0731C61.7396 70.2641 61.7252 70.47 61.6406 70.651C61.5561 70.832 61.4075 70.9753 61.2235 71.0531C61.084 71.113 60.9338 71.1441 60.782 71.1447C60.6804 71.1537 60.5779 71.1423 60.4808 71.1111C60.3836 71.0799 60.2937 71.0295 60.2163 70.963C60.1389 70.8966 60.0756 70.8152 60.0301 70.7239C59.9846 70.6325 59.9578 70.533 59.9514 70.4312ZM142.427 70.7812C142.248 70.4263 142.128 70.0449 142.071 69.6517C142.028 69.3715 141.878 69.1191 141.651 68.9484C141.425 68.7776 141.141 68.702 140.86 68.7376C139.905 68.7268 139.648 68.8399 139.359 69.5803C139.212 69.9519 139.151 70.3612 138.976 70.7166C138.879 70.893 138.72 71.0277 138.53 71.0956C138.34 71.1635 138.132 71.1599 137.944 71.0855C137.414 70.9724 137.385 70.5927 137.474 70.174C137.949 67.9823 138.416 65.7906 138.909 63.6029C139.134 62.5891 139.382 61.5835 139.629 60.5711C139.719 60.1819 139.835 59.7992 139.975 59.4254C140.032 59.2754 140.136 59.1476 140.271 59.0606C140.406 58.9737 140.565 58.9321 140.725 58.9421C140.885 58.9364 141.043 58.9745 141.183 59.052C141.322 59.1296 141.438 59.2438 141.518 59.3823C141.558 59.4516 141.586 59.5272 141.6 59.6058C142.396 63.2012 143.19 66.7971 143.98 70.3935C143.953 70.9401 143.722 71.0208 143.502 71.0841C143.38 71.1205 143.253 71.1395 143.125 71.1406C142.988 71.1477 142.851 71.1185 142.728 71.0558C142.606 70.9932 142.502 70.8994 142.427 70.7839V70.7812ZM139.954 66.8312C139.892 67.3253 140.358 67.433 140.77 67.433C141.094 67.433 141.511 67.3334 141.472 66.9834C141.45 65.7964 141.145 64.6319 140.582 63.5867C140.316 64.9114 140.078 65.866 139.955 66.8339L139.954 66.8312ZM244.147 70.3558C244.128 68.5895 244.14 66.8245 244.14 65.0582H244.148C244.148 63.2919 244.135 61.5269 244.156 59.7606C244.166 59.1157 244.433 58.903 245.047 58.9326C245.661 58.9623 245.903 59.1777 245.924 59.8145C245.96 60.8551 245.953 61.8998 245.975 62.9418C245.983 63.2717 246.073 63.6231 246.443 63.6661C246.982 63.7294 247.574 63.891 248.059 63.5059C248.206 63.3267 248.28 63.0992 248.269 62.8678C248.294 61.9052 248.269 60.9413 248.301 59.9787C248.327 59.179 248.601 58.9205 249.294 58.9421C249.864 58.9609 250.102 59.1857 250.102 59.875C250.115 63.3269 250.115 66.7783 250.102 70.2292C250.102 70.8916 249.865 71.1164 249.273 71.1285C248.554 71.1447 248.301 70.9077 248.29 70.1363C248.275 68.9328 248.304 67.7278 248.282 66.5229C248.262 65.3598 248.094 65.1982 247.085 65.2278C246.154 65.2534 245.988 65.4378 245.965 66.632C245.942 67.8261 245.965 69.0405 245.953 70.2427C245.942 70.8929 245.728 71.0908 245.094 71.1312C245.045 71.1312 244.997 71.1312 244.952 71.1312C244.413 71.142 244.156 70.9131 244.156 70.3585L244.147 70.3558ZM153.312 71.1339C153.192 71.1477 153.071 71.1338 152.957 71.0934C152.844 71.053 152.741 70.987 152.657 70.9007C152.573 70.8144 152.51 70.7099 152.473 70.5954C152.436 70.4808 152.425 70.3592 152.442 70.24C152.442 68.4764 152.442 66.7141 152.442 64.9505C152.442 63.2676 152.422 61.5848 152.45 59.902C152.465 59.0875 152.907 58.7994 153.73 58.9475C154.087 59.0121 154.321 59.2019 154.327 59.564C154.351 60.8457 154.355 62.1287 154.358 63.4103C154.364 65.1726 154.377 66.9362 154.358 68.6999C154.338 68.8173 154.344 68.9377 154.375 69.0526C154.406 69.1675 154.463 69.2741 154.539 69.3651C154.616 69.456 154.712 69.529 154.82 69.579C154.929 69.629 155.046 69.6547 155.165 69.6544C155.642 69.6814 156.116 69.7344 156.587 69.8132C156.745 69.8523 156.882 69.9491 156.972 70.0843C157.062 70.2196 157.098 70.3837 157.073 70.5442C157.07 70.624 157.052 70.7024 157.018 70.7747C156.984 70.847 156.936 70.9116 156.876 70.9647C156.817 71.0177 156.747 71.058 156.671 71.0832C156.596 71.1084 156.516 71.1178 156.436 71.111C155.682 71.1272 154.928 71.1357 154.173 71.1366C153.89 71.1393 153.604 71.1393 153.317 71.1366L153.312 71.1339ZM166.639 71.1231C166.061 71.0747 165.823 70.7798 165.824 70.1915C165.843 67.8746 165.831 65.5577 165.824 63.2407C165.824 62.6012 165.824 61.9618 165.824 61.3236C165.824 60.769 165.626 60.4162 165.005 60.4243C164.844 60.4279 164.686 60.3918 164.543 60.3193C164.403 60.2409 164.292 60.1209 164.224 59.976C164.156 59.8312 164.136 59.6688 164.165 59.5115C164.167 59.4323 164.185 59.3544 164.218 59.2825C164.251 59.2106 164.299 59.1462 164.358 59.0933C164.417 59.0404 164.486 59 164.561 58.9747C164.636 58.9494 164.716 58.9397 164.795 58.9461C165.513 58.9353 166.234 58.9461 166.948 58.9461V58.8949C167.667 58.9313 168.387 58.9394 169.102 59.0296C169.272 59.0511 169.474 59.3231 169.542 59.521C169.59 59.6733 169.581 59.8378 169.517 59.984C169.452 60.1301 169.337 60.2478 169.192 60.3153C169.045 60.3749 168.89 60.4143 168.732 60.4324C167.741 60.7016 167.718 60.7016 167.712 61.5956C167.695 63.7496 167.705 65.9036 167.702 68.0671C167.702 68.786 167.717 69.5049 167.702 70.2211C167.683 70.8835 167.453 71.1339 166.866 71.1339C166.795 71.1348 166.721 71.1321 166.643 71.1258L166.639 71.1231ZM22.1741 70.7893C22.0291 70.5057 21.9075 70.2108 21.8106 69.9075C21.3731 68.7833 21.3058 68.7295 20.3514 68.7456C19.4468 68.7618 19.3996 68.8035 18.9823 70.0542C18.9056 70.279 18.8881 70.5294 18.7939 70.7448C18.6431 71.0881 18.2985 71.0881 17.9862 71.1245C17.8882 71.1401 17.788 71.1311 17.6944 71.0984C17.6008 71.0656 17.5168 71.01 17.4501 70.9367C17.3833 70.8634 17.3358 70.7746 17.3119 70.6784C17.288 70.5821 17.2884 70.4814 17.3131 70.3854C17.5365 69.0391 17.76 67.7036 18.0346 66.3721C18.4237 64.4968 18.8423 62.6282 19.2771 60.7609C19.3835 60.2991 19.5652 59.8521 19.7093 59.3985C19.825 59.0255 20.1333 58.9528 20.4591 58.9394C20.6171 58.9143 20.779 58.944 20.9178 59.0236C21.0567 59.1032 21.1641 59.2278 21.2223 59.3769C21.3268 59.6799 21.4118 59.9893 21.4768 60.3032C22.1839 63.4148 22.888 66.5274 23.5889 69.6409C23.6288 69.8774 23.6544 70.1162 23.6656 70.3558C23.702 70.7018 23.6239 71.0074 23.2389 71.0841C23.1004 71.1148 22.9593 71.132 22.8175 71.1353C22.6886 71.144 22.5598 71.1162 22.446 71.055C22.3321 70.9938 22.2379 70.9017 22.1741 70.7893ZM19.6689 66.7855C19.5679 67.2365 19.9879 67.4276 20.4348 67.4236C20.8818 67.4195 21.221 67.2755 21.1806 66.7693C21.1837 65.6122 20.9606 64.4656 20.5237 63.3942C20.0593 64.4717 19.7707 65.6166 19.6689 66.7855ZM194.201 70.3517C194.181 70.1125 194.181 69.872 194.201 69.6328C194.354 66.8332 193.839 64.0374 192.699 61.4758C192.483 60.8756 192.305 60.2622 192.167 59.6394C192.141 59.5638 192.133 59.4831 192.143 59.4038C192.154 59.3244 192.182 59.2485 192.227 59.1821C192.271 59.1156 192.331 59.0605 192.4 59.0209C192.47 58.9814 192.548 58.9585 192.628 58.9542C192.781 58.9078 192.944 58.9041 193.1 58.9434C193.255 58.9828 193.397 59.0638 193.51 59.1777C193.677 59.4425 193.802 59.7325 193.878 60.0366C194.239 61.1365 194.584 62.2404 194.934 63.339C195.542 63.1882 195.53 62.7493 195.645 62.3831C195.955 61.3963 196.276 60.4122 196.595 59.4294C196.711 59.07 196.999 58.9905 197.337 58.9475C197.804 58.8869 198.194 59.175 198.13 59.564C198.085 59.879 198.014 60.1897 197.918 60.493C197.416 61.9241 196.895 63.3484 196.388 64.7782C196.123 65.5352 195.996 66.3337 196.015 67.1355C196.034 68.1748 196.034 69.2168 196.015 70.2561C196.005 70.8687 195.745 71.1056 195.148 71.1312H195.059C194.949 71.1493 194.836 71.1424 194.729 71.1108C194.622 71.0792 194.524 71.0239 194.442 70.9489C194.359 70.8739 194.295 70.7812 194.253 70.6778C194.212 70.5744 194.194 70.4629 194.201 70.3517ZM274.346 70.2965C274.559 68.2246 274.698 66.146 274.87 64.0714C274.968 62.8732 275.059 61.6763 275.181 60.4822C275.217 60.0888 275.308 59.7023 275.45 59.3338C275.585 59.0053 275.935 58.9461 276.258 58.9569C276.581 58.9676 276.931 59.0632 277.016 59.4119C277.234 60.3449 277.363 61.2967 277.588 62.227C277.703 63.4653 278.047 64.6715 278.603 65.7838C279.079 65.1355 279.364 64.367 279.426 63.5652C279.677 62.3091 279.948 61.0584 280.227 59.8077C280.278 59.5775 280.345 59.2598 280.508 59.1656C280.794 59.0466 281.1 58.9861 281.41 58.9878C281.47 58.9855 281.531 58.9952 281.588 59.0164C281.644 59.0376 281.696 59.0699 281.741 59.1113C281.785 59.1528 281.82 59.2026 281.845 59.2579C281.87 59.3132 281.883 59.3729 281.885 59.4335C282.02 60.3839 282.115 61.3398 282.207 62.2956C282.462 65.0016 282.71 67.7085 282.951 70.4164C282.996 70.9172 282.682 71.1178 282.215 71.1137C281.785 71.1137 281.426 70.9993 281.373 70.4877C281.2 68.817 281.03 67.1463 280.842 65.2763C280.188 66.6094 279.758 68.0406 279.567 69.513C279.416 70.1256 279.461 70.8297 278.701 71.0801C278.219 71.2389 277.813 70.6466 277.592 69.4982C277.397 68.4764 277.218 67.4532 277.012 66.4354C276.986 66.3129 276.825 66.1244 276.733 66.1285C276.615 66.1306 276.503 66.1792 276.421 66.2636C276.339 66.3481 276.293 66.4616 276.294 66.5795C276.196 67.8571 276.092 69.1374 276.004 70.411C276.002 70.5694 275.946 70.7224 275.845 70.8448C275.745 70.9672 275.605 71.0516 275.45 71.0841C275.35 71.1142 275.247 71.1296 275.142 71.1299C275.032 71.1375 274.922 71.1209 274.82 71.0812C274.717 71.0415 274.625 70.9796 274.549 70.9001C274.473 70.8205 274.415 70.7252 274.38 70.6209C274.345 70.5165 274.334 70.4058 274.346 70.2965ZM318.836 71.1326C318.404 71.1151 318.055 70.9804 318.028 70.4594C318.012 70.2998 318.008 70.1391 318.017 69.9788C318.16 67.0163 317.613 64.0612 316.418 61.3465C316.201 60.7444 316.015 60.1315 315.861 59.5102C315.75 59.0552 316.158 59.0417 316.426 58.9434C316.958 58.9111 317.382 58.9852 317.558 59.5869C317.872 60.664 318.225 61.7262 318.577 62.7897C318.602 62.8554 318.642 62.9147 318.693 62.9629C318.744 63.0112 318.805 63.0473 318.872 63.0684C319.141 63.1101 319.288 62.9176 319.35 62.6726C319.566 61.8191 319.78 60.9664 319.991 60.1147C320.05 59.7154 320.262 59.3549 320.583 59.1104C320.746 58.9936 320.939 58.9265 321.139 58.9171C321.339 58.9078 321.537 58.9567 321.71 59.0578C322.038 59.2598 321.968 59.6152 321.867 59.9168C321.518 61.1465 321.1 62.3559 320.617 63.5396C319.987 65.0193 319.716 66.627 319.827 68.2314C319.848 68.9503 319.845 69.6732 319.827 70.3948C319.808 70.9037 319.514 71.1366 318.929 71.1366L318.836 71.1326ZM47.3244 71.1326C46.7052 71.1097 46.4198 70.8741 46.4131 70.2952C46.3969 68.7712 46.4131 67.2445 46.4131 65.7179C46.4131 64.3541 46.3888 62.989 46.4198 61.6252C46.4359 60.8659 46.2179 60.3893 45.3657 60.3839C45.2892 60.3762 45.2153 60.3515 45.1494 60.3117C45.0835 60.2719 45.0273 60.2179 44.9848 60.1537C44.8774 59.9491 44.8111 59.7255 44.7896 59.4954C44.7831 59.4353 44.7889 59.3745 44.8066 59.3167C44.8243 59.2588 44.8535 59.2052 44.8925 59.159C44.9315 59.1128 44.9795 59.075 45.0335 59.0479C45.0876 59.0208 45.1466 59.005 45.2069 59.0013C46.6428 58.9708 48.0836 58.9641 49.5294 58.9811C49.6913 58.9786 49.8477 59.0401 49.9644 59.1523C50.0811 59.2645 50.1488 59.4183 50.1527 59.5802C50.1785 59.7378 50.1497 59.8995 50.0711 60.0386C49.9926 60.1776 49.8689 60.2857 49.7206 60.3449C49.5704 60.4044 49.4094 60.4314 49.2481 60.4243C48.5615 60.4041 48.2344 60.6936 48.2411 61.4138C48.256 63.6608 48.2411 65.909 48.2411 68.1546C48.2411 68.8776 48.2519 69.5992 48.2344 70.3208C48.2196 70.8929 47.9652 71.1285 47.4079 71.1285L47.3244 71.1326ZM126.782 71.1043H126.417C124.437 71.1043 124.753 71.1043 124.734 69.0499C124.721 67.6928 124.734 66.3345 124.734 64.9747H124.745C124.745 63.2959 124.729 61.6198 124.752 59.9424C124.762 59.144 124.932 58.9878 125.76 58.9771C126.716 58.965 127.675 58.9865 128.631 59.0377C128.751 59.0421 128.865 59.0922 128.949 59.1778C129.034 59.2634 129.082 59.378 129.085 59.4981C129.114 59.6537 129.09 59.8146 129.017 59.955C128.944 60.0953 128.825 60.207 128.681 60.2722C128.457 60.3543 128.219 60.3914 127.981 60.3812C126.635 60.3664 126.46 60.4957 126.476 61.8621C126.476 62.021 126.465 62.1825 126.476 62.3414C126.433 62.8863 126.493 63.4345 126.654 63.9569C126.86 64.35 127.277 64.3218 127.693 64.2935C127.86 64.2782 128.029 64.2782 128.196 64.2935C128.661 64.3487 128.953 64.5749 128.913 65.0447C128.91 65.2059 128.846 65.3601 128.735 65.4764C128.623 65.5927 128.472 65.6626 128.311 65.6721C128.071 65.6936 127.833 65.7004 127.593 65.7165C127.433 65.7273 127.274 65.7394 127.118 65.7569C126.958 65.7646 126.807 65.8355 126.699 65.954C126.591 66.0726 126.534 66.2293 126.541 66.3897C126.507 66.947 126.489 67.5071 126.489 68.0658C126.489 69.5776 126.498 69.5776 128 69.7755C128.793 69.8805 129.315 70.244 129.183 70.621C129.016 71.1083 128.634 71.1003 128.258 71.0922C128.163 71.0922 128.069 71.0922 127.978 71.0922C127.825 71.1016 127.67 71.1056 127.517 71.1056C127.273 71.1043 127.027 71.1043 126.782 71.1043ZM305.781 71.0935C304.479 71.0733 304.464 71.0639 304.459 69.7405C304.447 66.6944 304.447 63.6468 304.459 60.598C304.436 60.1944 304.461 59.7895 304.533 59.3917C304.615 59.0498 304.937 58.9528 305.291 58.9582C305.645 58.9636 305.954 59.0929 306.011 59.4321C306.073 59.9096 306.096 60.3914 306.08 60.8726C306.086 63.3592 306.08 65.8458 306.089 68.3337C306.089 68.7254 306.156 69.1185 306.187 69.4484C306.563 69.6956 307.015 69.8006 307.462 69.7446C307.687 69.7319 307.913 69.7455 308.135 69.785C308.569 69.8778 308.873 70.0811 308.855 70.5631C308.839 70.9791 308.504 71.0558 308.182 71.0653C307.62 71.0832 307.059 71.0922 306.497 71.0922C306.26 71.0922 306.021 71.0908 305.781 71.0881V71.0935ZM295.011 71.0935C293.903 71.0522 292.791 71.011 291.676 70.9697C291.341 69.9159 291.257 68.7982 291.432 67.7063C291.374 65.3921 291.406 63.0738 291.416 60.7595C291.325 60.1825 291.419 59.5914 291.685 59.0713C292.852 58.9046 294.035 58.886 295.207 59.0161C295.286 59.0224 295.364 59.0444 295.436 59.0809C295.507 59.1173 295.57 59.1676 295.622 59.2286C295.674 59.2897 295.713 59.3604 295.737 59.4367C295.762 59.513 295.771 59.5933 295.764 59.6731C295.757 59.8341 295.694 59.9877 295.587 60.1081C295.48 60.2285 295.335 60.3083 295.176 60.3341C294.94 60.3805 294.699 60.3914 294.461 60.3664C294.266 60.3204 294.063 60.3228 293.869 60.3735C293.676 60.4242 293.497 60.5216 293.35 60.6572C292.864 61.2361 293.216 62.0318 293.136 62.7278C293.131 62.8076 293.131 62.8876 293.136 62.9674C293.162 64.1575 293.162 64.1602 294.279 64.2841C294.515 64.3097 294.754 64.2962 294.994 64.3177C295.154 64.3271 295.305 64.3961 295.417 64.5113C295.529 64.6264 295.594 64.7792 295.598 64.9397C295.625 65.098 295.589 65.2603 295.499 65.393C295.409 65.5257 295.271 65.6184 295.114 65.6519C294.719 65.7038 294.321 65.7317 293.922 65.7354C293.823 65.7292 293.724 65.7437 293.631 65.7778C293.537 65.8119 293.452 65.865 293.38 65.9336C293.308 66.0023 293.252 66.085 293.213 66.1767C293.175 66.2684 293.156 66.367 293.158 66.4664C293.134 67.184 293.124 67.9029 293.144 68.6204C293.169 69.5534 293.22 69.587 294.271 69.7446C294.665 69.7777 295.055 69.848 295.435 69.9546C295.532 70.0119 295.616 70.0888 295.681 70.1804C295.747 70.2719 295.792 70.3762 295.815 70.4864C295.899 70.8902 295.581 71.0114 295.254 71.0747C295.193 71.0858 295.132 71.0912 295.071 71.0908L295.011 71.0935ZM6.32033 70.3329C6.29475 69.2936 6.30418 68.2515 6.30014 67.2122C6.30014 66.6522 6.30014 66.0921 6.30014 65.5321C6.30014 64.3312 6.30014 63.1317 6.30014 61.9308C6.30014 61.4556 6.43475 60.8834 6.04571 60.567C5.77648 60.3489 5.29186 60.4014 4.90552 60.3274C4.82977 60.3136 4.7583 60.2822 4.69686 60.2358C4.57307 60.1378 4.48106 60.0054 4.43243 59.8552C4.3838 59.7049 4.38072 59.5437 4.42359 59.3917C4.4416 59.2715 4.50619 59.1631 4.60341 59.09C4.70063 59.017 4.82269 58.9851 4.94321 59.0013C6.37911 58.9753 7.81771 58.9708 9.259 58.9878C9.37934 58.9843 9.49647 59.027 9.58634 59.1071C9.67621 59.1872 9.73201 59.2987 9.74227 59.4187C9.77156 59.574 9.76004 59.7344 9.70883 59.884C9.65763 60.0336 9.56851 60.1673 9.45016 60.2722C9.399 60.3193 9.30746 60.318 9.23612 60.3449C7.91284 60.8363 7.88996 60.8376 7.88996 62.0264C7.87919 64.7472 7.88996 67.4694 7.88996 70.1888C7.88996 70.6089 7.81457 70.9764 7.29226 71.0558C7.21882 71.0679 7.14456 71.0742 7.07014 71.0747C6.96987 71.0848 6.86861 71.0726 6.77359 71.0391C6.67857 71.0055 6.59214 70.9513 6.52049 70.8804C6.44885 70.8096 6.39375 70.7237 6.35915 70.6291C6.32455 70.5344 6.31129 70.4333 6.32033 70.3329ZM143.984 70.4056C143.988 70.4306 143.988 70.456 143.984 70.481C143.981 70.4559 143.981 70.4306 143.984 70.4056ZM143.984 70.3975C143.984 70.384 143.984 70.3719 143.984 70.3585C143.984 70.3773 143.984 70.3935 143.984 70.4069V70.3975ZM219.739 67.538C219.635 67.4978 219.541 67.4358 219.462 67.3562C219.384 67.2766 219.323 67.1811 219.284 67.0763C219.267 67.0202 219.262 66.9611 219.268 66.9028C219.275 66.8445 219.294 66.7883 219.323 66.7376C219.353 66.6869 219.393 66.643 219.44 66.6086C219.488 66.5742 219.542 66.5501 219.599 66.5377C220.425 66.2543 221.323 66.2662 222.141 66.5714C222.265 66.6239 222.424 66.8285 222.402 66.9255C222.354 67.1288 222.237 67.4195 222.08 67.4734C221.728 67.567 221.367 67.6252 221.003 67.6471C220.58 67.6451 220.157 67.6086 219.739 67.538ZM85.7506 67.5932C85.5938 67.6013 85.4394 67.5525 85.3157 67.4558C85.1921 67.3591 85.1075 67.2209 85.0775 67.0668C85.0676 66.9897 85.0736 66.9115 85.0952 66.8368C85.1167 66.7621 85.1534 66.6927 85.2028 66.6327C85.2523 66.5728 85.3135 66.5236 85.3827 66.4883C85.4519 66.453 85.5277 66.4322 85.6052 66.4273C86.3611 66.2105 87.1684 66.258 87.8937 66.562C87.956 66.6037 88.0091 66.6577 88.0499 66.7207C88.0906 66.7836 88.1181 66.8542 88.1306 66.9282C88.1562 67.1543 88.1104 67.4236 87.8385 67.4788C87.5578 67.5352 87.2742 67.5761 86.9891 67.6013C86.5219 67.6013 86.2527 67.6013 86.0602 67.6013C85.931 67.604 85.8408 67.604 85.7493 67.5932H85.7506Z" fill="#181617"/>
<path d="M275.431 46.7344C275.214 46.6392 274.98 46.5893 274.742 46.5876C273.656 46.5485 272.6 46.2201 271.682 45.6362C270.765 45.0523 270.021 44.2342 269.526 43.2663C268.535 41.6171 267.715 39.8715 267.077 38.0563C264.573 31.6399 262.142 25.1954 259.665 18.7683C257.506 13.1624 255.332 7.56191 253.145 1.9668C252.948 1.44354 252.714 0.934684 252.446 0.444107C252.389 0.338549 252.305 0.250725 252.201 0.190284C252.098 0.129844 251.98 0.0991965 251.86 0.101705C251.74 0.104214 251.624 0.139782 251.523 0.2045C251.422 0.269217 251.341 0.360514 251.289 0.468347C251.045 0.971764 250.829 1.48814 250.642 2.0152C249.405 5.40107 248.185 8.79375 246.947 12.1796C244.417 19.1013 241.881 26.0206 239.341 32.9377C238.179 36.0961 236.985 39.2424 235.813 42.3953C235.328 43.767 234.431 44.9553 233.244 45.7973C232.992 45.9942 232.69 46.1182 232.372 46.1554C232.054 46.1927 231.732 46.1419 231.44 46.0087C229.492 45.2589 227.693 44.1669 226.128 42.7844C224.109 40.9508 222.07 39.1347 220.155 37.1987C215.477 32.4693 210.867 27.6778 206.231 22.904C204.586 21.2117 204.595 21.2023 206.216 19.5302C206.384 19.3579 206.556 19.191 206.726 19.0213C209.346 16.4325 211.956 13.8328 214.589 11.2573C216.822 9.06965 219.054 6.87797 221.341 4.74817C223.143 2.88403 225.535 1.703 228.11 1.40673C228.39 1.38384 228.772 1.32324 228.729 0.846658C228.134 0.638202 227.497 0.580385 226.874 0.678374C226.232 0.660872 225.59 0.699947 224.949 0.712063C224.308 0.72418 223.665 0.740267 223.022 0.742959C222.378 0.745652 221.737 0.736246 221.094 0.728169C220.45 0.720091 219.808 0.671669 219.169 0.705326C218.589 0.734944 217.934 0.475083 217.41 0.927431C217.503 1.18592 217.509 1.38654 217.611 1.46597C217.815 1.59998 217.985 1.77767 218.111 1.98611C218.237 2.19455 218.315 2.42847 218.34 2.67083C218.364 2.91319 218.333 3.15784 218.251 3.38702C218.168 3.61621 218.036 3.82411 217.863 3.99557C217.373 4.72859 216.825 5.42188 216.226 6.06889C211.501 10.981 206.764 15.8809 202.014 20.7688C201.734 21.0569 201.459 21.3504 201.16 21.6156C200.994 21.7637 200.83 21.9374 200.539 21.8701C200.225 21.7987 200.217 21.5524 200.156 21.341C200.122 21.1836 200.111 21.0222 200.123 20.8617C200.133 16.2063 200.133 11.5508 200.166 6.89543C200.194 6.0135 200.267 5.13361 200.387 4.25942C200.589 2.40561 201.039 1.91556 202.829 1.53187C203.214 1.4484 203.598 1.34475 203.979 1.23705C204.029 1.22358 204.07 1.13072 204.084 1.06745C204.124 0.865508 204.046 0.74969 203.876 0.725457C203.798 0.704683 203.719 0.689887 203.639 0.681085C199.385 0.6757 195.131 0.67345 190.875 0.674347C190.717 0.685488 190.562 0.726558 190.419 0.795466C190.384 0.810275 190.378 0.930164 190.386 1.00286C190.394 1.07556 190.42 1.18999 190.456 1.19941C190.995 1.31923 191.533 1.44443 192.084 1.52924C194.076 1.83485 194.75 2.41504 195.059 4.37117C195.225 5.48207 195.303 6.60433 195.293 7.72749C195.293 17.8407 195.304 27.9539 195.251 38.0684C195.221 39.9937 195.072 41.9153 194.806 43.8224C194.536 45.8552 194.17 46.1461 192.113 46.5486C192.033 46.5548 191.954 46.5665 191.875 46.5836C191.59 46.6778 191.179 46.6873 191.294 47.1517C191.364 47.421 191.644 47.3954 191.874 47.3941C196.047 47.3941 200.22 47.394 204.393 47.3698C204.708 47.3698 205.299 47.6 205.227 46.9417C205.193 46.6173 204.738 46.6078 204.419 46.5755C204.015 46.5337 203.611 46.5163 203.219 46.4624C202.57 46.4532 201.946 46.2126 201.459 45.7838C200.972 45.3551 200.654 44.7664 200.562 44.1239C200.455 43.5735 200.392 43.0152 200.375 42.4546C200.009 36.7625 200.121 31.0624 200.096 25.3649C200.078 25.0444 200.086 24.7228 200.122 24.4037C200.132 24.2934 200.163 24.1863 200.215 24.0884C200.266 23.9906 200.338 23.9042 200.423 23.8343C200.532 23.8094 200.644 23.8072 200.754 23.8278C200.863 23.8484 200.967 23.8914 201.059 23.9541C201.244 24.1059 201.407 24.2837 201.542 24.4819C206.658 30.3368 211.965 36.0073 217.413 41.5526C218.768 42.919 220.242 44.162 221.817 45.2669C223.784 46.6829 226.156 47.4248 228.58 47.3819C232.831 47.3536 237.087 47.3819 241.343 47.39C241.581 47.39 241.818 47.3429 242.057 47.3308C242.297 47.3187 242.372 47.2056 242.27 47.0077C242.204 46.8825 242.083 46.7249 241.964 46.7007C241.573 46.6186 241.157 46.6294 240.777 46.5351C240.516 46.5053 240.264 46.4211 240.037 46.2879C239.81 46.1547 239.613 45.9755 239.46 45.7618C239.307 45.5482 239.2 45.3048 239.146 45.0473C239.093 44.7898 239.093 44.5238 239.149 44.2667C239.17 43.9476 239.273 43.6353 239.299 43.3162C239.553 41.7316 240 40.184 240.629 38.7079C241.571 35.8161 242.635 32.9647 243.601 30.081C243.67 29.771 243.852 29.498 244.112 29.3156C244.372 29.1332 244.691 29.0546 245.005 29.0955C248.943 29.1183 252.875 29.1413 256.81 29.0821C257.239 29.0139 257.679 29.111 258.039 29.3538C258.4 29.5966 258.655 29.9671 258.754 30.3906C260.363 34.8333 262.051 39.2545 263.69 43.6891C263.986 44.1883 264.154 44.7534 264.177 45.3334C264.201 45.9134 264.08 46.4902 263.825 47.0117C263.935 47.1276 264.071 47.2158 264.221 47.2689C264.372 47.322 264.533 47.3386 264.692 47.3173C268.144 47.3478 271.597 47.3716 275.049 47.3886C275.129 47.4009 275.211 47.3945 275.287 47.3698C275.405 47.3038 275.582 47.2163 275.596 47.118C275.602 47.0455 275.591 46.9725 275.562 46.9055C275.533 46.8386 275.488 46.7798 275.431 46.7344ZM254.515 27.0384C252.034 27.0384 249.553 27.0384 247.071 27.0384C246.667 27.0384 246.263 27.0505 245.871 27.0249C245.112 26.9765 244.84 26.652 245.045 25.9573C245.471 24.5006 245.916 23.0494 246.391 21.6076C247.566 18.044 248.771 14.4898 249.946 10.9262C250.075 10.2825 250.374 9.68513 250.813 9.19628C251.066 9.37487 251.28 9.60317 251.442 9.86728C251.604 10.1314 251.711 10.4257 251.755 10.7324C253.346 15.254 254.93 19.7775 256.51 24.3027C257.456 27.0168 257.439 27.0317 254.515 27.0384Z" fill="#580A09"/>
<path d="M178.155 0.661154C174.386 0.654872 170.614 0.654872 166.839 0.661154C166.6 0.649101 166.36 0.66125 166.123 0.697473C166.011 0.72036 165.854 0.876544 165.854 0.966744C165.854 1.08791 165.988 1.29656 166.081 1.31137C166.952 1.44599 167.831 1.5389 168.699 1.64391C169.184 1.68172 169.646 1.86813 170.021 2.17768C170.397 2.48724 170.667 2.90494 170.797 3.37391C170.987 3.89568 171.116 4.43787 171.18 4.98946C171.303 6.42862 171.399 7.87045 171.431 9.31365C171.586 16.0504 171.726 22.788 171.851 29.5266C171.902 32.334 171.944 35.1419 171.976 37.9502C171.976 38.1575 172.068 38.4887 171.718 38.5103C171.491 38.5206 171.266 38.4568 171.078 38.3285C170.838 38.1194 170.619 37.8881 170.423 37.6379C166.788 33.6798 163.168 29.7097 159.519 25.7637C152.121 17.7606 144.717 9.76507 137.307 1.77719C136.871 1.30734 136.419 0.852289 135.976 0.389172C135.74 0.145496 135.394 -0.0617588 135.134 0.0917163C135.011 0.189524 134.909 0.311718 134.835 0.450717C134.761 0.589716 134.717 0.74249 134.705 0.899447C134.608 2.01685 134.542 3.13964 134.541 4.26513C134.52 14.2976 134.509 24.3287 134.507 34.3584C134.507 36.6861 134.484 39.0125 134.495 41.3388C134.488 42.5433 134.307 43.7404 133.956 44.8929C133.867 45.2882 133.656 45.6458 133.354 45.9162C133.052 46.1866 132.674 46.3564 132.271 46.4021C131.718 46.4829 131.15 46.495 130.599 46.6C130.33 46.6525 129.891 46.6539 129.973 47.1385C130.027 47.4374 130.326 47.3795 130.533 47.3795C134.706 47.3894 138.879 47.3921 143.052 47.3876C143.335 47.3876 143.76 47.4334 143.642 46.946C143.603 46.7993 143.285 46.6592 143.081 46.631C142.445 46.5394 141.799 46.5247 141.165 46.4439C140.559 46.4024 139.982 46.1632 139.525 45.7629C139.067 45.3627 138.754 44.8235 138.632 44.2279C138.452 43.5306 138.336 42.8188 138.283 42.1008C138.17 40.5822 138.103 39.0582 138.052 37.5369C137.898 32.8855 137.748 28.2341 137.626 23.5841C137.511 19.2531 137.432 14.9209 137.346 10.5886C137.346 10.3719 137.313 10.116 137.587 9.97734C137.693 9.92468 137.815 9.91272 137.929 9.94373C138.044 9.97474 138.143 10.0466 138.208 10.1456C139.015 11.0342 139.808 11.9376 140.617 12.8288C145.088 17.7548 149.514 22.7211 154.045 27.5879C158.03 31.8677 162.122 36.0547 166.2 40.2429C168.379 42.4777 170.642 44.6277 172.862 46.8248C173.266 47.2287 173.64 47.642 174.278 47.5734C174.512 47.2423 174.624 46.8401 174.594 46.4357C174.655 44.2709 174.746 42.1062 174.758 39.9414C174.828 28.7072 174.887 17.473 174.936 6.23877C174.923 5.35796 174.988 4.47775 175.129 3.60818C175.194 3.0836 175.434 2.59643 175.811 2.22625C176.189 1.85606 176.68 1.62465 177.206 1.56987C177.754 1.48371 178.292 1.33161 178.832 1.19698C178.867 1.18756 178.893 1.07449 178.899 1.00717C178.906 0.939858 178.899 0.793113 178.871 0.786381C178.638 0.718021 178.398 0.676001 178.155 0.661154Z" fill="#580A09"/>
<path d="M325.973 46.9685C325.95 46.9066 325.899 46.8177 325.849 46.8083C325.389 46.6812 324.917 46.6006 324.441 46.5674C322.586 46.492 320.789 45.8973 319.254 44.8509C317.835 43.9479 316.558 42.839 315.465 41.5605C311.389 37.029 307.765 32.1367 303.961 27.3803C303.811 27.1932 303.691 26.9764 303.557 26.7852C303.398 26.6009 303.313 26.3646 303.318 26.1214C303.322 25.8782 303.417 25.6453 303.582 25.4672C303.891 25.0997 304.223 24.7524 304.564 24.4172C306.041 22.9441 307.316 21.2802 308.353 19.4696C309.609 17.408 310.332 15.0667 310.459 12.6561C310.639 10.6041 310.199 8.54521 309.197 6.74537C308.195 4.94553 306.677 3.48734 304.838 2.55906C302.636 1.38286 300.182 0.755733 297.685 0.730857C294.96 0.63931 292.23 0.710643 289.503 0.710643V0.68098C287.175 0.68098 284.848 0.670209 282.522 0.68098C281.756 0.529411 280.963 0.595681 280.233 0.872189C280.645 1.88728 281.6 1.42955 282.286 1.54533C282.892 1.59773 283.463 1.85157 283.908 2.26637C284.353 2.68117 284.647 3.23306 284.742 3.83401C284.935 4.77618 285.032 5.7356 285.031 6.69746C285.037 17.6893 285.031 28.6803 285.012 39.6704C285.006 41.1965 284.838 42.7177 284.513 44.2087C284.126 46.0181 283.856 46.2456 282.008 46.5364C281.704 46.5963 281.406 46.681 281.116 46.7895C281.068 46.8057 281.035 46.9134 281.022 46.9847C281.008 47.0561 280.994 47.1974 281.022 47.2149C281.156 47.2971 281.306 47.3478 281.462 47.363C285.958 47.3747 290.451 47.3806 294.944 47.3806C295.021 47.3806 295.099 47.3577 295.18 47.3496C295.394 47.3307 295.496 47.2244 295.423 47.048C295.369 46.9134 295.279 46.7087 295.18 46.6925C294.548 46.5929 293.91 46.5391 293.273 46.4677C291.398 46.2591 290.677 45.6883 290.312 43.9099C290.125 42.9654 290.03 42.0051 290.028 41.0423C289.98 37.1112 289.977 33.18 289.961 29.2489C289.961 28.9285 289.975 28.6081 289.995 28.2877C289.99 28.1885 290.006 28.0891 290.042 27.9967C290.079 27.9042 290.135 27.8207 290.207 27.7519C290.279 27.6831 290.364 27.6307 290.458 27.5981C290.552 27.5656 290.652 27.5537 290.751 27.5634C293.079 27.5679 295.405 27.5769 297.731 27.5903C298.051 27.5939 298.364 27.6793 298.642 27.8384C298.919 27.9975 299.152 28.2249 299.316 28.499C301.048 30.9035 302.816 33.2823 304.58 35.6598C306.586 38.3605 308.6 41.0584 310.826 43.5854C311.895 44.8423 313.237 45.8379 314.75 46.496C316.263 47.154 317.906 47.4571 319.554 47.3819C321.318 47.3469 323.084 47.3899 324.852 47.3819C325.169 47.3819 325.486 47.3374 325.806 47.3051C325.982 47.2957 326.042 47.1705 325.973 46.9685ZM297.347 25.7365C295.341 25.8459 293.33 25.6183 291.398 25.0634C290.052 24.6285 289.993 24.5868 289.975 23.2432C289.948 21.0784 289.965 18.9135 289.962 16.7487V13.6227H289.979C289.979 10.4159 289.979 7.20776 289.979 4.00229C289.961 3.86267 289.972 3.72082 290.01 3.58528C290.048 3.44973 290.113 3.32322 290.201 3.21329C290.288 3.10337 290.398 3.01226 290.522 2.94542C290.646 2.87858 290.781 2.83743 290.922 2.8243C293.678 2.21697 296.551 2.417 299.196 3.40048C300.602 4.01046 301.843 4.94587 302.816 6.12959C303.789 7.31331 304.466 8.71143 304.793 10.2086C305.495 13.1029 305.54 16.1177 304.927 19.0321C304.764 19.8991 304.481 20.7392 304.086 21.5281C303.504 22.8178 302.553 23.906 301.353 24.6551C300.153 25.4043 298.758 25.7806 297.344 25.7365H297.347Z" fill="#580A09"/>
<path d="M46.1746 46.8196C45.8894 46.6981 45.5887 46.6175 45.281 46.5799C44.3153 46.5472 43.3733 46.2709 42.543 45.7767C41.7127 45.2824 41.0208 44.5862 40.5316 43.7528C39.7268 42.5568 39.0617 41.2726 38.5489 39.9253C36.8918 35.6711 35.2223 31.421 33.5787 27.1627C30.5166 19.2457 27.4595 11.3269 24.4073 3.40637C24.0034 2.36435 23.5269 1.34925 23.045 0.339541C22.8821 -0.00779761 22.2506 0.0245201 22.042 0.363781C21.8683 0.629638 21.7222 0.912483 21.6058 1.20791C20.7667 3.45798 19.9356 5.71161 19.1127 7.96886C17.6925 11.8852 16.286 15.8082 14.8685 19.7218C13.114 24.5361 11.351 29.3468 9.57945 34.1539C8.5281 37.008 7.50343 39.8782 6.3363 42.6866C5.39399 44.9631 3.85558 46.6149 1.10941 46.5772C0.872613 46.529 0.626159 46.5725 0.420225 46.699C0.214291 46.8255 0.0639618 47.0255 -0.00012207 47.2585C0.262453 47.317 0.52877 47.3574 0.796861 47.3796C4.56611 47.3859 8.33807 47.3859 12.1127 47.3796C12.2733 47.3917 12.4351 47.3831 12.5935 47.3541C12.7281 47.3191 12.9097 47.2396 12.9393 47.14C13.0402 46.8196 12.7669 46.7361 12.5354 46.6863C12.1423 46.6055 11.7279 46.6055 11.3469 46.5019C11.1066 46.4696 10.8751 46.3894 10.6663 46.2661C10.4575 46.1427 10.2755 45.9786 10.1313 45.7836C9.98702 45.5887 9.88349 45.3667 9.8266 45.131C9.76971 44.8952 9.76052 44.6505 9.79998 44.4112C9.83708 43.6892 9.95996 42.9742 10.1661 42.2813C11.484 38.2492 12.8587 34.236 14.178 30.2053C14.2486 29.855 14.4488 29.5444 14.739 29.3358C15.0291 29.1273 15.3875 29.0363 15.742 29.0811C19.7549 29.1188 23.765 29.1107 27.7779 29.0932C28.0925 29.0456 28.4137 29.1128 28.6827 29.2827C28.9517 29.4525 29.1505 29.7136 29.2427 30.0181C31.0722 34.8876 32.9351 39.745 34.774 44.6117C34.9852 45.136 34.9804 45.7226 34.7605 46.2434C34.4226 47.0929 34.5586 47.2935 35.4457 47.3056C38.8946 47.3527 42.3464 47.3635 45.7993 47.3783C45.9578 47.3655 46.1118 47.3196 46.2515 47.2436C46.2838 47.2288 46.2728 47.0929 46.2607 47.0175C46.2486 46.9421 46.2231 46.8344 46.1746 46.8196ZM26.9031 27.0294C23.3743 27.0375 19.8456 27.0307 16.3168 27.0092C15.7057 27.0092 15.4634 26.6241 15.6438 26.0493C16.4703 23.4582 17.3046 20.8697 18.1464 18.284C18.9353 15.849 19.7316 13.4164 20.5357 10.9859C20.6562 10.2726 21.0086 9.61903 21.5385 9.12663C22.2523 10.0257 22.7454 11.0799 22.9776 12.2042C24.6146 16.7169 26.133 21.2713 27.7309 25.8015C28.0109 26.5837 27.7726 27.024 26.9083 27.0254L26.9031 27.0294Z" fill="#580A09"/>
<path d="M126.71 46.6982C126.566 46.627 126.407 46.5901 126.246 46.5904C123.601 46.5622 122.012 45.0274 120.761 42.8922C120.018 41.5644 119.374 40.1833 118.834 38.7605C117.048 34.3003 115.326 29.8131 113.584 25.3328C111.932 21.0776 110.285 16.8199 108.643 12.5593C107.324 9.12097 106.049 5.66378 104.701 2.23617C104.526 1.36678 104.067 0.580156 103.396 0C102.376 0.453694 102.268 1.4943 101.943 2.35861C100.291 6.78695 98.6651 11.2248 97.065 15.6719C94.23 23.5073 91.4178 31.3533 88.5693 39.1846C88.071 40.5401 87.5019 41.8685 86.8639 43.1642C86.5026 44.1512 85.8503 45.0055 84.9936 45.6143C84.1368 46.2231 83.1158 46.5578 82.0649 46.5743C81.6705 46.6145 81.2825 46.705 80.911 46.8435C80.8693 46.8556 80.8413 46.962 80.8318 47.0293C80.8224 47.0966 80.817 47.2542 80.8318 47.2596C81.0597 47.3269 81.2946 47.3681 81.5319 47.3821C85.3011 47.3893 89.0743 47.3893 92.8516 47.3821C93.091 47.374 93.3293 47.3455 93.5638 47.2972C93.6123 47.2891 93.6525 47.2003 93.6848 47.1424C93.7857 46.9512 93.7334 46.8166 93.5247 46.7695C93.2165 46.6995 92.9026 46.6456 92.593 46.5783C90.9413 46.2229 90.3815 45.4905 90.648 43.8857C90.8062 42.8549 91.0415 41.8374 91.352 40.8418C92.5339 37.2661 93.7886 33.7147 94.9692 30.1376C95.0554 29.7897 95.2696 29.4871 95.5689 29.29C95.8683 29.0929 96.2308 29.0159 96.5845 29.0741C98.593 29.1051 100.602 29.0849 102.609 29.0849C104.372 29.0849 106.141 29.0701 107.907 29.0849C109.792 29.1051 109.625 28.8573 110.43 30.9238C111.186 32.8652 111.93 34.811 112.66 36.7613C113.531 39.0876 114.385 41.4194 115.244 43.7498C115.578 44.6518 116 45.5457 115.378 46.4989C115.132 46.8813 115.378 47.0953 115.7 47.1895C116.007 47.2735 116.324 47.3155 116.642 47.3147C119.854 47.3416 123.066 47.3619 126.278 47.3753C126.436 47.3753 126.593 47.3323 126.755 47.3228C126.949 47.3107 127.051 47.2003 126.973 47.0011C126.919 46.8752 126.827 46.7693 126.71 46.6982ZM107.685 27.0035C105.922 27.0318 104.154 27.0116 102.392 27.0116V26.9955C100.626 26.9955 98.861 27.0062 97.0962 26.9873C96.9962 26.9911 96.8967 26.9711 96.806 26.9289C96.7153 26.8867 96.6358 26.8236 96.5743 26.7448C96.5128 26.6659 96.4709 26.5735 96.452 26.4752C96.4332 26.377 96.4382 26.2756 96.4662 26.1796C96.6721 25.4068 96.8875 24.6341 97.1392 23.8734C98.6263 19.3095 100.12 14.747 101.622 10.1859C101.679 9.95501 101.756 9.72972 101.853 9.51273C101.895 9.44682 101.95 9.39 102.014 9.3456C102.078 9.3012 102.151 9.2701 102.227 9.25423C102.299 9.24373 102.371 9.25052 102.439 9.27395C102.507 9.29738 102.568 9.33681 102.618 9.3889C102.873 9.88649 103.098 10.3989 103.291 10.9236C104.971 15.6804 106.644 20.4373 108.311 25.1941C108.384 25.4232 108.444 25.656 108.491 25.8915C108.651 26.6427 108.431 26.9914 107.685 27.0035Z" fill="#580A09"/>
<path d="M78.4663 41.2391C78.4612 41.3165 78.4658 41.3943 78.4798 41.4707C78.3831 41.5974 78.298 41.7326 78.2254 41.8745C77.8297 42.8926 77.1214 43.759 76.2022 44.3491C75.283 44.9391 74.2003 45.2224 73.1099 45.1581C70.6276 45.1931 68.1294 45.2497 65.6525 45.0948C61.8576 44.8592 61.4026 43.2438 61.2101 40.6024C61.0566 38.4483 60.8438 36.2808 60.8344 34.1201C60.7976 25.2149 60.8034 16.3097 60.8518 7.40455C60.8969 6.04322 61.0389 4.68686 61.2761 3.34561C61.3307 2.90194 61.5341 2.48992 61.8532 2.1769C62.1723 1.86389 62.5882 1.66835 63.0328 1.62234C63.8316 1.60231 64.6222 1.45553 65.3751 1.18749C65.4208 1.16057 65.4449 1.0596 65.4516 0.990944C65.4584 0.922284 65.4369 0.802502 65.4073 0.793079C65.1798 0.719816 64.9443 0.674556 64.7059 0.658402C60.4548 0.650324 56.2017 0.650324 51.947 0.658402C51.7067 0.651889 51.4663 0.66948 51.2295 0.710909C51.1004 0.744677 50.9892 0.826543 50.9186 0.939752C50.8136 1.12015 50.9051 1.25211 51.1191 1.28577C51.6663 1.40029 52.2195 1.48344 52.7762 1.53483C53.506 1.56903 54.1969 1.87485 54.7129 2.39219C55.229 2.90952 55.533 3.60105 55.5654 4.33107C55.6287 5.37039 55.7096 6.41237 55.7137 7.45303C55.7298 16.8401 55.7335 26.2268 55.7245 35.613C55.7245 38.0174 55.5709 40.4219 55.4767 42.825C55.4394 43.7099 55.2207 44.5778 54.8345 45.3749C54.7177 45.6745 54.5191 45.9352 54.261 46.1271C54.0029 46.319 53.6959 46.4344 53.3753 46.4599C52.8158 46.4163 52.2566 46.546 51.7734 46.8315C51.727 46.8891 51.7018 46.9608 51.7021 47.0348C51.6941 47.1061 51.7155 47.2435 51.7357 47.2462C52.127 47.3128 52.5225 47.3546 52.9191 47.3714C58.7776 47.4135 64.6356 47.4499 70.4932 47.4804C72.3388 47.4912 74.1844 47.5343 76.0287 47.4926C76.8 47.4764 77.6656 47.611 78.2566 46.8679C78.5258 46.8679 78.5796 46.7333 78.4988 46.5031C78.5904 46.1854 78.6791 45.8676 78.768 45.5499C78.8204 45.5326 78.8678 45.5027 78.906 45.4629C78.9443 45.4231 78.9723 45.3745 78.9875 45.3215C79.0028 45.2684 79.0047 45.2125 78.9935 45.1584C78.9822 45.1044 78.958 45.0539 78.9228 45.0114C78.9623 44.6685 79.0016 44.3248 79.0411 43.9801C79.0729 43.9623 79.1003 43.9373 79.1206 43.9071C79.141 43.8769 79.1539 43.8424 79.1584 43.8063C79.163 43.7701 79.1591 43.7334 79.1469 43.699C79.1348 43.6647 79.1148 43.6337 79.0884 43.6086C79.2114 42.9363 79.3334 42.2632 79.4545 41.5891C79.7305 40.8029 80.0966 39.9925 79.4302 39.2426C79.095 38.8697 78.7019 39.6155 78.4663 41.2391Z" fill="#580A09"/>
</g>
<defs>
<clipPath id="clip0_1907_8865">
<rect width="326" height="72" fill="white"/>
</clipPath>
</defs>
</svg>
