<svg width="115" height="28" viewBox="0 0 115 28" fill="none" xmlns="http://www.w3.org/2000/svg">
<g filter="url(#filter0_d_3717_2295)">
<path d="M4.87069 4.008C5.27069 4.024 5.80669 4.04 6.47869 4.056C7.16669 4.072 7.84669 4.08 8.51869 4.08C9.28669 4.08 10.0307 4.072 10.7507 4.056C11.4707 4.04 11.9827 4.032 12.2867 4.032C14.2707 4.032 15.7507 4.384 16.7267 5.088C17.7187 5.792 18.2147 6.696 18.2147 7.8C18.2147 8.36 18.0467 8.928 17.7107 9.504C17.3747 10.08 16.8547 10.592 16.1507 11.04C15.4467 11.488 14.5347 11.816 13.4147 12.024V12.072C14.9187 12.184 16.1107 12.456 16.9907 12.888C17.8707 13.32 18.5027 13.84 18.8867 14.448C19.2707 15.056 19.4627 15.688 19.4627 16.344C19.4627 17.848 18.8707 19 17.6867 19.8C16.5187 20.6 14.9027 21 12.8387 21C12.4547 21 11.8947 20.992 11.1587 20.976C10.4387 20.944 9.57469 20.928 8.56669 20.928C7.86269 20.928 7.16669 20.936 6.47869 20.952C5.80669 20.952 5.27069 20.968 4.87069 21V20.52C5.38269 20.488 5.76669 20.424 6.02269 20.328C6.27869 20.232 6.44669 20.04 6.52669 19.752C6.62269 19.464 6.67069 19.032 6.67069 18.456V6.552C6.67069 5.96 6.62269 5.528 6.52669 5.256C6.44669 4.968 6.27069 4.776 5.99869 4.68C5.74269 4.568 5.36669 4.504 4.87069 4.488V4.008ZM11.9747 4.488C11.3507 4.488 10.9427 4.624 10.7507 4.896C10.5747 5.168 10.4867 5.72 10.4867 6.552V18.456C10.4867 19.288 10.5907 19.832 10.7987 20.088C11.0067 20.328 11.4547 20.448 12.1427 20.448C13.2947 20.448 14.1347 20.088 14.6627 19.368C15.2067 18.632 15.4787 17.592 15.4787 16.248C15.4787 15.016 15.1667 14.064 14.5427 13.392C13.9347 12.72 12.9187 12.384 11.4947 12.384H9.45469C9.45469 12.384 9.45469 12.32 9.45469 12.192C9.45469 12.048 9.45469 11.976 9.45469 11.976H11.5187C12.2707 11.976 12.8467 11.8 13.2467 11.448C13.6467 11.08 13.9267 10.6 14.0867 10.008C14.2467 9.4 14.3267 8.752 14.3267 8.064C14.3267 6.88 14.1427 5.992 13.7747 5.4C13.4067 4.792 12.8067 4.488 11.9747 4.488ZM28.9648 8.256C29.4768 8.256 29.8928 8.368 30.2128 8.592C30.5328 8.8 30.7648 9.072 30.9088 9.408C31.0688 9.744 31.1488 10.096 31.1488 10.464C31.1488 11.056 30.9728 11.544 30.6208 11.928C30.2848 12.296 29.8368 12.48 29.2768 12.48C28.7168 12.48 28.2768 12.344 27.9568 12.072C27.6528 11.784 27.5008 11.408 27.5008 10.944C27.5008 10.496 27.5968 10.128 27.7888 9.84C27.9968 9.536 28.2528 9.28 28.5568 9.072C28.3328 9.008 28.1088 9.016 27.8848 9.096C27.4688 9.16 27.0928 9.36 26.7568 9.696C26.4368 10.016 26.1808 10.4 25.9888 10.848C25.7968 11.296 25.7008 11.736 25.7008 12.168V18.528C25.7008 19.296 25.8848 19.816 26.2528 20.088C26.6368 20.36 27.2048 20.496 27.9568 20.496V21C27.5888 20.984 27.0528 20.968 26.3488 20.952C25.6448 20.92 24.9088 20.904 24.1408 20.904C23.5008 20.904 22.8528 20.92 22.1968 20.952C21.5408 20.968 21.0448 20.984 20.7088 21V20.496C21.2688 20.496 21.6608 20.376 21.8848 20.136C22.1248 19.896 22.2448 19.44 22.2448 18.768V11.208C22.2448 10.488 22.1328 9.96 21.9088 9.624C21.7008 9.272 21.3008 9.096 20.7088 9.096V8.592C21.2208 8.64 21.7168 8.664 22.1968 8.664C22.8688 8.664 23.4928 8.64 24.0688 8.592C24.6608 8.528 25.2048 8.44 25.7008 8.328V10.56C25.8928 10.128 26.1488 9.736 26.4688 9.384C26.7888 9.032 27.1568 8.76 27.5728 8.568C27.9888 8.36 28.4528 8.256 28.9648 8.256ZM37.7758 8.256C39.1838 8.256 40.2878 8.672 41.0878 9.504C41.8878 10.336 42.2878 11.696 42.2878 13.584H34.3918L34.3438 13.128H39.2638C39.2798 12.344 39.2318 11.624 39.1198 10.968C39.0078 10.296 38.8318 9.76 38.5918 9.36C38.3518 8.96 38.0318 8.76 37.6318 8.76C37.0718 8.76 36.5918 9.112 36.1918 9.816C35.8078 10.52 35.5758 11.688 35.4958 13.32L35.5678 13.464C35.5518 13.656 35.5358 13.856 35.5198 14.064C35.5198 14.272 35.5198 14.488 35.5198 14.712C35.5198 15.816 35.6718 16.712 35.9758 17.4C36.2958 18.088 36.6958 18.592 37.1758 18.912C37.6558 19.216 38.1438 19.368 38.6398 19.368C39.1198 19.368 39.6398 19.248 40.1998 19.008C40.7758 18.768 41.3118 18.248 41.8078 17.448L42.2398 17.592C42.0478 18.2 41.7438 18.792 41.3278 19.368C40.9118 19.944 40.3838 20.416 39.7438 20.784C39.1038 21.152 38.3358 21.336 37.4398 21.336C36.3518 21.336 35.3918 21.104 34.5598 20.64C33.7278 20.176 33.0718 19.472 32.5918 18.528C32.1278 17.584 31.8958 16.384 31.8958 14.928C31.8958 13.44 32.1438 12.2 32.6398 11.208C33.1518 10.216 33.8478 9.48 34.7278 9C35.6238 8.504 36.6398 8.256 37.7758 8.256ZM46.8456 21.168C45.7736 21.168 44.9976 20.888 44.5176 20.328C44.0376 19.768 43.7976 19.088 43.7976 18.288C43.7976 17.6 43.9496 17.04 44.2536 16.608C44.5736 16.176 44.9816 15.824 45.4776 15.552C45.9736 15.264 46.4936 15.032 47.0376 14.856C47.5976 14.664 48.1256 14.48 48.6216 14.304C49.1336 14.112 49.5416 13.896 49.8456 13.656C50.1656 13.416 50.3256 13.112 50.3256 12.744V10.872C50.3256 10.456 50.2536 10.088 50.1096 9.768C49.9816 9.432 49.7736 9.176 49.4856 9C49.2136 8.824 48.8536 8.736 48.4056 8.736C48.0856 8.736 47.7656 8.784 47.4456 8.88C47.1256 8.96 46.8616 9.104 46.6536 9.312C47.1016 9.472 47.4456 9.72 47.6856 10.056C47.9416 10.376 48.0696 10.744 48.0696 11.16C48.0696 11.704 47.8776 12.136 47.4936 12.456C47.1256 12.776 46.6856 12.936 46.1736 12.936C45.5976 12.936 45.1576 12.76 44.8536 12.408C44.5656 12.04 44.4216 11.6 44.4216 11.088C44.4216 10.624 44.5336 10.24 44.7576 9.936C44.9976 9.632 45.3256 9.344 45.7416 9.072C46.1896 8.816 46.7256 8.616 47.3496 8.472C47.9896 8.328 48.6776 8.256 49.4136 8.256C50.1496 8.256 50.8136 8.336 51.4056 8.496C51.9976 8.64 52.4936 8.912 52.8936 9.312C53.2616 9.68 53.5016 10.136 53.6136 10.68C53.7256 11.208 53.7816 11.88 53.7816 12.696V19.224C53.7816 19.608 53.8216 19.88 53.9016 20.04C53.9816 20.2 54.1176 20.28 54.3096 20.28C54.4696 20.28 54.6216 20.24 54.7656 20.16C54.9096 20.08 55.0456 19.984 55.1736 19.872L55.4136 20.28C55.0776 20.568 54.6856 20.792 54.2376 20.952C53.8056 21.096 53.3176 21.168 52.7736 21.168C51.8136 21.168 51.1736 20.976 50.8536 20.592C50.5496 20.192 50.3896 19.736 50.3736 19.224C49.9736 19.88 49.4776 20.368 48.8856 20.688C48.3096 21.008 47.6296 21.168 46.8456 21.168ZM48.6936 19.632C48.9976 19.632 49.2776 19.56 49.5336 19.416C49.8056 19.272 50.0696 19.016 50.3256 18.648V13.728C50.1336 14.048 49.8616 14.32 49.5096 14.544C49.1736 14.752 48.8216 14.984 48.4536 15.24C48.1016 15.48 47.8056 15.792 47.5656 16.176C47.3256 16.56 47.2056 17.072 47.2056 17.712C47.2056 18.4 47.3496 18.896 47.6376 19.2C47.9256 19.488 48.2776 19.632 48.6936 19.632ZM60.9714 2.208V18.768C60.9714 19.44 61.0754 19.896 61.2834 20.136C61.5074 20.376 61.8834 20.496 62.4114 20.496V21C62.1074 20.984 61.6594 20.968 61.0674 20.952C60.4914 20.92 59.8994 20.904 59.2914 20.904C58.6674 20.904 58.0354 20.92 57.3954 20.952C56.7714 20.968 56.2994 20.984 55.9794 21V20.496C56.5394 20.496 56.9314 20.376 57.1554 20.136C57.3954 19.896 57.5154 19.44 57.5154 18.768V5.088C57.5154 4.368 57.4034 3.84 57.1794 3.504C56.9714 3.152 56.5714 2.976 55.9794 2.976V2.472C56.4914 2.52 56.9874 2.544 57.4674 2.544C58.1234 2.544 58.7474 2.52 59.3394 2.472C59.9314 2.408 60.4754 2.32 60.9714 2.208ZM68.7954 8.592V9.072C68.2994 9.168 67.8034 9.376 67.3074 9.696C66.8114 10.016 66.3074 10.424 65.7954 10.92L63.9474 12.84L64.1874 12.384L68.2914 19.248C68.4674 19.536 68.6514 19.792 68.8434 20.016C69.0354 20.24 69.2674 20.4 69.5394 20.496V21C69.2994 20.984 68.9394 20.968 68.4594 20.952C67.9794 20.92 67.4994 20.904 67.0194 20.904C66.4274 20.904 65.8354 20.92 65.2434 20.952C64.6514 20.968 64.2114 20.984 63.9234 21V20.496C64.2434 20.496 64.4594 20.424 64.5714 20.28C64.6834 20.12 64.6674 19.92 64.5234 19.68L62.1474 15.384C61.9554 15.08 61.7634 14.888 61.5714 14.808C61.3954 14.712 61.1554 14.656 60.8514 14.64V14.184C61.1874 14.152 61.4754 14.096 61.7154 14.016C61.9714 13.936 62.2034 13.784 62.4114 13.56L64.2354 11.784C64.7794 11.272 65.0514 10.816 65.0514 10.416C65.0514 10.016 64.8754 9.696 64.5234 9.456C64.1874 9.216 63.7394 9.088 63.1794 9.072V8.592C63.6274 8.608 64.1154 8.624 64.6434 8.64C65.1714 8.656 65.6194 8.664 65.9874 8.664C66.3074 8.664 66.6434 8.664 66.9954 8.664C67.3634 8.648 67.7074 8.64 68.0274 8.64C68.3474 8.624 68.6034 8.608 68.7954 8.592ZM76.4745 2.232C77.0345 2.232 77.5225 2.304 77.9385 2.448C78.3545 2.592 78.7225 2.784 79.0425 3.024C79.2665 3.2 79.4585 3.448 79.6185 3.768C79.7785 4.072 79.8585 4.424 79.8585 4.824C79.8585 5.256 79.6985 5.64 79.3785 5.976C79.0745 6.312 78.6665 6.48 78.1545 6.48C77.6265 6.48 77.1865 6.328 76.8345 6.024C76.4985 5.72 76.3305 5.304 76.3305 4.776C76.3305 4.36 76.4505 3.992 76.6905 3.672C76.9305 3.352 77.2825 3.128 77.7465 3C77.6985 2.904 77.6025 2.824 77.4585 2.76C77.3145 2.696 77.1225 2.664 76.8825 2.664C76.5625 2.664 76.2985 2.72 76.0905 2.832C75.8825 2.944 75.7145 3.096 75.5865 3.288C75.4105 3.528 75.2905 3.88 75.2265 4.344C75.1625 4.792 75.1305 5.488 75.1305 6.432V8.616H77.6985V9.096H75.1305V18.528C75.1305 19.312 75.3305 19.84 75.7305 20.112C76.1305 20.368 76.6825 20.496 77.3865 20.496V21C76.9705 20.984 76.3865 20.968 75.6345 20.952C74.8825 20.92 74.0905 20.904 73.2585 20.904C72.6505 20.904 72.0505 20.92 71.4585 20.952C70.8825 20.968 70.4425 20.984 70.1385 21V20.496C70.6985 20.496 71.0905 20.376 71.3145 20.136C71.5545 19.896 71.6745 19.44 71.6745 18.768V9.096H70.0425V8.616H71.6745C71.6745 7.192 71.7865 6.112 72.0105 5.376C72.2345 4.624 72.6265 3.976 73.1865 3.432C73.5385 3.096 74.0025 2.816 74.5785 2.592C75.1705 2.352 75.8025 2.232 76.4745 2.232ZM81.744 21.168C80.672 21.168 79.896 20.888 79.416 20.328C78.936 19.768 78.696 19.088 78.696 18.288C78.696 17.6 78.848 17.04 79.152 16.608C79.472 16.176 79.88 15.824 80.376 15.552C80.872 15.264 81.392 15.032 81.936 14.856C82.496 14.664 83.024 14.48 83.52 14.304C84.032 14.112 84.44 13.896 84.744 13.656C85.064 13.416 85.224 13.112 85.224 12.744V10.872C85.224 10.456 85.152 10.088 85.008 9.768C84.88 9.432 84.672 9.176 84.384 9C84.112 8.824 83.752 8.736 83.304 8.736C82.984 8.736 82.664 8.784 82.344 8.88C82.024 8.96 81.76 9.104 81.552 9.312C82 9.472 82.344 9.72 82.584 10.056C82.84 10.376 82.968 10.744 82.968 11.16C82.968 11.704 82.776 12.136 82.392 12.456C82.024 12.776 81.584 12.936 81.072 12.936C80.496 12.936 80.056 12.76 79.752 12.408C79.464 12.04 79.32 11.6 79.32 11.088C79.32 10.624 79.432 10.24 79.656 9.936C79.896 9.632 80.224 9.344 80.64 9.072C81.088 8.816 81.624 8.616 82.248 8.472C82.888 8.328 83.576 8.256 84.312 8.256C85.048 8.256 85.712 8.336 86.304 8.496C86.896 8.64 87.392 8.912 87.792 9.312C88.16 9.68 88.4 10.136 88.512 10.68C88.624 11.208 88.68 11.88 88.68 12.696V19.224C88.68 19.608 88.72 19.88 88.8 20.04C88.88 20.2 89.016 20.28 89.208 20.28C89.368 20.28 89.52 20.24 89.664 20.16C89.808 20.08 89.944 19.984 90.072 19.872L90.312 20.28C89.976 20.568 89.584 20.792 89.136 20.952C88.704 21.096 88.216 21.168 87.672 21.168C86.712 21.168 86.072 20.976 85.752 20.592C85.448 20.192 85.288 19.736 85.272 19.224C84.872 19.88 84.376 20.368 83.784 20.688C83.208 21.008 82.528 21.168 81.744 21.168ZM83.592 19.632C83.896 19.632 84.176 19.56 84.432 19.416C84.704 19.272 84.968 19.016 85.224 18.648V13.728C85.032 14.048 84.76 14.32 84.408 14.544C84.072 14.752 83.72 14.984 83.352 15.24C83 15.48 82.704 15.792 82.464 16.176C82.224 16.56 82.104 17.072 82.104 17.712C82.104 18.4 82.248 18.896 82.536 19.2C82.824 19.488 83.176 19.632 83.592 19.632ZM95.7499 8.256C96.4219 8.256 97.0059 8.344 97.5019 8.52C98.0139 8.68 98.3819 8.84 98.6059 9C99.1499 9.368 99.4859 9.128 99.6139 8.28H100.118C100.086 8.728 100.062 9.28 100.046 9.936C100.03 10.576 100.022 11.432 100.022 12.504H99.5179C99.4379 11.912 99.2859 11.328 99.0619 10.752C98.8379 10.176 98.5099 9.704 98.0779 9.336C97.6619 8.968 97.1179 8.784 96.4459 8.784C95.9819 8.784 95.5899 8.92 95.2699 9.192C94.9499 9.448 94.7899 9.824 94.7899 10.32C94.7899 10.8 94.9339 11.224 95.2219 11.592C95.5099 11.944 95.8779 12.288 96.3259 12.624C96.7899 12.944 97.2699 13.288 97.7659 13.656C98.5659 14.248 99.2379 14.848 99.7819 15.456C100.342 16.048 100.622 16.824 100.622 17.784C100.622 18.504 100.414 19.136 99.9979 19.68C99.5819 20.208 99.0299 20.616 98.3419 20.904C97.6699 21.192 96.9179 21.336 96.0859 21.336C95.6059 21.336 95.1739 21.288 94.7899 21.192C94.4219 21.096 94.1019 20.976 93.8299 20.832C93.6219 20.736 93.4219 20.648 93.2299 20.568C93.0539 20.472 92.8859 20.392 92.7259 20.328C92.5659 20.28 92.4219 20.336 92.2939 20.496C92.1819 20.656 92.0939 20.88 92.0299 21.168H91.5259C91.5579 20.656 91.5819 20.032 91.5979 19.296C91.6139 18.56 91.6219 17.584 91.6219 16.368H92.1259C92.2219 17.232 92.3979 18 92.6539 18.672C92.9099 19.328 93.2539 19.848 93.6859 20.232C94.1339 20.6 94.6939 20.784 95.3659 20.784C95.7819 20.784 96.1659 20.656 96.5179 20.4C96.8699 20.128 97.0459 19.688 97.0459 19.08C97.0459 18.376 96.8139 17.792 96.3499 17.328C95.9019 16.864 95.3259 16.36 94.6219 15.816C94.1099 15.4 93.6219 14.992 93.1579 14.592C92.7099 14.176 92.3419 13.728 92.0539 13.248C91.7659 12.752 91.6219 12.192 91.6219 11.568C91.6219 10.848 91.8139 10.24 92.1979 9.744C92.5819 9.248 93.0859 8.88 93.7099 8.64C94.3499 8.384 95.0299 8.256 95.7499 8.256ZM106.956 4.656V8.592H109.788V9.072H106.956V18.768C106.956 19.248 107.044 19.592 107.22 19.8C107.396 19.992 107.66 20.088 108.012 20.088C108.3 20.088 108.588 19.984 108.876 19.776C109.164 19.552 109.42 19.176 109.644 18.648L110.052 18.864C109.796 19.584 109.404 20.176 108.876 20.64C108.364 21.104 107.66 21.336 106.764 21.336C106.236 21.336 105.772 21.264 105.372 21.12C104.972 20.992 104.636 20.792 104.364 20.52C104.012 20.168 103.78 19.736 103.668 19.224C103.556 18.696 103.5 18.016 103.5 17.184V9.072H101.484V8.592H103.5V5.424C104.172 5.424 104.788 5.368 105.348 5.256C105.924 5.128 106.46 4.928 106.956 4.656Z" fill="white"/>
</g>
<defs>
<filter id="filter0_d_3717_2295" x="0.870728" y="0.210938" width="113.181" height="27.125" filterUnits="userSpaceOnUse" color-interpolation-filters="sRGB">
<feFlood flood-opacity="0" result="BackgroundImageFix"/>
<feColorMatrix in="SourceAlpha" type="matrix" values="0 0 0 0 0 0 0 0 0 0 0 0 0 0 0 0 0 0 127 0" result="hardAlpha"/>
<feOffset dy="2"/>
<feGaussianBlur stdDeviation="2"/>
<feComposite in2="hardAlpha" operator="out"/>
<feColorMatrix type="matrix" values="0 0 0 0 0 0 0 0 0 0 0 0 0 0 0 0 0 0 0.45 0"/>
<feBlend mode="normal" in2="BackgroundImageFix" result="effect1_dropShadow_3717_2295"/>
<feBlend mode="normal" in="SourceGraphic" in2="effect1_dropShadow_3717_2295" result="shape"/>
</filter>
</defs>
</svg>
