<svg width="30" height="30" viewBox="0 0 30 30" fill="none" xmlns="http://www.w3.org/2000/svg">
<g clip-path="url(#clip0_5060_2097)">
<path d="M27.5 2.81313H23.4375V0.938125C23.4377 0.689485 23.3391 0.450962 23.1634 0.27503C22.9877 0.099097 22.7493 0.000165983 22.5006 2.22604e-07C22.252 -0.000165538 22.0135 0.0984475 21.8375 0.274146C21.6616 0.449844 21.5627 0.688235 21.5625 0.936875V2.81313H15.9375V0.938125C15.9376 0.815011 15.9134 0.693086 15.8664 0.579312C15.8193 0.465538 15.7504 0.362143 15.6634 0.27503C15.5764 0.187917 15.4731 0.118792 15.3593 0.0716023C15.2456 0.0244127 15.1237 8.22848e-05 15.0006 2.08634e-07C14.752 -0.000165552 14.5135 0.0984475 14.3375 0.274146C14.1616 0.449844 14.0627 0.688235 14.0625 0.936875V2.81313H8.4375V0.938125C8.43758 0.815011 8.41341 0.693086 8.36638 0.579312C8.31934 0.465538 8.25035 0.362143 8.16335 0.27503C8.07636 0.187917 7.97305 0.118792 7.85934 0.0716023C7.74563 0.0244127 7.62374 8.22848e-05 7.50063 2.08634e-07C7.25198 -0.000165552 7.01346 0.0984475 6.83753 0.274146C6.6616 0.449844 6.56267 0.688235 6.5625 0.936875V2.81313H2.5C1.83718 2.81313 1.20148 3.07635 0.732675 3.54492C0.26387 4.01349 0.000331412 4.64905 0 5.31188V27.4994C0 28.1624 0.263392 28.7983 0.732233 29.2671C1.20107 29.736 1.83696 29.9994 2.5 29.9994H27.5C28.163 29.9994 28.7989 29.736 29.2678 29.2671C29.7366 28.7983 30 28.1624 30 27.4994V5.31188C29.9997 4.64905 29.7361 4.01349 29.2673 3.54492C28.7985 3.07635 28.1628 2.81313 27.5 2.81313V2.81313ZM28.125 27.5006C28.125 27.6662 28.0593 27.825 27.9424 27.9421C27.8254 28.0593 27.6668 28.1253 27.5012 28.1256H2.5C2.33424 28.1256 2.17527 28.0598 2.05806 27.9426C1.94085 27.8254 1.875 27.6664 1.875 27.5006V5.31313C1.87533 5.14758 1.94133 4.98893 2.0585 4.87199C2.17567 4.75505 2.33446 4.68937 2.5 4.68938H6.5625V6.56438C6.56233 6.81302 6.66095 7.05154 6.83665 7.22747C7.01234 7.4034 7.25073 7.50233 7.49937 7.5025C7.74802 7.50267 7.98654 7.40405 8.16247 7.22835C8.3384 7.05266 8.43733 6.81427 8.4375 6.56563V4.68938H14.0625V6.56438C14.0623 6.81302 14.1609 7.05154 14.3366 7.22747C14.5123 7.4034 14.7507 7.50233 14.9994 7.5025C15.248 7.50267 15.4865 7.40405 15.6625 7.22835C15.8384 7.05266 15.9373 6.81427 15.9375 6.56563V4.68938H21.5625V6.56438C21.5623 6.81302 21.6609 7.05154 21.8366 7.22747C22.0123 7.4034 22.2507 7.50233 22.4994 7.5025C22.748 7.50267 22.9865 7.40405 23.1625 7.22835C23.3384 7.05266 23.4373 6.81427 23.4375 6.56563V4.68938H27.5C27.6653 4.68971 27.8238 4.75553 27.9407 4.87243C28.0576 4.98934 28.1234 5.1478 28.1238 5.31313L28.125 27.5006Z" fill="#F0912C"/>
<path d="M6.5625 11.25H10.3125V14.0625H6.5625V11.25ZM6.5625 15.9375H10.3125V18.75H6.5625V15.9375ZM6.5625 20.625H10.3125V23.4375H6.5625V20.625ZM13.125 20.625H16.875V23.4375H13.125V20.625ZM13.125 15.9375H16.875V18.75H13.125V15.9375ZM13.125 11.25H16.875V14.0625H13.125V11.25ZM19.6875 20.625H23.4375V23.4375H19.6875V20.625ZM19.6875 15.9375H23.4375V18.75H19.6875V15.9375ZM19.6875 11.25H23.4375V14.0625H19.6875V11.25Z" fill="#F0912C"/>
</g>
<defs>
<clipPath id="clip0_5060_2097">
<rect width="30" height="30" fill="white"/>
</clipPath>
</defs>
</svg>
