<svg width="87" height="28" viewBox="0 0 87 28" fill="none" xmlns="http://www.w3.org/2000/svg">
<g filter="url(#filter0_d_3717_2304)">
<path d="M12.3101 4.008C15.4621 4.008 17.8061 4.728 19.3421 6.168C20.8781 7.592 21.6461 9.64 21.6461 12.312C21.6461 14.056 21.2701 15.584 20.5181 16.896C19.7661 18.192 18.6701 19.2 17.2301 19.92C15.8061 20.64 14.0941 21 12.0941 21C11.7101 21 11.1581 20.992 10.4381 20.976C9.73413 20.944 9.11813 20.928 8.59013 20.928C7.88613 20.928 7.19013 20.936 6.50213 20.952C5.83013 20.952 5.29413 20.968 4.89413 21V20.52C5.40613 20.488 5.79013 20.424 6.04613 20.328C6.30213 20.232 6.47013 20.04 6.55013 19.752C6.64613 19.464 6.69413 19.032 6.69413 18.456V6.552C6.69413 5.96 6.64613 5.528 6.55013 5.256C6.47013 4.968 6.29413 4.776 6.02213 4.68C5.76613 4.568 5.39013 4.504 4.89413 4.488V4.008C5.29413 4.024 5.83013 4.048 6.50213 4.08C7.19013 4.096 7.87013 4.096 8.54213 4.08C9.11813 4.064 9.76613 4.048 10.4861 4.032C11.2221 4.016 11.8301 4.008 12.3101 4.008ZM12.2861 4.44C11.5501 4.44 11.0701 4.576 10.8461 4.848C10.6221 5.12 10.5101 5.672 10.5101 6.504V18.504C10.5101 19.336 10.6221 19.888 10.8461 20.16C11.0861 20.432 11.5741 20.568 12.3101 20.568C13.6541 20.568 14.7101 20.256 15.4781 19.632C16.2621 18.992 16.8221 18.064 17.1581 16.848C17.4941 15.632 17.6621 14.152 17.6621 12.408C17.6621 9.72 17.2461 7.72 16.4141 6.408C15.5821 5.096 14.2061 4.44 12.2861 4.44ZM26.4069 2.4C27.0789 2.4 27.6069 2.568 27.9909 2.904C28.3909 3.224 28.5909 3.672 28.5909 4.248C28.5909 4.824 28.3909 5.28 27.9909 5.616C27.6069 5.936 27.0789 6.096 26.4069 6.096C25.7349 6.096 25.1989 5.936 24.7989 5.616C24.4149 5.28 24.2229 4.824 24.2229 4.248C24.2229 3.672 24.4149 3.224 24.7989 2.904C25.1989 2.568 25.7349 2.4 26.4069 2.4ZM28.2789 8.328V18.768C28.2789 19.44 28.3909 19.896 28.6149 20.136C28.8549 20.376 29.2549 20.496 29.8149 20.496V21C29.5269 20.984 29.0789 20.968 28.4709 20.952C27.8629 20.92 27.2469 20.904 26.6229 20.904C25.9989 20.904 25.3669 20.92 24.7269 20.952C24.0869 20.968 23.6069 20.984 23.2869 21V20.496C23.8469 20.496 24.2389 20.376 24.4629 20.136C24.7029 19.896 24.8229 19.44 24.8229 18.768V11.208C24.8229 10.488 24.7109 9.96 24.4869 9.624C24.2789 9.272 23.8789 9.096 23.2869 9.096V8.592C23.7989 8.64 24.2949 8.664 24.7749 8.664C25.4469 8.664 26.0709 8.64 26.6469 8.592C27.2389 8.528 27.7829 8.44 28.2789 8.328ZM39.7853 8.256C40.4573 8.256 41.0013 8.344 41.4173 8.52C41.8493 8.68 42.1853 8.904 42.4253 9.192C42.6813 9.496 42.8653 9.888 42.9773 10.368C43.1053 10.848 43.1693 11.496 43.1693 12.312V18.768C43.1693 19.44 43.2812 19.896 43.5052 20.136C43.7453 20.376 44.1453 20.496 44.7053 20.496V21C44.4013 20.984 43.9453 20.968 43.3373 20.952C42.7293 20.92 42.1293 20.904 41.5373 20.904C40.9293 20.904 40.3293 20.92 39.7373 20.952C39.1613 20.968 38.7213 20.984 38.4173 21V20.496C38.8973 20.496 39.2333 20.376 39.4253 20.136C39.6173 19.896 39.7133 19.44 39.7133 18.768V11.304C39.7133 10.904 39.6733 10.56 39.5933 10.272C39.5133 9.968 39.3693 9.736 39.1613 9.576C38.9533 9.4 38.6413 9.312 38.2253 9.312C37.5533 9.312 36.9853 9.576 36.5213 10.104C36.0733 10.632 35.8493 11.296 35.8493 12.096V18.768C35.8493 19.44 35.9453 19.896 36.1373 20.136C36.3453 20.376 36.6813 20.496 37.1453 20.496V21C36.8573 20.984 36.4333 20.968 35.8733 20.952C35.3293 20.92 34.7613 20.904 34.1693 20.904C33.5613 20.904 32.9373 20.92 32.2973 20.952C31.6573 20.968 31.1773 20.984 30.8573 21V20.496C31.4173 20.496 31.8093 20.376 32.0333 20.136C32.2733 19.896 32.3933 19.44 32.3933 18.768V11.208C32.3933 10.488 32.2813 9.96 32.0573 9.624C31.8493 9.272 31.4493 9.096 30.8573 9.096V8.592C31.3693 8.64 31.8653 8.664 32.3453 8.664C33.0173 8.664 33.6413 8.64 34.2173 8.592C34.8093 8.528 35.3533 8.44 35.8493 8.328V10.488C36.2493 9.672 36.7933 9.096 37.4813 8.76C38.1693 8.424 38.9373 8.256 39.7853 8.256ZM54.5274 8.256C55.1994 8.256 55.7434 8.344 56.1594 8.52C56.5914 8.68 56.9274 8.904 57.1674 9.192C57.4234 9.496 57.6074 9.888 57.7194 10.368C57.8474 10.848 57.9114 11.496 57.9114 12.312V18.768C57.9114 19.44 58.0234 19.896 58.2474 20.136C58.4874 20.376 58.8874 20.496 59.4474 20.496V21C59.1434 20.984 58.6874 20.968 58.0794 20.952C57.4714 20.92 56.8714 20.904 56.2794 20.904C55.6714 20.904 55.0714 20.92 54.4794 20.952C53.9034 20.968 53.4634 20.984 53.1594 21V20.496C53.6394 20.496 53.9754 20.376 54.1674 20.136C54.3594 19.896 54.4554 19.44 54.4554 18.768V11.304C54.4554 10.904 54.4154 10.56 54.3354 10.272C54.2554 9.968 54.1114 9.736 53.9034 9.576C53.6954 9.4 53.3834 9.312 52.9674 9.312C52.2954 9.312 51.7274 9.576 51.2634 10.104C50.8154 10.632 50.5914 11.296 50.5914 12.096V18.768C50.5914 19.44 50.6874 19.896 50.8794 20.136C51.0874 20.376 51.4234 20.496 51.8874 20.496V21C51.5994 20.984 51.1754 20.968 50.6154 20.952C50.0714 20.92 49.5034 20.904 48.9114 20.904C48.3034 20.904 47.6794 20.92 47.0394 20.952C46.3994 20.968 45.9194 20.984 45.5994 21V20.496C46.1594 20.496 46.5514 20.376 46.7754 20.136C47.0154 19.896 47.1354 19.44 47.1354 18.768V11.208C47.1354 10.488 47.0234 9.96 46.7994 9.624C46.5914 9.272 46.1914 9.096 45.5994 9.096V8.592C46.1114 8.64 46.6074 8.664 47.0874 8.664C47.7594 8.664 48.3834 8.64 48.9594 8.592C49.5514 8.528 50.0954 8.44 50.5914 8.328V10.488C50.9914 9.672 51.5354 9.096 52.2234 8.76C52.9114 8.424 53.6794 8.256 54.5274 8.256ZM66.5336 8.256C67.9416 8.256 69.0456 8.672 69.8456 9.504C70.6456 10.336 71.0456 11.696 71.0456 13.584H63.1496L63.1016 13.128H68.0216C68.0376 12.344 67.9896 11.624 67.8776 10.968C67.7656 10.296 67.5896 9.76 67.3496 9.36C67.1096 8.96 66.7896 8.76 66.3896 8.76C65.8296 8.76 65.3496 9.112 64.9496 9.816C64.5656 10.52 64.3336 11.688 64.2536 13.32L64.3256 13.464C64.3096 13.656 64.2936 13.856 64.2776 14.064C64.2776 14.272 64.2776 14.488 64.2776 14.712C64.2776 15.816 64.4296 16.712 64.7336 17.4C65.0536 18.088 65.4536 18.592 65.9336 18.912C66.4136 19.216 66.9016 19.368 67.3976 19.368C67.8776 19.368 68.3976 19.248 68.9576 19.008C69.5336 18.768 70.0696 18.248 70.5656 17.448L70.9976 17.592C70.8056 18.2 70.5016 18.792 70.0856 19.368C69.6696 19.944 69.1416 20.416 68.5016 20.784C67.8616 21.152 67.0936 21.336 66.1976 21.336C65.1096 21.336 64.1496 21.104 63.3176 20.64C62.4856 20.176 61.8296 19.472 61.3496 18.528C60.8856 17.584 60.6536 16.384 60.6536 14.928C60.6536 13.44 60.9016 12.2 61.3976 11.208C61.9096 10.216 62.6056 9.48 63.4856 9C64.3816 8.504 65.3976 8.256 66.5336 8.256ZM80.5508 8.256C81.0628 8.256 81.4788 8.368 81.7988 8.592C82.1188 8.8 82.3508 9.072 82.4948 9.408C82.6548 9.744 82.7348 10.096 82.7348 10.464C82.7348 11.056 82.5588 11.544 82.2068 11.928C81.8708 12.296 81.4228 12.48 80.8628 12.48C80.3028 12.48 79.8628 12.344 79.5428 12.072C79.2388 11.784 79.0868 11.408 79.0868 10.944C79.0868 10.496 79.1828 10.128 79.3748 9.84C79.5828 9.536 79.8388 9.28 80.1428 9.072C79.9188 9.008 79.6948 9.016 79.4708 9.096C79.0548 9.16 78.6788 9.36 78.3428 9.696C78.0228 10.016 77.7668 10.4 77.5748 10.848C77.3828 11.296 77.2868 11.736 77.2868 12.168V18.528C77.2868 19.296 77.4708 19.816 77.8388 20.088C78.2228 20.36 78.7908 20.496 79.5428 20.496V21C79.1748 20.984 78.6388 20.968 77.9348 20.952C77.2308 20.92 76.4948 20.904 75.7268 20.904C75.0868 20.904 74.4388 20.92 73.7828 20.952C73.1268 20.968 72.6308 20.984 72.2948 21V20.496C72.8548 20.496 73.2468 20.376 73.4708 20.136C73.7108 19.896 73.8308 19.44 73.8308 18.768V11.208C73.8308 10.488 73.7188 9.96 73.4948 9.624C73.2868 9.272 72.8868 9.096 72.2948 9.096V8.592C72.8068 8.64 73.3028 8.664 73.7828 8.664C74.4548 8.664 75.0788 8.64 75.6548 8.592C76.2468 8.528 76.7908 8.44 77.2868 8.328V10.56C77.4788 10.128 77.7348 9.736 78.0547 9.384C78.3748 9.032 78.7428 8.76 79.1588 8.568C79.5748 8.36 80.0388 8.256 80.5508 8.256Z" fill="white"/>
</g>
<defs>
<filter id="filter0_d_3717_2304" x="0.894165" y="0.398438" width="85.8406" height="26.9375" filterUnits="userSpaceOnUse" color-interpolation-filters="sRGB">
<feFlood flood-opacity="0" result="BackgroundImageFix"/>
<feColorMatrix in="SourceAlpha" type="matrix" values="0 0 0 0 0 0 0 0 0 0 0 0 0 0 0 0 0 0 127 0" result="hardAlpha"/>
<feOffset dy="2"/>
<feGaussianBlur stdDeviation="2"/>
<feComposite in2="hardAlpha" operator="out"/>
<feColorMatrix type="matrix" values="0 0 0 0 0 0 0 0 0 0 0 0 0 0 0 0 0 0 0.45 0"/>
<feBlend mode="normal" in2="BackgroundImageFix" result="effect1_dropShadow_3717_2304"/>
<feBlend mode="normal" in="SourceGraphic" in2="effect1_dropShadow_3717_2304" result="shape"/>
</filter>
</defs>
</svg>
