<svg width="78" height="28" viewBox="0 0 78 28" fill="none" xmlns="http://www.w3.org/2000/svg">
<g filter="url(#filter0_d_3717_2301)">
<path d="M11.6377 4.008V4.488C11.0937 4.504 10.6777 4.568 10.3897 4.68C10.1177 4.776 9.93372 4.968 9.83772 5.256C9.74172 5.528 9.69372 5.96 9.69372 6.552V18.744C9.69372 19.24 9.72572 19.608 9.78972 19.848C9.86972 20.088 10.0137 20.248 10.2217 20.328C10.4457 20.408 10.7737 20.448 11.2057 20.448H12.3817C12.9257 20.448 13.4377 20.32 13.9177 20.064C14.3977 19.808 14.8297 19.448 15.2137 18.984C15.5977 18.504 15.9177 17.936 16.1737 17.28C16.4297 16.624 16.6217 15.896 16.7497 15.096H17.3017C17.2537 15.64 17.2297 16.344 17.2297 17.208C17.2297 17.576 17.2377 18.112 17.2537 18.816C17.2697 19.52 17.3177 20.248 17.3977 21C16.5817 20.968 15.6617 20.952 14.6377 20.952C13.6137 20.936 12.7017 20.928 11.9017 20.928C11.5017 20.928 10.9897 20.928 10.3657 20.928C9.74172 20.928 9.06972 20.936 8.34972 20.952C7.62972 20.952 6.90172 20.96 6.16572 20.976C5.42972 20.976 4.73372 20.984 4.07772 21V20.52C4.58972 20.488 4.97372 20.424 5.22972 20.328C5.48572 20.232 5.65372 20.04 5.73372 19.752C5.82972 19.464 5.87772 19.032 5.87772 18.456V6.552C5.87772 5.96 5.82972 5.528 5.73372 5.256C5.65372 4.968 5.47772 4.776 5.20572 4.68C4.94972 4.568 4.57372 4.504 4.07772 4.488V4.008C4.47772 4.024 5.01372 4.04 5.68572 4.056C6.37372 4.072 7.10172 4.08 7.86972 4.08C8.57372 4.08 9.26172 4.072 9.93372 4.056C10.6217 4.04 11.1897 4.024 11.6377 4.008ZM30.4616 8.328V18.384C30.4616 19.104 30.5736 19.64 30.7976 19.992C31.0216 20.328 31.4216 20.496 31.9976 20.496V21C31.5016 20.952 31.0056 20.928 30.5096 20.928C29.8376 20.928 29.2136 20.952 28.6376 21C28.0616 21.048 27.5176 21.136 27.0056 21.264V19.104C26.6216 19.904 26.0856 20.48 25.3976 20.832C24.7256 21.168 23.9736 21.336 23.1416 21.336C22.4696 21.336 21.9256 21.248 21.5096 21.072C21.0936 20.896 20.7656 20.672 20.5256 20.4C20.2536 20.096 20.0616 19.696 19.9496 19.2C19.8376 18.704 19.7816 18.064 19.7816 17.28V11.208C19.7816 10.488 19.6696 9.96 19.4456 9.624C19.2376 9.272 18.8376 9.096 18.2456 9.096V8.592C18.7576 8.64 19.2536 8.664 19.7336 8.664C20.4056 8.664 21.0296 8.64 21.6056 8.592C22.1976 8.528 22.7416 8.44 23.2376 8.328V18.264C23.2376 18.664 23.2696 19.016 23.3336 19.32C23.4136 19.624 23.5576 19.864 23.7656 20.04C23.9736 20.2 24.2776 20.28 24.6776 20.28C25.1096 20.28 25.4936 20.16 25.8296 19.92C26.1816 19.68 26.4616 19.352 26.6696 18.936C26.8936 18.504 27.0056 18.024 27.0056 17.496V11.208C27.0056 10.488 26.8936 9.96 26.6696 9.624C26.4616 9.272 26.0616 9.096 25.4696 9.096V8.592C25.9816 8.64 26.4776 8.664 26.9576 8.664C27.6296 8.664 28.2536 8.64 28.8296 8.592C29.4216 8.528 29.9656 8.44 30.4616 8.328ZM41.9923 8.256C42.6643 8.256 43.2083 8.344 43.6243 8.52C44.0563 8.68 44.3923 8.904 44.6323 9.192C44.8883 9.496 45.0723 9.888 45.1843 10.368C45.3123 10.848 45.3763 11.496 45.3763 12.312V18.768C45.3763 19.44 45.4883 19.896 45.7123 20.136C45.9523 20.376 46.3523 20.496 46.9123 20.496V21C46.6083 20.984 46.1523 20.968 45.5443 20.952C44.9363 20.92 44.3363 20.904 43.7443 20.904C43.1363 20.904 42.5363 20.92 41.9443 20.952C41.3683 20.968 40.9283 20.984 40.6243 21V20.496C41.1043 20.496 41.4403 20.376 41.6323 20.136C41.8243 19.896 41.9203 19.44 41.9203 18.768V11.304C41.9203 10.904 41.8803 10.56 41.8003 10.272C41.7203 9.968 41.5763 9.736 41.3683 9.576C41.1603 9.4 40.8483 9.312 40.4323 9.312C40.0003 9.312 39.6003 9.432 39.2323 9.672C38.8803 9.912 38.5923 10.248 38.3683 10.68C38.1603 11.096 38.0563 11.568 38.0563 12.096V18.768C38.0563 19.44 38.1523 19.896 38.3443 20.136C38.5523 20.376 38.8883 20.496 39.3523 20.496V21C39.0643 20.984 38.6403 20.968 38.0803 20.952C37.5363 20.92 36.9683 20.904 36.3763 20.904C35.7683 20.904 35.1443 20.92 34.5043 20.952C33.8643 20.968 33.3843 20.984 33.0643 21V20.496C33.6243 20.496 34.0163 20.376 34.2403 20.136C34.4803 19.896 34.6003 19.44 34.6003 18.768V11.208C34.6003 10.488 34.4883 9.96 34.2643 9.624C34.0563 9.272 33.6563 9.096 33.0643 9.096V8.592C33.5763 8.64 34.0723 8.664 34.5523 8.664C35.2243 8.664 35.8483 8.64 36.4243 8.592C37.0163 8.528 37.5603 8.44 38.0563 8.328V10.488C38.4563 9.672 39.0003 9.096 39.6883 8.76C40.3763 8.424 41.1443 8.256 41.9923 8.256ZM54.0465 8.256C54.6705 8.256 55.2385 8.328 55.7505 8.472C56.2785 8.6 56.7105 8.768 57.0465 8.976C57.4625 9.232 57.7825 9.552 58.0065 9.936C58.2465 10.304 58.3665 10.736 58.3665 11.232C58.3665 11.792 58.1905 12.256 57.8385 12.624C57.4865 12.976 57.0305 13.152 56.4705 13.152C55.9105 13.152 55.4625 12.992 55.1265 12.672C54.7905 12.352 54.6225 11.92 54.6225 11.376C54.6225 10.864 54.7825 10.44 55.1025 10.104C55.4225 9.752 55.7905 9.52 56.2065 9.408C56.0785 9.248 55.8865 9.112 55.6305 9C55.3745 8.888 55.0865 8.832 54.7665 8.832C54.2705 8.832 53.8305 8.976 53.4465 9.264C53.0785 9.552 52.7665 9.952 52.5105 10.464C52.2545 10.976 52.0545 11.576 51.9105 12.264C51.7825 12.952 51.7185 13.704 51.7185 14.52C51.7185 15.752 51.8705 16.72 52.1745 17.424C52.4945 18.128 52.8945 18.624 53.3745 18.912C53.8705 19.2 54.3825 19.344 54.9105 19.344C55.2145 19.344 55.5425 19.296 55.8945 19.2C56.2625 19.104 56.6305 18.912 56.9985 18.624C57.3825 18.336 57.7345 17.928 58.0545 17.4L58.4625 17.544C58.2865 18.136 57.9985 18.728 57.5985 19.32C57.1985 19.912 56.6785 20.4 56.0385 20.784C55.3985 21.152 54.6145 21.336 53.6865 21.336C52.6465 21.336 51.7025 21.112 50.8545 20.664C50.0225 20.2 49.3505 19.496 48.8385 18.552C48.3425 17.592 48.0945 16.36 48.0945 14.856C48.0945 13.416 48.3505 12.208 48.8625 11.232C49.3905 10.24 50.1025 9.496 50.9985 9C51.8945 8.504 52.9105 8.256 54.0465 8.256ZM64.5847 2.232V10.488C64.9847 9.656 65.5207 9.08 66.1927 8.76C66.8807 8.424 67.6487 8.256 68.4967 8.256C69.1847 8.256 69.7367 8.344 70.1527 8.52C70.5687 8.68 70.8967 8.904 71.1367 9.192C71.4087 9.496 71.6007 9.888 71.7127 10.368C71.8407 10.848 71.9047 11.496 71.9047 12.312V18.768C71.9047 19.44 72.0167 19.896 72.2407 20.136C72.4807 20.376 72.8807 20.496 73.4407 20.496V21C73.1367 20.984 72.6727 20.968 72.0487 20.952C71.4407 20.92 70.8487 20.904 70.2727 20.904C69.6487 20.904 69.0407 20.92 68.4487 20.952C67.8727 20.968 67.4407 20.984 67.1527 21V20.496C67.6327 20.496 67.9687 20.376 68.1607 20.136C68.3527 19.896 68.4487 19.44 68.4487 18.768V11.304C68.4487 10.904 68.4087 10.56 68.3287 10.272C68.2487 9.968 68.0967 9.736 67.8727 9.576C67.6647 9.4 67.3607 9.312 66.9607 9.312C66.5287 9.312 66.1287 9.432 65.7607 9.672C65.4087 9.896 65.1207 10.216 64.8967 10.632C64.6887 11.048 64.5847 11.528 64.5847 12.072V18.768C64.5847 19.44 64.6807 19.896 64.8727 20.136C65.0647 20.376 65.4007 20.496 65.8807 20.496V21C65.5927 20.984 65.1687 20.968 64.6087 20.952C64.0487 20.92 63.4807 20.904 62.9047 20.904C62.2807 20.904 61.6487 20.92 61.0087 20.952C60.3847 20.968 59.9127 20.984 59.5927 21V20.496C60.1527 20.496 60.5447 20.376 60.7687 20.136C61.0087 19.896 61.1287 19.44 61.1287 18.768V5.112C61.1287 4.392 61.0167 3.864 60.7927 3.528C60.5847 3.176 60.1847 3 59.5927 3V2.496C60.1047 2.544 60.6007 2.568 61.0807 2.568C61.7367 2.568 62.3607 2.544 62.9527 2.496C63.5447 2.432 64.0887 2.344 64.5847 2.232Z" fill="white"/>
</g>
<defs>
<filter id="filter0_d_3717_2301" x="0.0777588" y="0.234375" width="77.3629" height="27.1016" filterUnits="userSpaceOnUse" color-interpolation-filters="sRGB">
<feFlood flood-opacity="0" result="BackgroundImageFix"/>
<feColorMatrix in="SourceAlpha" type="matrix" values="0 0 0 0 0 0 0 0 0 0 0 0 0 0 0 0 0 0 127 0" result="hardAlpha"/>
<feOffset dy="2"/>
<feGaussianBlur stdDeviation="2"/>
<feComposite in2="hardAlpha" operator="out"/>
<feColorMatrix type="matrix" values="0 0 0 0 0 0 0 0 0 0 0 0 0 0 0 0 0 0 0.45 0"/>
<feBlend mode="normal" in2="BackgroundImageFix" result="effect1_dropShadow_3717_2301"/>
<feBlend mode="normal" in="SourceGraphic" in2="effect1_dropShadow_3717_2301" result="shape"/>
</filter>
</defs>
</svg>
