<svg width="94" height="114" viewBox="0 0 94 114" fill="none" xmlns="http://www.w3.org/2000/svg">
<path d="M92.2886 45.093C92.2886 56.8612 92.2932 68.6295 92.2863 80.3977C92.2839 84.6752 89.7702 88.2366 85.823 89.6016C84.6952 89.9914 83.5314 90.1209 82.3408 90.1209C70.2434 90.1151 58.1447 90.1163 46.0472 90.1163C34.5101 90.1163 22.9742 90.1232 11.4371 90.114C6.95851 90.1105 3.18684 87.2303 2.06022 82.9922C1.85676 82.2253 1.75677 81.4457 1.75677 80.651C1.75793 56.9422 1.75095 33.2322 1.76258 9.52338C1.76607 4.23727 6.00862 0.0118561 11.3266 0.00954275C35.1356 -0.00318092 58.9434 -0.00318092 82.7524 0.00954275C88.0925 0.0118561 92.2769 4.27197 92.2839 9.67491C92.2967 20.5768 92.2874 31.4775 92.2874 42.3794C92.2874 43.2851 92.2874 44.1896 92.2874 45.0953L92.2886 45.093ZM2.8985 45.0097C2.8985 56.8346 2.89269 68.6584 2.90083 80.4833C2.90431 85.3044 6.58646 88.9758 11.422 88.9769C35.1507 88.9827 58.8783 88.9827 82.6071 88.9769C87.4403 88.9769 91.1573 85.3137 91.1596 80.4995C91.1724 56.8693 91.1713 33.2403 91.1596 9.61013C91.1573 4.83644 87.4391 1.14658 82.6513 1.14426C58.8841 1.13617 35.117 1.14079 11.3499 1.13964C10.7465 1.13964 10.1512 1.19169 9.56288 1.31777C5.65401 2.16331 2.90431 5.53393 2.90199 9.53726C2.89269 21.3622 2.8985 33.1859 2.8985 45.0109V45.0097Z" fill="#251F1D"/>
<path d="M54.6869 92.9226C56.1611 92.9377 57.5563 93.0036 58.9492 92.918C58.9585 93.1632 58.8574 93.1736 58.7667 93.1922C57.9028 93.3691 57.7598 93.5068 57.7505 94.3627C57.7331 95.9208 57.7459 97.48 57.7459 99.0439C57.9493 99.0763 58.0051 98.8958 58.1005 98.7987C59.4643 97.406 60.8234 96.0087 62.1814 94.6103C62.3023 94.4853 62.4151 94.3535 62.5337 94.2262C62.8941 93.8399 63.1418 93.4501 62.5383 92.9701C63.7312 93.0406 64.8834 92.9169 66.0624 92.9284C65.9984 93.1933 65.8694 93.1887 65.7612 93.2003C64.9974 93.2847 64.3602 93.6375 63.8219 94.158C62.3221 95.6062 60.8409 97.0717 59.3422 98.5211C59.1027 98.7524 59.0643 98.9016 59.3247 99.1642C61.2257 101.083 63.0441 103.085 65.0729 104.878C65.5241 105.276 66.0054 105.619 66.5635 105.863C66.9007 106.01 67.1471 105.954 67.4006 105.713C67.7494 105.381 67.9238 104.957 68.0842 104.522C69.4411 100.839 70.7932 97.155 72.1559 93.4744C72.257 93.2014 72.2745 92.7399 72.5954 92.7422C72.9139 92.7445 72.9337 93.2083 73.0395 93.4813C74.3719 96.8855 75.6787 100.3 77.0181 103.702C77.4809 104.878 77.8704 106.173 79.5504 106.236C78.3319 106.424 77.146 106.309 75.8497 106.315C76.2612 105.872 76.0659 105.501 75.9183 105.118C75.4613 103.933 75.0056 102.748 74.5684 101.555C74.4533 101.242 74.3022 101.102 73.9429 101.111C72.8791 101.136 71.8141 101.132 70.7502 101.111C70.4165 101.105 70.2677 101.235 70.1712 101.534C69.8643 102.486 69.5318 103.43 69.2178 104.38C68.9256 105.262 69.1647 105.881 69.9352 106.236C69.8782 106.37 69.7503 106.368 69.6434 106.359C68.3482 106.245 67.0541 106.396 65.7578 106.361C64.6393 106.331 63.8103 105.782 63.0569 105.068C61.3315 103.434 59.7503 101.663 58.1609 99.8998C58.0505 99.7772 57.9819 99.606 57.7296 99.5343C57.7296 100.571 57.7203 101.581 57.7331 102.59C57.7435 103.417 57.6982 104.248 57.8145 105.07C57.9284 105.875 58.0702 106.001 58.8771 106.084C59.0236 106.099 59.1864 106.063 59.3096 106.2C58.9934 106.372 55.3961 106.391 55.0345 106.233C55.0566 106.203 55.0729 106.154 55.1031 106.145C56.1263 105.828 56.2053 105.754 56.2309 104.628C56.3088 101.259 56.2925 97.8895 56.2495 94.52C56.2367 93.479 56.0949 93.346 55.0682 93.1968C54.9555 93.1806 54.8334 93.191 54.6904 92.9226H54.6869ZM72.3686 95.4292C72.3128 95.4304 72.257 95.4315 72.2024 95.4327C71.6838 97.0127 71.1653 98.5928 70.6479 100.173C70.5909 100.346 70.6154 100.482 70.8444 100.482C71.8489 100.482 72.8523 100.482 73.8569 100.482C74.058 100.482 74.1347 100.408 74.058 100.196C73.4906 98.6078 72.9302 97.0185 72.3686 95.4281V95.4292Z" fill="#80323E"/>
<path d="M47.6796 92.9312C49.0445 92.9162 50.3665 93.0203 51.7617 92.8977C51.6722 93.0747 51.6628 93.129 51.6396 93.1348C50.4932 93.4448 50.4514 93.4888 50.4467 94.7114C50.4328 98.37 50.4293 102.03 50.4107 105.688C50.4095 105.942 50.5386 106.313 50.2491 106.417C49.984 106.512 49.7945 106.179 49.6073 105.996C46.3367 102.793 43.2312 99.4353 40.1665 96.0393C40.0281 95.8854 39.8828 95.7374 39.6479 95.4899C39.6479 95.8265 39.6421 96.0451 39.6479 96.2637C39.7188 98.8431 39.7921 101.423 39.8653 104.002C39.87 104.175 39.8642 104.35 39.8874 104.521C40.02 105.507 39.9525 106.106 41.3721 106.101C41.4489 106.101 41.5256 106.122 41.5768 106.288H37.4144C37.4877 106.022 37.6946 106.093 37.8469 106.084C38.4085 106.05 38.6899 105.756 38.7166 105.205C38.7422 104.687 38.7875 104.167 38.7887 103.648C38.7992 100.317 38.8003 96.9843 38.805 93.653C38.805 93.5177 38.8038 93.3835 38.8096 93.2482C38.8178 93.0573 38.7771 92.8017 38.9689 92.7265C39.1712 92.6478 39.2968 92.8861 39.4223 93.0215C42.0139 95.8033 44.602 98.5886 47.1901 101.375C47.9586 102.203 48.7248 103.035 49.4724 103.845C49.4724 102.037 49.484 100.255 49.4689 98.4753C49.4584 97.2237 49.4061 95.9722 49.3805 94.7206C49.3538 93.4298 49.0294 93.1765 48.0121 93.188C47.9028 93.1892 47.7737 93.195 47.6772 92.9301L47.6796 92.9312Z" fill="#80323E"/>
<path d="M85.308 106.308H80.869L80.833 106.207C80.8806 106.178 80.9248 106.134 80.9771 106.121C81.9352 105.876 81.9759 105.853 82.027 104.865C82.2061 101.44 82.1107 98.013 82.091 94.5869C82.084 93.4649 81.9689 93.3931 80.8411 93.2034C80.7469 93.1872 80.6446 93.1838 80.6144 93.0612C80.662 92.927 80.7853 92.9235 80.8981 92.9328C82.6932 93.0774 84.4953 92.8159 86.2893 93.0149C88.0217 93.2069 89.2843 94.2919 89.4436 95.747C89.5762 96.9581 89.1844 98.0269 88.46 98.9811C88.181 99.3478 87.8647 99.6902 87.5392 100.018C87.3636 100.195 87.3625 100.313 87.5125 100.5C88.7112 101.985 89.8285 103.537 91.1597 104.914C91.8387 105.616 92.641 106.083 93.6536 106.106C93.7478 106.109 93.8443 106.132 93.935 106.158C93.9629 106.167 93.978 106.216 93.9989 106.248C92.6689 106.755 90.4714 106.309 89.5541 105.3C88.3844 104.013 87.3997 102.581 86.3847 101.173C86.1173 100.803 85.8289 100.618 85.3732 100.666C85.1441 100.691 84.9093 100.666 84.6767 100.663C83.9171 100.657 83.5385 101.041 83.5408 101.816C83.5455 102.836 83.528 103.857 83.6257 104.875C83.7233 105.895 83.8419 106.016 84.8441 106.099C84.972 106.11 85.1185 106.066 85.308 106.31V106.308ZM85.3115 100.119C86.8102 100.167 87.5776 99.5803 87.8613 98.0315C88.3205 95.5261 87.2439 93.1155 84.0791 93.5493C83.6699 93.606 83.5245 93.7471 83.5315 94.1635C83.5536 95.5457 83.5396 96.9292 83.5396 98.3126C83.5396 99.4801 84.1307 100.082 85.3127 100.119H85.3115Z" fill="#80323E"/>
<path d="M3.9484 106.301C2.64157 106.254 1.33474 106.374 0 106.351C0.0546451 106.151 0.116266 106.103 0.198815 106.107C1.32195 106.148 1.78352 105.422 2.11604 104.509C3.22987 101.457 4.35882 98.4077 5.48195 95.3587C5.70751 94.7456 5.92144 94.1268 6.16792 93.5218C6.28535 93.235 6.27372 92.7468 6.62717 92.7422C6.93063 92.7376 6.95737 93.2118 7.06433 93.486C8.09329 96.1186 9.10713 98.7582 10.1268 101.395C10.4326 102.184 10.7325 102.977 11.0569 103.757C11.5383 104.912 11.9231 106.175 13.6043 106.131C13.5811 106.183 13.559 106.235 13.5357 106.288H9.89774C10.3058 105.875 10.0826 105.505 9.93727 105.126C9.49081 103.959 9.03039 102.796 8.61765 101.616C8.4758 101.213 8.26536 101.099 7.85727 101.111C6.83296 101.138 5.80749 101.129 4.78203 101.112C4.45881 101.106 4.2972 101.215 4.19721 101.526C3.87864 102.514 3.52519 103.49 3.19732 104.476C2.78923 105.705 2.83224 105.792 3.9484 106.302V106.301ZM6.38185 95.4246C6.32953 95.4304 6.27605 95.435 6.22373 95.4408C5.70983 97.0047 5.19593 98.5697 4.67971 100.132C4.57391 100.452 4.75064 100.487 5.00293 100.486C5.92957 100.482 6.85738 100.476 7.78402 100.489C8.14793 100.493 8.14561 100.35 8.04213 100.07C7.71077 99.1688 7.40267 98.2597 7.08177 97.3551C6.85273 96.7109 6.61554 96.0689 6.38301 95.4258L6.38185 95.4246Z" fill="#80323E"/>
<path d="M36.8145 106.234C35.5937 106.411 34.4067 106.331 33.1161 106.308C33.4812 105.918 33.3591 105.579 33.2196 105.222C32.7441 104.004 32.2778 102.781 31.8279 101.553C31.7116 101.234 31.5512 101.107 31.1977 101.115C30.1536 101.138 29.1084 101.138 28.0643 101.115C27.6853 101.105 27.5214 101.243 27.4121 101.597C27.1226 102.534 26.7889 103.457 26.4761 104.387C26.032 105.71 26.0529 105.76 27.3737 106.299H23.2498C23.2904 106.153 23.3521 106.108 23.4346 106.112C24.5287 106.159 25.0054 105.466 25.3332 104.571C26.411 101.627 27.4958 98.6856 28.5782 95.7441C28.877 94.9321 29.1689 94.1166 29.4793 93.3093C29.563 93.0895 29.5746 92.7344 29.863 92.7344C30.1118 92.7344 30.135 93.0733 30.2153 93.278C31.2628 95.9662 32.2999 98.659 33.344 101.348C33.7125 102.299 34.0858 103.248 34.4729 104.191C34.9031 105.238 35.4182 106.202 36.8122 106.237L36.8145 106.234ZM29.57 95.4387C29.527 95.4642 29.4746 95.4757 29.4653 95.5012C28.948 97.0489 28.4341 98.5965 27.919 100.144C27.8109 100.469 28.0027 100.491 28.248 100.49C29.1363 100.485 30.0257 100.475 30.914 100.495C31.314 100.504 31.4186 100.415 31.2675 100.009C30.7966 98.7504 30.3664 97.4768 29.9095 96.2126C29.8141 95.9488 29.7781 95.655 29.5711 95.4387H29.57Z" fill="#80323E"/>
<path d="M23.0264 103.883C23.0741 104.692 22.9695 105.422 22.7183 106.125C22.6102 106.428 22.2905 106.42 22.0184 106.418C20.9546 106.408 19.8907 106.413 18.8292 106.371C17.7073 106.326 16.5876 106.299 15.4668 106.36C15.2808 106.37 15.0808 106.421 14.9099 106.286C14.8866 106.107 15.025 106.098 15.1285 106.102C15.8028 106.124 15.9935 105.682 16.0319 105.14C16.0877 104.353 16.133 103.564 16.1365 102.776C16.1481 100.218 16.14 97.658 16.1353 95.0994C16.1353 94.8311 16.1167 94.5615 16.0912 94.2932C16.0121 93.465 15.8644 93.3204 15.0331 93.2175C14.889 93.2001 14.7157 93.2475 14.582 93H19.1036C18.9432 93.2834 18.7072 93.2151 18.5258 93.229C17.9817 93.2695 17.7363 93.5749 17.6922 94.0838C17.6794 94.2365 17.6712 94.3915 17.6712 94.5453C17.6712 97.5088 17.6712 100.471 17.6782 103.435C17.6782 103.741 17.7084 104.05 17.7503 104.354C17.8886 105.38 18.0642 105.563 19.0769 105.682C19.7698 105.763 20.4674 105.746 21.1627 105.697C21.9963 105.639 22.5079 105.194 22.7369 104.398C22.7811 104.242 22.7335 104.037 23.0288 103.887L23.0264 103.883Z" fill="#80323E"/>
<path d="M80.841 111.329C80.7305 111.824 80.6201 112.319 80.5108 112.814C80.4782 112.959 80.4968 113.162 80.2945 113.172C80.0434 113.183 80.0771 112.951 80.0423 112.791C79.9516 112.38 79.8655 111.97 79.6423 111.549C79.5958 111.962 79.5551 112.375 79.5005 112.785C79.4784 112.955 79.5586 113.212 79.2342 113.182C78.8901 113.15 79.0563 112.906 79.0703 112.745C79.1517 111.845 79.2412 110.945 79.3354 110.045C79.3516 109.889 79.2854 109.677 79.5609 109.658C79.8213 109.639 79.8167 109.829 79.8516 109.995C79.969 110.566 80.0888 111.135 80.2632 111.704C80.541 111.164 80.5701 110.572 80.7178 110.014C80.7608 109.852 80.7329 109.659 80.9956 109.659C81.2816 109.659 81.2177 109.873 81.234 110.026C81.3328 110.963 81.4258 111.901 81.5165 112.84C81.5305 112.983 81.6002 113.157 81.3468 113.182C81.0863 113.209 81.0782 113.048 81.0654 112.86C81.0282 112.354 80.9805 111.848 80.9375 111.342L80.841 111.327V111.329Z" fill="#251F1D"/>
<path d="M52.9848 111.399C52.9848 111.881 52.9836 112.362 52.9848 112.843C52.9848 113.02 53.0092 113.19 52.7348 113.188C52.4488 113.184 52.5023 112.996 52.5011 112.83C52.4988 112.523 52.4918 112.214 52.5035 111.907C52.5128 111.635 52.5104 111.432 52.1268 111.431C51.7059 111.429 51.7861 111.697 51.7814 111.933C51.7756 112.24 51.7756 112.548 51.7838 112.856C51.7896 113.053 51.7605 113.197 51.5094 113.188C51.2896 113.18 51.2745 113.049 51.2757 112.878C51.2792 111.915 51.278 110.953 51.2757 109.992C51.2757 109.803 51.285 109.648 51.5454 109.657C51.7721 109.666 51.7826 109.804 51.7814 109.967C51.7814 110.199 51.7896 110.43 51.7791 110.66C51.7687 110.907 51.8198 111.047 52.1233 111.047C52.4407 111.047 52.5256 110.919 52.5046 110.633C52.4872 110.403 52.5093 110.171 52.5 109.94C52.493 109.756 52.536 109.656 52.7523 109.656C52.9871 109.656 52.9871 109.795 52.9871 109.958C52.986 110.439 52.9871 110.921 52.9871 111.402L52.9848 111.399Z" fill="#251F1D"/>
<path d="M31.7267 111.429C31.7267 110.948 31.729 110.467 31.7255 109.987C31.7243 109.803 31.7232 109.645 31.9894 109.657C32.2266 109.666 32.2127 109.813 32.2127 109.969C32.2127 110.2 32.2243 110.432 32.2103 110.662C32.194 110.922 32.2719 111.043 32.5626 111.044C32.8358 111.044 32.9521 110.964 32.9347 110.686C32.9195 110.456 32.9347 110.225 32.9312 109.993C32.9288 109.808 32.9358 109.649 33.1986 109.658C33.4288 109.666 33.4334 109.806 33.4334 109.968C33.4334 110.949 33.4288 111.93 33.4369 112.912C33.4381 113.113 33.3602 113.187 33.1672 113.188C32.9428 113.191 32.9277 113.053 32.9312 112.883C32.9358 112.556 32.9265 112.228 32.9358 111.902C32.9428 111.632 32.9475 111.419 32.5568 111.432C32.2045 111.444 32.2057 111.63 32.2127 111.88C32.222 112.206 32.2092 112.535 32.2161 112.861C32.2196 113.052 32.2138 113.202 31.9499 113.189C31.715 113.178 31.7278 113.033 31.7278 112.874C31.7301 112.392 31.7278 111.911 31.7278 111.431L31.7267 111.429Z" fill="#251F1D"/>
<path d="M76.5857 111.488C76.5695 111.761 76.5706 112.069 76.5299 112.374C76.459 112.901 76.1614 113.206 75.6044 113.212C75.0603 113.218 74.7801 112.967 74.6825 112.381C74.5697 111.71 74.5999 111.039 74.6952 110.369C74.7697 109.847 75.0836 109.586 75.601 109.586C76.0823 109.586 76.3985 109.798 76.4985 110.304C76.5741 110.687 76.5602 111.069 76.5869 111.488H76.5857ZM75.1243 111.385C75.1452 111.717 75.151 112.043 75.1894 112.364C75.215 112.578 75.2952 112.789 75.5614 112.804C75.8509 112.82 75.966 112.63 76.0067 112.378C76.116 111.712 76.1032 111.047 75.9939 110.383C75.9556 110.148 75.8405 109.986 75.58 109.998C75.3196 110.009 75.2161 110.201 75.1905 110.421C75.1522 110.743 75.144 111.069 75.1243 111.386V111.385Z" fill="#251F1D"/>
<path d="M72.0595 111.411C72.0595 111.891 72.0571 112.371 72.0595 112.851C72.0595 113.029 72.0827 113.201 71.8072 113.19C71.5304 113.181 71.5735 112.997 71.5735 112.828C71.5735 112.502 71.5618 112.175 71.5758 111.85C71.5874 111.584 71.5514 111.432 71.2142 111.431C70.8712 111.431 70.8456 111.591 70.8561 111.853C70.8701 112.198 70.8538 112.545 70.8619 112.89C70.8666 113.067 70.8352 113.181 70.6201 113.189C70.3945 113.198 70.3724 113.073 70.3724 112.901C70.3748 111.921 70.3736 110.943 70.3724 109.963C70.3724 109.803 70.3713 109.659 70.6038 109.659C70.8177 109.659 70.8642 109.764 70.8596 109.946C70.8538 110.176 70.8712 110.407 70.8549 110.636C70.8352 110.91 70.891 111.048 71.2235 111.05C71.577 111.053 71.5863 110.873 71.5735 110.62C71.563 110.41 71.5758 110.198 71.57 109.986C71.5653 109.798 71.577 109.648 71.8374 109.657C72.0781 109.665 72.0571 109.817 72.0571 109.97C72.0571 110.45 72.0571 110.93 72.0571 111.41L72.0595 111.411Z" fill="#251F1D"/>
<path d="M41.535 113.009C41.5594 113.084 41.5257 113.175 41.3687 113.185C41.2246 113.193 41.0944 113.168 41.0595 112.998C41.0072 112.746 41.0409 112.484 40.6223 112.47C40.17 112.455 40.1991 112.755 40.1317 113.017C40.0852 113.197 39.9503 113.194 39.8143 113.174C39.5887 113.142 39.6852 112.988 39.7108 112.868C39.9177 111.894 40.127 110.92 40.3351 109.947C40.3677 109.792 40.4002 109.647 40.6153 109.657C40.7618 109.662 40.8211 109.739 40.8479 109.86C41.0734 110.889 41.2978 111.918 41.535 113.01V113.009ZM40.6409 110.695C40.6165 110.695 40.5909 110.695 40.5665 110.694C40.4979 111.05 40.4223 111.406 40.363 111.763C40.3444 111.878 40.234 112.046 40.4316 112.1C40.5526 112.133 40.7107 112.127 40.8223 112.075C40.956 112.014 40.8595 111.873 40.8409 111.769C40.777 111.41 40.7072 111.053 40.6398 110.694L40.6409 110.695Z" fill="#251F1D"/>
<path d="M6.92836 112.982C6.97254 113.093 6.92139 113.17 6.7714 113.185C6.58887 113.203 6.47376 113.13 6.45051 112.943C6.41795 112.688 6.39586 112.481 6.02381 112.474C5.632 112.468 5.58433 112.672 5.55177 112.96C5.52968 113.153 5.39597 113.21 5.21809 113.18C4.99486 113.142 5.09019 112.986 5.11577 112.868C5.3204 111.894 5.52736 110.92 5.73547 109.947C5.76803 109.796 5.80174 109.646 6.018 109.657C6.16333 109.664 6.22495 109.745 6.25169 109.864C6.47725 110.892 6.69932 111.922 6.92953 112.983L6.92836 112.982ZM6.03311 110.677C6.00986 110.684 5.98661 110.69 5.96335 110.697C5.89243 111.068 5.81918 111.439 5.75407 111.812C5.73663 111.913 5.65874 112.057 5.81918 112.099C5.94243 112.131 6.09473 112.133 6.211 112.089C6.34819 112.037 6.2703 111.894 6.25169 111.79C6.18193 111.418 6.10752 111.048 6.03428 110.677H6.03311Z" fill="#251F1D"/>
<path d="M83.9686 111.375C83.9686 111.087 83.9686 110.799 83.9686 110.511C83.9686 109.576 84.0279 109.528 84.9708 109.65C85.115 109.669 85.2429 109.671 85.2359 109.863C85.2301 110.046 85.1069 110.061 84.9615 110.081C84.7895 110.105 84.5197 109.953 84.4662 110.211C84.4093 110.487 84.4279 110.789 84.4732 111.07C84.4988 111.233 84.7023 111.147 84.8267 111.163C84.9697 111.182 85.1545 111.117 85.1662 111.359C85.1778 111.588 85.0185 111.599 84.8569 111.588C84.1488 111.537 84.5279 112.069 84.4558 112.345C84.3628 112.702 84.5441 112.824 84.8964 112.782C85.029 112.765 85.2348 112.708 85.2534 112.949C85.2743 113.234 85.0499 113.166 84.8895 113.175C84.274 113.21 83.9671 112.917 83.9686 112.296C83.9686 111.988 83.9686 111.682 83.9686 111.374V111.375Z" fill="#251F1D"/>
<path d="M17.6166 111.183C17.7736 110.656 17.9027 110.294 17.984 109.922C18.041 109.664 18.2015 109.594 18.3979 109.669C18.6258 109.757 18.4479 109.933 18.4049 110.055C18.0898 110.962 17.7329 111.859 17.8585 112.851C17.8829 113.045 17.841 113.193 17.5876 113.181C17.3667 113.169 17.3388 113.033 17.3597 112.866C17.4887 111.855 17.126 110.939 16.8167 110.01C16.7772 109.891 16.6074 109.716 16.8842 109.657C17.083 109.616 17.1992 109.692 17.2504 109.911C17.3376 110.282 17.4597 110.645 17.6166 111.183Z" fill="#251F1D"/>
<path d="M56.3101 111.037C56.4124 110.669 56.5228 110.302 56.6158 109.931C56.6728 109.701 56.8054 109.587 57.0274 109.665C57.2716 109.75 57.0879 109.924 57.0495 110.035C56.7309 110.958 56.3612 111.868 56.4879 112.878C56.5089 113.044 56.4891 113.179 56.2577 113.178C56.0496 113.178 55.9787 113.086 56.0043 112.898C56.1391 111.868 55.7694 110.938 55.4462 109.997C55.4113 109.896 55.273 109.729 55.4869 109.666C55.6601 109.615 55.8252 109.638 55.8834 109.873C55.9787 110.258 56.0961 110.639 56.2043 111.022C56.2391 111.026 56.274 111.031 56.3089 111.037H56.3101Z" fill="#251F1D"/>
<path d="M91.9142 111.024C92.02 110.661 92.1398 110.3 92.2247 109.932C92.2816 109.688 92.4223 109.587 92.6362 109.669C92.8513 109.752 92.7014 109.934 92.6583 110.053C92.3316 110.958 91.9828 111.856 92.1107 112.85C92.1363 113.049 92.0944 113.185 91.8421 113.178C91.6015 113.172 91.6073 113.016 91.6259 112.861C91.7526 111.847 91.362 110.935 91.0643 110.003C91.0318 109.901 90.8632 109.746 91.0806 109.67C91.2503 109.611 91.4247 109.626 91.4852 109.861C91.5864 110.25 91.7015 110.638 91.8096 111.027L91.9131 111.024H91.9142Z" fill="#251F1D"/>
<path d="M36.01 111.451C36.01 111.104 36.01 110.758 36.01 110.411C36.01 109.705 36.4332 109.424 37.1262 109.661C37.2378 109.699 37.2785 109.753 37.282 109.861C37.2878 110.05 37.1599 110.063 37.0157 110.084C36.8401 110.109 36.5681 109.965 36.5111 110.208C36.4472 110.481 36.4634 110.787 36.5146 111.067C36.5506 111.26 36.7774 111.156 36.9169 111.164C37.0866 111.175 37.2262 111.178 37.211 111.405C37.1982 111.602 37.068 111.607 36.9262 111.596C36.1809 111.531 36.5727 112.094 36.4972 112.385C36.3879 112.803 36.6809 112.799 36.9727 112.784C37.118 112.777 37.3029 112.74 37.2959 112.987C37.2889 113.236 37.0971 113.171 36.9576 113.18C36.3259 113.224 36.01 112.936 36.01 112.318C36.01 112.028 36.01 111.74 36.01 111.451Z" fill="#251F1D"/>
<path d="M9.62927 112.785C9.86877 112.825 10.0583 112.809 10.178 112.616C10.3164 112.394 10.2804 112.172 10.135 111.969C9.899 111.642 9.62694 111.338 9.41766 110.995C9.20141 110.643 9.2142 110.255 9.45487 109.908C9.65368 109.621 9.95714 109.576 10.2827 109.628C10.4396 109.654 10.6013 109.68 10.5954 109.891C10.5885 110.195 10.3873 110.008 10.2676 110.009C9.78623 110.017 9.59439 110.36 9.86296 110.794C10.085 111.153 10.3803 111.466 10.5943 111.828C10.8047 112.184 10.7919 112.578 10.528 112.911C10.3071 113.19 9.99434 113.277 9.64206 113.188C9.46649 113.144 9.28744 113.088 9.3386 112.853C9.39208 112.609 9.55834 112.826 9.62694 112.784L9.62927 112.785Z" fill="#251F1D"/>
<path d="M2.18467 109.651C2.30093 109.651 2.41836 109.635 2.53114 109.655C2.6788 109.68 2.90552 109.537 2.94505 109.819C2.98225 110.082 2.79623 110.07 2.61485 110.083C2.33814 110.101 2.42417 110.326 2.42301 110.48C2.41603 111.19 2.43347 111.9 2.41138 112.61C2.40557 112.813 2.59508 113.185 2.15444 113.167C1.72774 113.149 1.93469 112.785 1.92772 112.584C1.90214 111.875 1.91725 111.163 1.91842 110.453C1.91842 110.259 1.94981 110.045 1.6417 110.075C1.47428 110.091 1.39289 110.024 1.39406 109.848C1.39522 109.595 1.58008 109.658 1.72193 109.653C1.87656 109.647 2.03003 109.651 2.18467 109.651Z" fill="#251F1D"/>
<path d="M13.502 111.619C13.502 111.254 13.502 110.888 13.502 110.524C13.502 110.297 13.5613 110.037 13.1799 110.077C13.0381 110.092 12.9788 109.995 12.9753 109.86C12.9695 109.663 13.0997 109.655 13.2462 109.656C13.5938 109.659 13.9415 109.655 14.2891 109.659C14.403 109.659 14.5251 109.656 14.5379 109.823C14.5507 109.988 14.4856 110.089 14.3147 110.077C13.9461 110.051 13.988 110.298 13.9891 110.532C13.9926 111.301 13.9891 112.07 13.9915 112.838C13.9915 113.014 14.0194 113.188 13.7426 113.184C13.4648 113.181 13.502 113.002 13.502 112.829C13.502 112.425 13.502 112.022 13.502 111.618V111.619Z" fill="#251F1D"/>
<path d="M47.869 111.63C47.869 111.285 47.8714 110.94 47.869 110.595C47.8667 110.343 47.9609 110.028 47.5075 110.067C47.3656 110.08 47.3226 109.96 47.3272 109.83C47.3331 109.667 47.4516 109.659 47.5702 109.658C47.9365 109.656 48.3027 109.656 48.6678 109.658C48.7841 109.658 48.8992 109.667 48.9061 109.833C48.9131 110.005 48.8317 110.093 48.669 110.076C48.3469 110.042 48.3469 110.233 48.3492 110.467C48.3585 111.252 48.3539 112.038 48.3515 112.824C48.3515 112.987 48.405 113.18 48.1202 113.181C47.8528 113.181 47.8667 113.016 47.8679 112.837C47.8702 112.434 47.8679 112.032 47.869 111.629V111.63Z" fill="#251F1D"/>
<path d="M87.6985 111.393C87.6985 110.952 87.6903 110.513 87.7019 110.072C87.7066 109.907 87.602 109.667 87.931 109.657C88.26 109.645 88.181 109.878 88.1821 110.051C88.1879 110.797 88.1972 111.544 88.1775 112.29C88.1682 112.632 88.2135 112.848 88.6332 112.786C88.7576 112.767 88.9658 112.701 88.9844 112.951C89.0053 113.234 88.7914 113.172 88.6286 113.182C88.5902 113.185 88.5519 113.182 88.5135 113.182C87.9694 113.19 87.6973 112.919 87.6973 112.369C87.6973 112.044 87.6973 111.718 87.6973 111.393H87.6985Z" fill="#251F1D"/>
<path d="M44.509 111.225C44.509 111.512 44.5241 111.801 44.5055 112.087C44.4776 112.517 44.4543 112.917 45.0961 112.784C45.2217 112.758 45.3124 112.822 45.3136 112.975C45.3136 113.123 45.2426 113.181 45.1043 113.182C44.8159 113.182 44.5264 113.183 44.2381 113.185C44.0056 113.185 44.023 113.02 44.023 112.865C44.023 111.908 44.023 110.95 44.023 109.992C44.023 109.814 44.0056 109.647 44.2799 109.657C44.5636 109.667 44.5067 109.858 44.5078 110.019C44.5125 110.421 44.509 110.823 44.509 111.225Z" fill="#251F1D"/>
<path d="M24.9565 112.134C24.7984 112.093 24.524 112.204 24.5716 111.933C24.6228 111.642 24.9146 111.789 25.1007 111.773C25.2472 111.76 25.5111 111.692 25.4646 111.969C25.4111 112.283 25.1134 112.047 24.9577 112.134H24.9565Z" fill="#251F1D"/>
<path d="M63.6767 112.135C63.5233 112.066 63.2361 112.258 63.2175 111.966C63.1966 111.655 63.4896 111.777 63.6477 111.777C63.8105 111.777 64.093 111.652 64.1093 111.937C64.1279 112.249 63.8314 112.076 63.6767 112.135Z" fill="#251F1D"/>
<path d="M2.89852 45.0107C2.89852 33.1858 2.89271 21.362 2.90201 9.53711C2.9055 5.53378 5.65403 2.16316 9.56406 1.31878C10.1524 1.19154 10.7477 1.13949 11.3511 1.14064C35.1182 1.14296 58.8853 1.13833 82.6525 1.14527C87.4403 1.14643 91.1585 4.83745 91.1608 9.61114C91.1713 33.2413 91.1724 56.8703 91.1608 80.5005C91.1585 85.3147 87.4415 88.9768 82.6083 88.9779C58.8795 88.9826 35.1519 88.9837 11.4232 88.9779C6.58765 88.9768 2.9055 85.3066 2.90201 80.4843C2.89271 68.6594 2.89969 56.8356 2.89969 45.0107H2.89852ZM64.2592 39.9421C64.2196 39.7142 64.0522 39.7327 63.8859 39.7512C63.1279 39.3811 62.1431 39.4736 61.5513 38.6315C61.9024 38.5159 62.1989 38.5945 62.4942 38.6454C64.3371 38.96 66.1775 38.9346 67.9971 38.5182C68.2982 38.4488 68.697 38.4661 68.9098 38.1318C69.8399 37.919 70.6329 37.4239 71.3956 36.8884C72.6896 35.9792 73.6976 34.8121 74.5196 33.4634C75.194 32.3564 75.6765 31.1951 75.8672 29.9135C76.0369 28.7765 75.9265 27.6626 75.6358 26.5591C75.6777 26.2826 75.5533 25.9923 75.7137 25.6927C75.9079 25.7806 76.0276 25.9009 76.0939 26.0929C76.3753 26.9026 76.6648 27.6961 76.831 28.5532C77.0019 29.4369 77.0054 30.3438 77.2507 31.2113C77.2856 31.3339 77.1973 31.5121 77.3449 31.5757C77.5321 31.6566 77.6123 31.4704 77.6984 31.3559C78.3483 30.4965 78.3832 29.4312 78.6262 28.4468C78.8761 27.4324 78.325 26.4261 78.4029 25.3943C78.4064 25.3434 78.3704 25.2867 78.346 25.2358C77.7716 24.0271 77.0508 22.9213 76.052 22.0098C75.8648 21.8397 75.6963 21.6512 75.4056 21.7125C75.1649 21.5621 74.9219 21.4129 74.6824 21.2602C72.8536 20.0978 71.0328 18.9307 69.5702 17.2974C67.5541 15.0453 67.1356 12.5249 68.4226 9.99979C69.4969 7.88997 71.3595 6.95305 73.6244 6.70783C74.5057 6.61182 75.3986 6.65231 76.2671 6.90678C76.5903 7.00163 76.7799 6.93917 76.8252 6.51466C76.8996 5.81833 77.2496 5.21569 77.6949 4.67435C77.8588 4.47425 78.0565 4.29496 78.1262 4.02082C77.8646 3.90862 77.6112 3.95026 77.3647 3.95026C73.3384 3.94795 69.3121 3.94911 65.2858 3.94911C64.8207 3.94911 64.3568 3.95373 63.8918 3.94564C63.4999 3.9387 63.3476 4.06478 63.5267 4.46615C63.822 5.12547 64.0964 5.79404 64.3789 6.45914C64.3231 6.70783 64.5242 6.85242 64.6184 7.04096C64.5998 7.07682 64.5998 7.11383 64.6184 7.15084C64.7358 7.44696 64.8242 7.75927 64.9765 8.03687C65.266 8.56549 65.2614 9.20745 65.6485 9.69327V9.69674C65.5974 10.2843 65.852 10.8234 65.9543 11.3832C66.3275 13.4248 66.1322 15.3969 65.4985 17.3575C65.2939 17.9926 64.8475 18.5154 64.7231 19.1782C64.1115 20.0793 63.4546 20.9421 62.7082 21.7391C61.3502 23.1896 59.8201 24.4828 58.6295 26.0871C57.8227 27.1744 57.0855 28.2976 56.9076 29.6856C56.6984 29.9031 56.6391 30.1714 56.6135 30.4618C56.46 32.161 56.6577 33.815 57.3529 35.3789C57.5657 35.8589 57.6843 36.4384 58.218 36.7322L58.2215 36.7369C58.2424 36.8086 58.2459 36.893 58.2866 36.9508C59.4806 38.6003 61.1107 39.5742 63.0907 40.0022C63.6371 40.4071 64.2475 40.1445 64.9521 40.244C64.701 39.9756 64.5022 39.9617 64.2964 39.9652L64.2615 39.9478L64.2592 39.9421ZM85.3812 39.5037C85.1313 39.5314 84.8406 39.4389 84.6801 39.735H84.6836C83.7884 39.7177 82.9141 39.971 81.9339 39.8368C82.1676 40.215 82.2769 40.525 82.592 40.6754L82.5897 40.6731C82.6711 40.9542 82.7676 41.226 83.0594 41.366V41.3636C83.3815 42.0183 83.6721 42.6904 84.0384 43.3196C84.2825 43.7383 84.2953 44.2658 84.6836 44.6082C84.9185 45.3473 85.1522 46.0853 85.3882 46.8233C85.8323 48.209 86.0067 49.6514 86.309 51.0672C86.3032 51.1817 86.2928 51.2974 86.2939 51.4119C86.3207 53.5229 86.4532 55.6304 86.1277 57.7402C85.8777 59.3572 85.4231 60.8968 84.8104 62.4017C84.7569 62.5312 84.6755 62.6561 84.7859 62.7672C84.8801 62.862 85.0022 62.773 85.108 62.7383C85.9021 62.4803 86.7113 62.3311 87.5531 62.3427C88.36 62.3542 88.3658 62.338 88.3658 61.5376C88.3658 53.7796 88.3646 46.0217 88.3635 38.2637C88.3635 38.1099 88.3716 37.9537 88.3518 37.8022C88.3239 37.587 88.1507 37.5234 88.0309 37.6726C87.6705 38.1214 87.0892 38.3215 86.7741 38.812L86.7764 38.8097C86.2753 38.9704 85.8137 39.2087 85.3789 39.5037H85.3824H85.3812ZM65.6241 62.1761V62.1784C65.652 61.9841 65.6427 61.8152 65.4799 61.6567C64.7684 60.965 64.0638 60.2641 63.3686 59.555C63.2128 59.3954 63.0442 59.3734 62.8477 59.3931L62.85 59.3954C62.7593 58.883 62.228 59.0415 61.9664 58.8217C61.2316 58.2029 60.2956 58.2121 59.462 58.1242C58.5679 58.0293 57.8099 59.0958 57.7622 59.9252C57.6413 62.0142 57.9029 64.0615 58.3935 66.11C58.7319 67.5224 58.3563 68.9648 57.7971 70.31C57.5413 70.9242 57.0355 71.3915 56.6774 71.9375C55.8798 73.1543 54.7335 73.9559 53.5696 74.7344C52.7279 75.2977 51.8617 75.8309 50.856 76.1178C50.5711 76.1988 50.0828 76.127 49.9712 76.6013C49.834 76.6186 49.6852 76.592 49.5771 76.7123C48.6388 76.6661 47.7389 76.9761 46.8006 77.0177C46.3774 77.0362 45.8472 77.1125 45.381 77.3231C44.4776 77.7314 43.6045 78.2079 42.8743 78.8441C42.4976 79.1715 41.9628 79.5416 41.9465 80.1836C40.9617 81.7289 40.2781 83.3795 40.0293 85.2106C39.9258 85.9763 39.8619 85.9671 40.642 86.011C40.7385 86.0168 40.8338 86.0353 40.9303 86.0353C45.3752 86.0272 49.8201 86.018 54.2637 86.0075C54.8079 86.006 55.0268 85.7427 54.9207 85.2175C54.909 85.1608 54.8951 85.1053 54.8811 85.0498C54.63 84.025 54.6742 83.0024 54.8625 81.9707C55.102 80.6544 55.7264 79.5023 56.3519 78.3467C56.903 77.9165 57.1704 77.2652 57.6169 76.7517C59.3667 74.739 61.342 72.9438 63.2093 71.0468C63.515 70.7357 63.8429 70.4396 64.0162 70.0243C64.1475 70.0174 64.2057 69.9179 64.2859 69.8334C65.1916 68.878 65.8253 67.756 66.3299 66.5542C66.7926 66.368 66.4275 65.9238 66.6031 65.6659C67.1065 64.9244 66.6135 64.2512 66.4473 63.5769C66.3647 63.2403 66.3264 62.7776 65.8648 62.6295C65.8439 62.6133 65.8357 62.5914 65.8392 62.5648C65.8776 62.3751 65.9159 62.1854 65.623 62.1807L65.6241 62.1761ZM15.6901 38.842L15.6715 38.8351C15.2425 38.4812 14.7635 38.2463 14.0403 38.1365C14.7181 38.7669 15.3646 39.1694 15.8889 39.7119C16.1203 39.9513 16.3156 40.2428 16.6435 40.377C17.2341 41.1057 17.7876 41.8529 18.0852 42.7609C18.1747 43.0316 18.2875 43.2375 18.6898 43.0085C19.2176 42.7066 19.8222 42.5701 20.4384 42.4613C21.4779 42.2774 22.4998 42.4162 23.5439 42.4428C21.6476 41.4677 19.7106 40.5933 17.7538 39.7593C17.1214 39.3313 16.4807 38.9207 15.6913 38.842H15.6901ZM6.64578 42.2821C6.65043 42.4544 6.60858 42.643 6.66555 42.7956C7.09922 43.9685 6.97598 45.2409 7.33873 46.4254C7.53638 47.0696 7.49685 47.7926 7.84565 48.3721C8.11422 48.8174 8.11422 49.4721 8.74555 49.6722L8.74322 49.6687C8.72113 49.8654 8.74439 50.0308 8.90134 50.1916C9.5129 50.815 10.3314 51.1979 11.0848 51.4581C11.8824 51.7334 12.8404 51.5796 13.731 51.7207C14.1996 51.7947 14.7205 51.4304 15.2355 51.7473C15.3553 51.8213 15.525 51.723 15.6622 51.6328C16.1784 51.2927 16.5145 50.8729 16.3994 50.2078C16.3226 49.7624 16.4924 49.6687 16.8679 49.9093C16.89 50.3477 16.6935 50.8775 17.3423 51.0614C17.5202 51.2731 17.6911 51.3922 18.0248 51.3425C19.4246 51.1308 20.6965 50.6704 21.736 49.678C22.0592 49.5947 22.3138 49.3437 22.3905 49.0858C22.658 48.1905 23.0149 47.316 22.9242 46.3317C22.8486 45.5173 22.7056 45.2872 21.8778 45.2964C20.8791 45.3068 19.9025 45.3751 19.0084 45.9442C18.641 46.1778 18.3794 46.4959 18.0538 46.7562C17.7829 46.9736 17.6132 46.984 17.5562 46.585C17.5097 46.2519 17.4155 45.9361 17.0876 45.7556V45.7579C17.1702 45.4988 17.5109 45.2663 17.1214 44.9668C16.7516 44.6822 16.5691 44.2623 16.3761 43.8436C15.9099 42.8246 14.9751 42.1988 14.2252 41.4192C14.1543 41.3451 13.9705 41.3775 13.8392 41.3613H13.8403C13.3369 40.6523 12.6021 40.296 11.8487 39.8912C10.5616 39.1995 9.14899 39.1243 7.78286 38.8467C7.02248 38.6928 6.20397 38.8247 5.4122 38.8108C5.10642 38.805 5.04015 38.9427 5.00061 39.2226C4.94713 39.6008 5.16455 39.9131 5.29244 40.1827C5.49358 40.6083 5.65636 41.1439 6.18769 41.3509L6.18537 41.3475C6.30163 41.676 5.83424 42.289 6.64462 42.2797L6.64578 42.2821ZM80.7445 25.178C80.6225 24.6147 80.2585 24.2052 79.8574 23.8246C79.7411 23.7148 79.6005 23.5008 79.4272 23.6349C79.2959 23.7367 79.361 23.9681 79.411 24.13C79.8167 25.429 79.8481 26.7638 79.8737 28.109C79.89 29.0043 79.5737 29.8453 79.5784 30.729C79.2331 30.9314 79.3819 31.3189 79.2517 31.6081C78.925 32.3345 78.6564 33.0828 78.5797 33.8914C78.4506 35.2609 79.0424 36.3713 80.2667 36.9763C81.7526 37.7096 83.2687 37.779 84.7697 37.1417C85.987 36.6258 87.1124 35.9341 87.7066 34.656C88.2437 33.9365 88.4681 33.1326 88.4204 32.235C88.3576 31.0424 88.1623 29.8938 87.4926 28.8713C87.2729 28.035 86.6299 27.6082 85.9056 27.2774C85.5056 27.0946 85.0917 26.9639 84.6336 27.1513C83.5163 27.6094 83.207 28.8621 83.9697 29.8487C84.4697 30.4953 85.1603 30.9106 85.7893 31.4045C86.2567 31.7735 86.3776 32.25 86.0474 32.7254C85.5952 33.3778 85.0045 33.896 84.1558 33.9851C83.464 34.0568 82.7792 34.0383 82.1339 33.7306H82.1351C81.8677 33.3211 81.4991 32.9579 81.4433 32.4443C81.327 31.3675 81.2898 30.2721 81.5072 29.2206C81.7002 28.2883 81.5212 27.415 81.3584 26.5406C81.2712 26.0709 81.1829 25.5238 80.7434 25.178H80.7445ZM87.4717 69.3257C87.2252 69.3083 86.9834 69.2979 87.0078 69.6565C86.5416 69.9098 86.0637 70.1434 85.6126 70.4211C83.9895 71.417 82.6966 72.7715 81.5468 74.2601C80.5643 75.5313 79.7016 76.8939 79.1482 78.4023C78.2274 80.9111 77.0833 83.3009 75.5788 85.5148C75.466 85.6802 75.3149 85.8537 75.3719 86.0284C75.4474 86.2632 75.7067 86.1579 75.8846 86.1591C77.8786 86.166 79.8714 86.1625 81.8653 86.1637C82.4316 86.1637 83.0013 86.077 83.5163 85.8884C86.0939 84.9457 87.5426 83.0163 88.196 80.4253C88.5553 80.3108 88.4041 80.0066 88.4053 79.7903C88.4158 76.2797 88.4146 72.7703 88.41 69.2597C88.41 69.0758 88.5041 68.8202 88.3274 68.723C88.1309 68.6143 87.9472 68.841 87.7751 68.9335C87.6438 69.0041 87.4694 69.1151 87.4763 69.3245L87.474 69.3268L87.4717 69.3257ZM33.5893 55.6882C33.4684 54.801 33.3486 53.9115 33.2277 53.022C32.9836 51.2314 33.1661 49.4837 33.7021 47.7602C33.9358 47.0106 34.2706 46.3155 34.6589 45.6388C34.7531 45.4745 34.7636 45.2189 34.4904 45.3415C34.1892 45.4769 33.8044 45.4456 33.5823 45.751C33.5137 45.7822 33.4475 45.8308 33.3754 45.8435C31.1396 46.2195 28.9421 46.2333 26.8563 45.1703C26.7447 44.8372 26.4308 44.7666 26.1552 44.6938C26.039 44.6637 25.9692 44.8846 25.9797 45.0084C26.0669 46.046 25.6669 47.0361 25.6925 48.0655C25.3728 48.8752 25.1414 49.7358 24.524 50.3905C24.2438 50.6866 24.3368 50.8497 24.6066 51.0718C25.7669 52.0319 26.9063 53.0151 28.0655 53.9751C29.0468 54.7883 30.0455 55.5806 31.0361 56.3811C31.6872 57.1607 32.5452 57.7008 33.3149 58.3428C33.3161 58.344 33.3405 58.3185 33.3544 58.3046C33.4254 58.3613 33.4963 58.4168 33.5684 58.4735C33.8811 58.8992 34.2555 59.2473 34.8647 59.5088C34.5636 58.4724 34.1916 57.5829 33.9114 56.6668C33.8125 56.344 33.9741 55.9161 33.5916 55.6847L33.5893 55.6882ZM60.5328 4.83976C60.4119 4.36205 60.2491 3.92481 59.6341 3.92481C57.7831 3.92713 55.931 3.92481 54.0801 3.93291C53.9196 3.93291 53.7057 3.8531 53.6103 4.04627C53.515 4.23828 53.7068 4.35973 53.7987 4.49507C54.8358 6.02075 55.8426 7.56147 56.6844 9.20745C56.9635 9.75341 57.1018 10.3722 57.5111 10.8534C57.7308 11.6828 58.0587 12.4774 58.2796 13.3114C58.9121 15.7046 59.0016 18.1279 58.8551 20.5755C58.8458 20.7397 58.7214 20.9514 58.9283 21.0405C59.1086 21.118 59.233 20.9248 59.3609 20.8138C59.841 20.3962 60.2468 19.9138 60.6328 19.4107C61.935 17.7127 62.6942 15.8226 62.8919 13.6792C63.0477 11.9974 62.8105 10.378 62.3384 8.78873C62.1245 8.06926 61.9327 7.31741 61.4711 6.68817C61.3281 5.98721 61.0037 5.37763 60.534 4.84092L60.5328 4.83976ZM33.3614 73.2607C33.1649 73.1543 32.9847 73.2607 32.808 73.3139C32.0499 73.543 31.2954 73.7812 30.542 74.0242C27.5481 74.9912 24.6438 76.2288 21.5534 76.8997C18.9619 77.463 16.3738 78.0391 13.6903 77.6423C13.3346 77.5903 12.9753 77.5683 12.5056 77.522C12.8358 77.9893 13.1869 78.2843 13.5706 78.526C16.8993 80.6173 20.3477 81.3495 24.0473 79.4641C27.3342 77.7892 30.2873 75.6181 33.2324 73.4308C33.2858 73.3903 33.3114 73.3128 33.351 73.2526L33.4335 73.1971C33.4161 73.1913 33.3963 73.1775 33.38 73.1809C33.3242 73.1925 33.3184 73.2214 33.3614 73.2607ZM30.578 4.29149C31.7604 4.41178 32.9301 4.30537 34.0939 4.10063C34.9136 4.17698 35.7286 4.17119 36.4622 3.97918C36.5111 3.95026 36.4948 3.96877 36.4773 3.96877C28.4724 3.96299 20.4675 3.95489 12.4626 3.95142C12.1777 3.95142 11.8847 3.89358 11.6069 4.01272C11.4162 4.03933 11.222 4.05321 11.0348 4.09601C8.13166 4.74954 5.75053 7.76042 5.74356 10.828C5.73193 16.0817 5.74007 21.3343 5.74588 26.588C5.74588 26.7002 5.65984 26.8517 5.86796 26.9651C6.27838 25.9125 7.03295 25.1548 7.97122 24.5788C9.40013 23.7009 10.15 22.395 10.4884 20.7999C10.8907 18.904 10.9569 16.9851 10.9337 15.0592C10.9209 13.9187 10.9988 12.7897 11.2988 11.6863C11.9185 9.40178 13.2044 7.75348 15.5855 7.03517C17.5295 6.44873 19.4792 5.91318 21.472 5.52684C23.5985 5.1139 25.7506 4.8895 27.8957 4.60842C28.6526 4.58298 29.4095 4.5448 30.1548 4.39675L30.4501 4.38171C30.528 4.40253 30.5617 4.36205 30.5768 4.2938L30.578 4.29149ZM37.8853 56.9594L37.9411 57.0462C37.9481 57.0288 37.9621 57.0091 37.9586 56.9941C37.9481 56.9397 37.9179 56.9316 37.876 56.9698C37.9644 56.72 37.8784 56.4736 37.8458 56.2318C37.7156 55.2706 37.7086 54.3106 37.8888 53.3574C38.2039 51.6999 38.9864 50.3442 40.4967 49.4073C40.4967 49.5207 40.5083 49.5774 40.4955 49.6283C39.8619 52.0504 39.7874 54.4991 40.2165 56.9559C40.5513 58.868 41.2012 60.6481 42.7953 61.9182C43.8056 62.7232 44.9752 63.0517 46.3693 63.0205C45.4252 61.8592 44.7509 60.677 44.3439 59.3595C43.6475 57.1098 43.5498 54.8924 44.7939 52.7733C44.9822 52.4529 45.1752 52.1244 45.5449 51.8861C45.9007 53.4893 46.2844 55.0393 46.5832 56.6066C46.9657 58.6123 47.6738 60.4538 49.0643 61.991C49.9177 62.9337 50.8827 63.7319 52.1326 64.0881C53.5476 64.4907 54.3358 63.7654 54.0859 62.3288C53.8975 61.2484 53.4104 60.2872 52.8581 59.3561C51.4094 56.9154 50.1305 54.3938 49.2294 51.6976C48.3749 49.1401 47.8133 46.5364 48.0958 43.8158C48.3319 41.5418 49.1759 39.4574 50.1351 37.4124C51.4501 34.6062 52.9941 31.9111 54.2021 29.0518C56.1845 24.3637 56.8332 19.5796 55.2997 14.6324C54.33 11.5047 53.0139 8.54235 50.9316 5.9687C50.3456 5.24461 49.6701 4.61421 48.8399 4.16309C48.5574 4.00925 48.4132 4.00231 48.3377 4.3794C47.8563 6.76219 47.7749 9.15077 48.1609 11.5555C48.5446 13.9441 49.3875 16.1997 50.1572 18.4784C50.62 19.8479 51.0339 21.2279 51.1234 22.6841C51.2885 25.3989 50.3514 27.7898 48.9329 30.0292C46.9901 33.0956 44.7357 35.9376 42.5162 38.805C40.7455 41.093 38.9492 43.3647 37.5842 45.9291C36.6983 47.5925 36.0344 49.3321 35.9774 51.243C35.9146 53.3748 36.5483 55.2857 37.8865 56.9582L37.8853 56.9594ZM36.06 69.6715C36.5832 68.4894 35.7739 67.9457 35.1089 67.3361C32.6452 65.0771 30.0757 62.943 27.4516 60.8737C25.6472 59.4509 23.845 58.0259 21.8732 56.8275C21.3139 56.4875 20.814 56.4424 20.2675 56.8229C19.8246 57.1317 19.3444 57.3885 18.9014 57.6962C15.8052 59.85 12.8765 62.2166 9.99657 64.6445C8.72695 65.7144 7.46081 66.7902 6.30047 67.9804C6.05515 68.2326 5.86331 68.4824 5.86447 68.8792C5.87726 72.7506 5.84587 76.6209 5.87842 80.4924C5.90517 83.6583 8.3828 86.0573 11.5522 86.0619C13.3904 86.0642 15.2297 86.0619 17.0679 86.0619C22.1382 86.0619 27.2098 86.0654 32.2801 86.0584C34.2509 86.0561 35.4623 85.1979 35.9774 83.442C36.1123 82.9828 36.1925 82.5039 36.253 82.0285C36.518 79.9522 36.2657 77.8736 36.2495 75.7962C36.2413 74.7806 36.2355 74.7725 37.1994 74.407C39.0701 73.6968 41.0199 73.6864 42.9813 73.7709C44.9904 73.8576 46.9948 74.1179 49.0108 73.9548C49.9468 73.8784 50.849 73.6841 51.6396 73.1428C52.1396 72.8004 52.5 72.3597 52.6802 71.7027C50.1782 72.8628 49.2736 73.0745 47.3168 72.9739C45.8868 72.8998 44.4555 72.8409 43.0278 72.7472C38.948 72.4811 35.2566 73.4724 31.9872 75.979C30.2873 77.2826 28.5375 78.5249 26.7133 79.6584C24.4845 81.043 22.1941 82.0655 19.4339 81.9383C15.8843 81.774 13.0462 80.2541 10.6407 77.8239C9.40245 76.5735 9.56174 75.8494 11.0744 74.9657C13.5264 73.5337 16.1564 72.5332 18.9212 71.8889C19.2037 71.823 19.3002 71.742 19.3037 71.4517C19.3141 70.5807 19.2653 69.7213 18.9979 68.8838C18.6968 67.9388 18.5828 66.9683 18.6247 65.9782C18.6712 64.9048 19.2583 64.176 20.1989 63.4982C20.1989 64.0696 20.1966 64.523 20.1989 64.9776C20.2024 65.6474 20.3443 66.2824 20.7582 66.8249C21.6011 67.9307 22.3185 69.1198 23.0788 70.2799C23.3125 70.6362 23.5532 70.8305 24.0159 70.7484C24.3787 70.6836 24.7612 70.7357 25.1356 70.7357C24.7763 70.8745 24.4113 71.0052 24.0357 71.0364C23.552 71.0757 23.459 71.3036 23.4637 71.7466C23.4788 73.1069 22.9475 73.7477 21.6127 74.0716C20.5117 74.3388 19.3641 74.385 18.1817 74.8489C18.4712 73.9871 18.7223 73.2376 19.0014 72.4048C18.7468 72.4973 18.5886 72.5494 18.4352 72.613C16.4528 73.4319 14.4717 74.252 12.4905 75.0721C11.9045 75.315 11.8673 75.5394 12.33 75.9859C12.5137 76.1629 12.7393 76.2011 12.9718 76.2045C15.8785 76.252 18.7689 76.1872 21.622 75.5013C25.224 74.6361 28.6608 73.2943 32.1267 72.03C36.2378 70.5298 40.3397 68.9856 44.8392 68.8202C43.4917 68.4292 41.6442 68.6085 36.0565 69.6704L36.06 69.6715ZM82.9059 50.025C82.9536 49.9706 82.9978 49.9452 82.9966 49.9197C82.9361 47.729 82.5292 45.6145 81.2642 43.7811C79.0215 40.532 75.7567 39.2191 71.9153 39.0653C71.57 39.0514 71.4979 39.2561 71.4072 39.4956C70.8886 40.8651 70.8596 42.2855 70.9968 43.7117C71.327 47.1656 72.864 49.7694 76.2613 51.0707C77.2519 51.45 78.2041 51.9266 79.1075 52.4957C80.1365 53.1435 80.7201 54.0538 80.9399 55.2417C81.541 58.4828 79.3098 60.8274 76.0462 60.3254C74.1592 60.0351 72.6059 59.0958 71.3107 57.7228C69.7992 56.1196 68.7261 54.2261 67.7053 52.2991C66.7321 50.4622 65.995 48.5063 64.8614 46.7504C63.6441 44.8638 62.1396 43.2988 60.0015 42.4486C57.8622 41.5985 55.6543 41.6447 53.4255 41.957C53.1406 41.9975 53.1174 42.1872 53.0732 42.4024C52.8651 43.4295 52.8151 44.4671 52.886 45.5069C53.0825 48.3836 54.1998 50.756 56.7623 52.2887C58.6237 53.4026 60.6898 53.8756 62.8256 54.0966C62.9767 54.1116 63.1663 54.1868 63.3686 53.9277C60.5421 52.2493 57.7552 50.5235 56.8553 47.006C57.1262 47.0777 57.1367 47.2767 57.2076 47.419C57.6366 48.2714 58.2063 49.0175 58.8853 49.6872C59.7015 50.4911 60.6293 51.1551 61.5757 51.7878C65.616 54.4875 68.2959 58.1994 69.8736 62.7452C70.4364 64.3681 70.777 66.0175 70.4503 67.7329C69.9992 70.0972 68.6226 71.9039 66.8379 73.4296C65.7822 74.3318 64.6475 75.1438 63.5871 76.0414C62.6535 76.8315 62.7442 77.6874 63.7685 78.341C64.1952 78.6128 64.6638 78.7886 65.1509 78.9251C66.1938 79.2166 67.2577 79.242 68.3192 79.1171C70.505 78.8603 72.3083 77.9396 73.7 76.171C76.4648 72.6558 78.8517 68.9116 80.8643 64.9267C82.1165 62.4456 82.9757 59.8407 83.2396 57.0681C83.457 54.7871 83.4268 52.5154 82.3444 50.4067C81.0259 47.8354 79.3947 45.4838 77.2798 43.4862C77.2066 43.4168 77.0752 43.3647 77.1612 43.1369C80.1702 44.5434 81.7595 47.0951 82.9094 50.0262L82.9059 50.025ZM78.1576 9.94658C77.6914 9.64237 77.2577 9.32775 76.7961 9.06171C74.5975 7.79397 71.9571 8.40008 70.5689 10.4787C69.3911 12.2426 69.5248 14.3582 70.9468 16.2864C71.9978 17.7115 73.3884 18.7456 74.9045 19.6212C77.7786 21.2822 80.8992 22.3753 84.0093 23.488C84.7418 23.7506 84.7464 23.7529 84.9941 23.0462C86.1881 19.6328 87.4705 16.2402 87.8786 12.6139C88.0879 10.7586 88.0286 8.92175 87.238 7.17629C86.4137 5.35912 84.443 4.20011 82.5536 4.41988C80.3062 4.6813 78.8133 6.00571 78.3971 8.13866C78.2843 8.71933 78.2402 9.31271 78.1576 9.94543V9.94658ZM8.45605 36.2106C8.38977 35.9283 8.34559 35.7444 8.30257 35.5616C8.10027 34.693 7.98633 33.8197 8.1584 32.9302C8.22003 32.6098 8.3049 32.4409 8.68044 32.6537C9.21759 32.9579 9.78497 33.2066 10.3396 33.4808C14.1252 35.3581 18.0096 36.9636 22.1964 37.7258C26.99 38.5991 31.6372 38.2799 36.0193 35.9561C38.233 34.782 40.3944 33.5247 41.8198 31.3767C42.379 30.5346 43.0882 29.9031 43.9102 29.3375C46.26 27.7227 47.2064 25.4278 46.9797 22.6483C46.8355 20.8808 46.3263 19.1724 45.9449 17.4455C45.4043 14.9956 44.9101 12.5399 45.3182 10.0148C45.4275 9.34047 45.6228 8.68 45.7903 7.96169C45.6089 8.04497 45.4705 8.10165 45.338 8.17105C42.6348 9.5961 40.6153 11.6851 39.2724 14.4149C37.897 17.2106 37.461 20.1938 37.504 23.2752C37.5331 25.3145 37.6633 27.3549 37.4249 29.3918C37.0505 32.5924 35.4565 34.7693 32.2674 35.7224C29.313 36.605 26.325 36.686 23.3044 36.2742C18.1898 35.5778 13.4776 33.7676 9.06644 31.1315C8.76648 30.9522 8.79089 30.7637 8.89321 30.5115C9.242 29.6463 9.84891 28.9835 10.5616 28.4028C10.8081 28.2016 11.0616 28.0073 11.3557 27.7759C9.29665 27.6441 7.2992 28.8146 6.69694 30.4537C6.00515 32.3379 6.776 34.9949 8.45488 36.2094L8.45605 36.2106ZM68.175 86.1429C70.9375 86.1383 73.0791 84.9619 74.7103 82.3963C75.1452 81.7127 75.5114 80.991 75.8544 80.2588C76.6136 78.6382 77.2903 76.9784 78.1262 75.3925C80.0795 71.6899 82.606 68.5669 86.6253 66.9093C87.2113 66.6676 87.7577 66.3263 88.3042 65.999C88.7181 65.7515 89.0483 65.4068 88.9715 64.8758C88.8971 64.3634 88.5158 64.08 88.0635 63.9146C87.2264 63.6081 86.4241 63.7492 85.6661 64.1807C84.958 64.5844 84.3127 65.0748 83.7186 65.6312C81.0724 68.1077 79.0284 71.0491 77.1554 74.1167C76.3404 75.4504 75.5346 76.7864 74.4522 77.9303C72.5931 79.8956 70.3934 81.176 67.6123 81.2778C65.7102 81.3472 63.9313 80.8672 62.2501 80.0216C61.7943 79.7926 61.6222 79.7602 61.5292 80.3536C61.1967 82.4553 61.9966 84.1719 63.8673 85.199C65.1184 85.8861 66.4787 86.1278 68.1738 86.1417L68.175 86.1429ZM38.4364 67.4079C38.5457 66.8434 38.1062 66.5739 37.7772 66.2731C33.1696 62.0674 28.3678 58.093 23.3009 54.4459C21.3965 53.0752 21.1081 53.0845 19.113 54.3753C15.3111 56.8345 11.8057 59.6846 8.33513 62.5763C6.89692 63.7747 5.47149 64.9904 4.16931 66.3391C3.9019 66.6155 3.64611 66.8885 3.66704 67.3327C3.69262 67.9156 3.71355 67.9515 4.24372 67.7329C4.92853 67.4495 5.52498 67.0192 6.11444 66.5831C8.21305 65.0308 10.1431 63.2784 12.1277 61.5908C14.2601 59.7783 16.3738 57.9507 18.67 56.3348C20.2338 55.2348 21.6848 55.2035 23.2718 56.2527C24.8554 57.2995 26.3436 58.4596 27.7981 59.6695C30.4106 61.8418 32.8952 64.1622 35.574 66.2558C36.3041 66.826 37.0471 67.3812 37.9063 67.756C38.2737 67.9168 38.5178 67.9145 38.4364 67.4079ZM5.72495 50.4761C5.72495 50.8139 5.72495 51.1516 5.72495 51.4894C5.72495 54.2805 5.72495 57.0716 5.72495 59.8639C5.72495 60.0755 5.73077 60.2872 5.73077 60.4989C5.73077 60.7395 5.8168 60.8286 6.04003 60.6747C6.15049 60.5984 6.26094 60.5209 6.36442 60.4341C8.21072 58.883 10.0582 57.3342 11.8998 55.7784C12.5184 55.2556 13.1218 54.7166 13.8589 54.0746C12.1463 54.1359 10.65 54.004 9.21061 53.4164C7.7352 52.8138 6.67136 51.7693 5.72263 50.4761H5.72495ZM14.8577 14.2749C14.8821 15.6688 15.239 16.9735 15.9494 18.1753C16.3063 18.778 16.7435 19.317 17.3969 19.6328C18.4201 20.1267 19.3932 19.7554 19.8048 18.7016C19.9024 18.4541 19.9757 18.1869 20.0013 17.922C20.1885 15.9845 19.6978 14.2241 18.5654 12.6405C18.2817 12.2449 17.9259 11.9176 17.4806 11.7024C16.5121 11.2351 15.5529 11.5914 15.132 12.5769C14.9007 13.1194 14.8449 13.6908 14.8565 14.2738L14.8577 14.2749ZM79.7353 56.5823C79.7121 54.6425 78.4646 53.3609 76.6136 53.3771C74.6917 53.3945 73.2628 54.6981 73.2849 56.4146C73.3082 58.2052 74.8498 59.6441 76.7124 59.614C78.3773 59.5874 79.7551 58.2052 79.7353 56.5823ZM38.7945 36.9798C37.5772 38.6281 36.1785 40.0728 34.3939 41.1103C32.5952 42.156 30.6129 42.5435 28.4852 42.6268C29.6397 43.7083 31.8802 43.8656 34.0811 42.9807C36.7913 41.8911 38.1365 39.6887 38.7945 36.9798ZM38.5957 71.6229C40.7838 71.255 42.9034 71.4112 45.0218 71.5373C46.4518 71.6217 47.8831 71.6946 49.3085 71.5083C50.1491 71.3985 50.985 71.2504 51.6106 70.5575C49.7236 69.5026 40.3025 70.2579 38.5957 71.624V71.6229ZM26.6238 15.5334C26.6773 15.5334 26.7087 15.5392 26.7122 15.5334C26.7935 15.3599 26.8726 15.1853 26.9493 15.0094C28.0876 12.4127 29.7083 10.4567 32.8964 10.5932C33.1417 10.6036 33.1754 10.4983 33.0522 10.3248C32.9417 10.1687 32.8208 10.0148 32.6766 9.8899C31.1838 8.60019 28.341 9.13689 27.4644 10.8881C26.7308 12.3525 26.6691 13.9418 26.6226 15.5346L26.6238 15.5334Z" fill="#FCFCFA"/>
<path d="M36.0588 69.6704C41.6465 68.6097 43.494 68.4292 44.8415 68.8202C40.342 68.9856 36.2401 70.531 32.129 72.03C28.6631 73.2943 25.2262 74.6361 21.6243 75.5013C18.7711 76.186 15.8796 76.252 12.9741 76.2046C12.7416 76.2011 12.5149 76.1618 12.3323 75.9859C11.8696 75.5395 11.9056 75.3151 12.4928 75.0721C14.4739 74.252 16.4563 73.432 18.4375 72.613C18.5909 72.5494 18.7502 72.4973 19.0037 72.4048C18.7246 73.2376 18.4723 73.9872 18.184 74.8489C19.3676 74.3862 20.514 74.3388 21.615 74.0716C22.9509 73.7477 23.4811 73.1069 23.466 71.7466C23.4613 71.3036 23.5543 71.0769 24.038 71.0364C24.4124 71.0052 24.7786 70.8745 25.1379 70.7357C24.7635 70.7357 24.381 70.6836 24.0182 70.7484C23.5543 70.8317 23.3137 70.6362 23.0811 70.2799C22.3207 69.1198 21.6034 67.9307 20.7604 66.8249C20.3465 66.2824 20.2047 65.6474 20.2012 64.9776C20.1989 64.5231 20.2012 64.0696 20.2012 63.4982C19.2606 64.1761 18.6735 64.9048 18.627 65.9782C18.5839 66.9683 18.6979 67.9388 19.0002 68.8838C19.2676 69.7213 19.3164 70.5807 19.306 71.4517C19.3025 71.742 19.206 71.823 18.9234 71.8889C16.1586 72.5332 13.5287 73.5337 11.0766 74.9657C9.56518 75.8483 9.40473 76.5724 10.643 77.8239C13.0485 80.2542 15.8866 81.7741 19.4362 81.9383C22.1952 82.0655 24.4868 81.043 26.7156 79.6585C28.5398 78.526 30.2885 77.2826 31.9894 75.979C35.2588 73.4724 38.9503 72.4811 43.0301 72.7472C44.459 72.8409 45.8902 72.8999 47.3191 72.9739C49.2747 73.0745 50.1804 72.8629 52.6825 71.7027C52.5023 72.3597 52.1419 72.8004 51.6419 73.1428C50.8513 73.6841 49.9479 73.8784 49.0131 73.9548C46.9971 74.1179 44.9926 73.8576 42.9836 73.7709C41.0222 73.6864 39.0724 73.6968 37.2016 74.407C36.2366 74.7726 36.2436 74.7807 36.2518 75.7962C36.268 77.8737 36.5203 79.9511 36.2552 82.0285C36.1948 82.5039 36.1146 82.9828 35.9797 83.442C35.4646 85.1979 34.2531 86.0561 32.2824 86.0585C27.2121 86.0654 22.1405 86.0619 17.0702 86.0619C15.232 86.0619 13.3927 86.0642 11.5545 86.0619C8.38508 86.0573 5.90745 83.6583 5.88071 80.4924C5.84815 76.6221 5.87954 72.7507 5.86675 68.8792C5.86559 68.4824 6.05743 68.2326 6.30275 67.9804C7.46309 66.7902 8.72923 65.7145 9.99885 64.6445C12.8788 62.2166 15.8075 59.85 18.9037 57.6962C19.3467 57.3874 19.8268 57.1318 20.2698 56.8229C20.8163 56.4424 21.3174 56.4875 21.8754 56.8276C23.8462 58.0259 25.6494 59.4509 27.4539 60.8737C30.078 62.943 32.6475 65.0783 35.1112 67.3362C35.7762 67.9469 36.5854 68.4894 36.0622 69.6715L36.0588 69.6704Z" fill="#404548"/>
<path d="M82.9048 50.024C81.7549 47.093 80.1656 44.5413 77.1566 43.1347C77.0694 43.3626 77.202 43.4147 77.2752 43.4841C79.3901 45.4817 81.0213 47.8332 82.3398 50.4046C83.421 52.5132 83.4524 54.785 83.235 57.066C82.9711 59.8375 82.1119 62.4423 80.8597 64.9246C78.8483 68.9094 76.4602 72.6537 73.6954 76.1689C72.3048 77.9375 70.5004 78.8582 68.3146 79.115C67.2542 79.2399 66.1892 79.2145 65.1463 78.923C64.6592 78.7865 64.1906 78.6118 63.7639 78.3388C62.7396 77.6853 62.6489 76.8293 63.5825 76.0393C64.6429 75.1417 65.7776 74.3309 66.8333 73.4275C68.618 71.9018 69.9946 70.0951 70.4457 67.7308C70.7736 66.0154 70.4329 64.3648 69.869 62.7431C68.2925 58.1973 65.6114 54.4854 61.5711 51.7857C60.6236 51.153 59.6958 50.489 58.8807 49.6851C58.2017 49.0154 57.632 48.2693 57.203 47.4168C57.1321 47.2757 57.1216 47.0756 56.8507 47.0039C57.7506 50.5214 60.5375 52.2472 63.3639 53.9256C63.1628 54.1835 62.9721 54.1095 62.821 54.0945C60.6863 53.8735 58.6203 53.4004 56.7577 52.2865C54.1952 50.7528 53.0779 48.3815 52.8814 45.5048C52.8105 44.4649 52.8605 43.4274 53.0686 42.4002C53.1116 42.1851 53.136 41.9954 53.4209 41.9549C55.6497 41.6426 57.8588 41.5952 59.9969 42.4465C62.1362 43.2967 63.6395 44.8617 64.8568 46.7483C65.9904 48.5041 66.7275 50.4601 67.7007 52.2969C68.7227 54.2252 69.7946 56.1187 71.3061 57.7207C72.6013 59.0937 74.1546 60.0329 76.0416 60.3233C79.3052 60.8241 81.5364 58.4806 80.9353 55.2396C80.7155 54.0517 80.1307 53.1413 79.1029 52.4936C78.1995 51.9256 77.2473 51.4491 76.2567 51.0685C72.8594 49.7672 71.3224 47.1635 70.9922 43.7096C70.855 42.2823 70.884 40.8618 71.4026 39.4935C71.4933 39.254 71.5654 39.0493 71.9107 39.0632C75.7533 39.217 79.0169 40.5299 81.2596 43.779C82.5246 45.6124 82.9315 47.7268 82.992 49.9176C82.992 49.9419 82.9502 49.9685 82.9013 50.0229L82.9048 50.024ZM76.9776 43.1845C76.9915 43.1718 77.0055 43.159 77.0182 43.1475L76.9776 43.1093C76.9636 43.1278 76.9496 43.1463 76.9369 43.166L76.9776 43.1845Z" fill="#404548"/>
<path d="M37.8854 56.9577C36.5472 55.284 35.9135 53.3731 35.9763 51.2413C36.0321 49.3305 36.6971 47.5908 37.5831 45.9275C38.9481 43.3631 40.7444 41.0913 42.5151 38.8034C44.7335 35.9359 46.989 33.0939 48.9318 30.0275C50.3503 27.7881 51.2885 25.3972 51.1223 22.6825C51.0339 21.225 50.6189 19.8462 50.1561 18.4767C49.3876 16.1992 48.5435 13.9425 48.1598 11.5539C47.7738 9.14911 47.854 6.76169 48.3365 4.37773C48.4133 4.00065 48.5563 4.00759 48.8388 4.16143C49.669 4.61254 50.3445 5.24294 50.9304 5.96703C53.0128 8.54069 54.3277 11.503 55.2986 14.6307C56.8321 19.5767 56.1833 24.3608 54.201 29.0501C52.993 31.9094 51.449 34.6046 50.134 37.4107C49.1748 39.4569 48.3307 41.5413 48.0947 43.8142C47.8122 46.5347 48.3738 49.1385 49.2283 51.6959C50.1294 54.3922 51.4083 56.9138 52.857 59.3544C53.4092 60.2856 53.8976 61.2456 54.0847 62.3271C54.3347 63.7637 53.5464 64.489 52.1315 64.0865C50.8816 63.7302 49.9166 62.9321 49.0632 61.9894C47.6715 60.4533 46.9646 58.6118 46.5821 56.6049C46.2833 55.0388 45.8996 53.4876 45.5438 51.8845C45.1741 52.1227 44.9811 52.4512 44.7928 52.7716C43.5487 54.8907 43.6475 57.1081 44.3428 59.3579C44.7509 60.6754 45.4241 61.8575 46.3682 63.0188C44.973 63.0501 43.8045 62.7204 42.7941 61.9165C41.2001 60.6464 40.5502 58.8663 40.2154 56.9543C39.7863 54.4986 39.8607 52.0487 40.4944 49.6266C40.5072 49.5757 40.4956 49.519 40.4956 49.4057C38.9864 50.3426 38.2028 51.6982 37.8877 53.3558C37.7063 54.3089 37.7133 55.269 37.8447 56.2302C37.8772 56.4719 37.9633 56.7183 37.8749 56.9681L37.8831 56.9577H37.8854Z" fill="#79332D"/>
<path d="M64.3778 6.45394C64.0952 5.78883 63.8208 5.12026 63.5255 4.46095C63.3465 4.05957 63.4988 3.93349 63.8906 3.94043C64.3545 3.94853 64.8196 3.9439 65.2846 3.9439C69.3109 3.9439 73.3372 3.94274 77.3635 3.94506C77.61 3.94506 77.8623 3.90342 78.1251 4.01562C78.0565 4.2886 77.8588 4.46904 77.6937 4.66915C77.2484 5.21049 76.8985 5.81313 76.824 6.50946C76.7787 6.93396 76.5892 6.99643 76.266 6.90158C75.3975 6.6471 74.5045 6.60662 73.6232 6.70263C71.3584 6.94785 69.4958 7.88477 68.4215 9.99459C67.1344 12.5197 67.553 15.0401 69.569 17.2922C71.0317 18.9254 72.8536 20.0926 74.6813 21.255C74.9208 21.4077 75.1638 21.5569 75.4044 21.7073C75.6649 22.185 76.1625 22.4291 76.5171 22.8212C78.2902 24.7795 78.6889 27.0524 78.1437 29.5439C78.039 30.0228 77.9146 30.5294 77.6135 30.9528C77.4228 30.8603 77.46 30.7099 77.4344 30.5861C77.1845 29.4283 77.1728 28.2253 76.781 27.0964C76.5159 26.3329 76.3322 25.5071 75.5009 25.0976L75.4614 25.0664C75.3393 24.6152 74.9498 24.6384 74.5348 24.5065C74.9347 25.2503 75.2847 25.9015 75.6358 26.5527C75.9265 27.6562 76.0358 28.7701 75.8672 29.9071C75.6765 31.1899 75.194 32.3501 74.5196 33.457C73.6976 34.8057 72.6885 35.974 71.3956 36.882C70.6329 37.4176 69.8399 37.9126 68.9098 38.1255C68.175 38.1775 67.4739 38.4933 66.7647 38.5384C65.0172 38.6483 63.2535 38.6992 61.5467 38.1463C61.113 38.0063 60.884 38.1868 60.9142 38.6298C60.9177 38.6772 60.906 38.7559 60.877 38.7709C60.7642 38.8264 60.6549 38.7987 60.5572 38.7189C60.0887 38.3325 59.5608 38.0237 59.1434 37.5656C58.8656 37.2603 58.6226 36.9005 58.2191 36.727L58.2156 36.7224C58.3156 36.2667 57.9936 35.996 57.7808 35.6606C57.4588 35.1516 57.3762 34.5339 57.1553 33.9857C56.653 32.741 56.8635 31.4698 56.8402 30.2044C56.8367 30.0274 57.2192 29.8956 56.9065 29.677C57.0832 28.2901 57.8215 27.1658 58.6284 26.0785C59.819 24.4741 61.3479 23.1809 62.707 21.7304C63.4534 20.9323 64.1103 20.0694 64.7219 19.1695C64.9719 19.1094 65.0695 18.9127 65.1858 18.708C65.4474 18.2488 65.6509 17.7607 65.7915 17.261C66.0229 16.4362 66.4577 15.6566 66.3496 14.7475C66.2973 14.3125 66.3124 13.8626 66.3531 13.4242C66.4473 12.4051 66.2217 11.4162 66.0857 10.4214C66.0497 10.1588 65.9648 9.83149 65.6497 9.68806V9.68459C65.8741 8.85177 65.3009 8.20402 65.1137 7.46836C65.0695 7.29254 64.8789 7.10978 64.6196 7.14333C64.6021 7.10631 64.6021 7.07046 64.6196 7.03344C64.7475 6.75468 64.8463 6.48864 64.3801 6.45162L64.3778 6.45394ZM59.9329 31.3183C59.9864 31.8041 59.9864 32.3154 60.1096 32.7943C60.3084 33.5669 60.5282 34.3489 61.1921 34.8925C61.2944 34.9769 61.392 35.1088 61.5397 35.0533C61.699 34.9931 61.6548 34.8266 61.6571 34.6993C61.6641 34.1985 61.6885 33.6965 61.6606 33.1979C61.5688 31.5867 62.4489 30.6382 63.7336 30.2021C64.5056 29.9407 65.2067 29.5833 65.6927 28.8788C66.4764 27.7418 66.3345 26.4301 65.2986 25.9501C64.2778 25.477 63.2476 25.5614 62.3477 26.2416C60.6758 27.507 60.0759 29.3022 59.9341 31.3195L59.9329 31.3183Z" fill="#F7C307"/>
<path d="M78.1565 9.95063C78.2379 9.31792 78.2821 8.72338 78.396 8.14387C78.8123 6.01092 80.3051 4.6865 82.5525 4.42509C84.4419 4.20531 86.4137 5.36433 87.2369 7.1815C88.0275 8.9258 88.0868 10.7638 87.8775 12.6191C87.4683 16.2454 86.187 19.638 84.993 23.0514C84.7453 23.7593 84.7418 23.7558 84.0082 23.4932C80.8969 22.3805 77.7775 21.2863 74.9034 19.6264C73.3873 18.7508 71.9956 17.7167 70.9457 16.2916C69.5249 14.3634 69.3901 12.2467 70.5678 10.4839C71.956 8.40528 74.5965 7.79917 76.795 9.06692C77.2566 9.33296 77.6903 9.64642 78.1565 9.95179V9.95063Z" fill="#404548"/>
<path d="M49.5758 76.7122C49.6839 76.5919 49.8327 76.6185 49.9699 76.6011C50.0501 76.6752 50.1397 76.6775 50.2373 76.6428C52.9975 75.6931 55.4054 74.2357 57.1401 71.8355C57.94 70.7286 58.5701 69.5476 58.705 68.1445C58.8306 66.8386 58.519 65.5813 58.3411 64.3124C58.1551 62.981 57.8493 61.6543 57.9911 60.309C58.1446 58.847 58.8689 58.1472 60.5897 58.5798C61.3791 58.7776 62.0709 59.1951 62.8487 59.3941L62.8464 59.3918C62.8766 59.6092 63.0766 59.6891 63.2138 59.8036C64.0428 60.4964 64.8148 61.2402 65.4159 62.1436C65.4077 62.3159 65.4077 62.4698 65.5263 62.6305C66.0484 63.3338 66.1379 64.1979 66.3088 65.0122C66.4739 65.7999 65.996 66.5043 65.7519 67.2238C65.4577 68.0925 64.8136 68.7668 64.2265 69.4574C64.0777 69.632 63.9777 69.7916 64.016 70.0195C63.8265 69.9999 63.7486 70.1618 63.6463 70.2636C61.843 72.0518 60.0479 73.8505 58.2423 75.6353C57.6563 76.2148 57.1354 76.8325 56.7459 77.5635C56.6087 77.8214 56.2646 77.9707 56.3518 78.3431C55.7263 79.4987 55.1019 80.6507 54.8624 81.9671C54.6752 82.9988 54.631 84.0213 54.881 85.0462C54.895 85.1017 54.9089 85.1584 54.9205 85.2139C55.0259 85.739 54.807 86.0024 54.2636 86.0039C49.8188 86.0132 45.3739 86.0236 40.9302 86.0317C40.8337 86.0317 40.7384 86.0132 40.6419 86.0074C39.8617 85.9634 39.9245 85.9727 40.0292 85.207C40.278 83.3759 40.9616 81.7253 41.9464 80.18C42.1127 80.1788 42.1626 80.0342 42.2429 79.9347C43.6555 78.1685 45.5123 77.309 47.7585 77.1448C48.3678 77.1008 49.0258 77.0765 49.5769 76.7099L49.5758 76.7122Z" fill="#F7C307"/>
<path d="M8.45592 36.2087C6.77704 34.9941 6.00503 32.3372 6.69798 30.4529C7.30024 28.8127 9.29769 27.6433 11.3568 27.7752C11.0626 28.0077 10.8103 28.2008 10.5627 28.4021C9.85112 28.9828 9.24304 29.6455 8.89424 30.5108C8.79309 30.7629 8.76751 30.9515 9.06748 31.1307C13.4786 33.7669 18.1909 35.5771 23.3054 36.2734C26.326 36.6852 29.3141 36.6042 32.2684 35.7217C35.4576 34.7686 37.0516 32.5928 37.426 29.3911C37.6643 27.353 37.5341 25.3126 37.505 23.2745C37.4608 20.193 37.898 17.2099 39.2734 14.4142C40.6163 11.6843 42.6347 9.59535 45.339 8.1703C45.4704 8.1009 45.6088 8.04422 45.7913 7.96094C45.6239 8.67925 45.4286 9.33972 45.3193 10.0141C44.9112 12.5391 45.4041 14.9948 45.9459 17.4447C46.3273 19.1717 46.8354 20.8801 46.9807 22.6475C47.2086 25.4271 46.261 27.722 43.9113 29.3367C43.0881 29.9023 42.3789 30.5339 41.8208 31.376C40.3954 33.524 38.234 34.7813 36.0203 35.9553C31.6382 38.2791 26.9911 38.5984 22.1974 37.7251C18.0118 36.9628 14.1262 35.3573 10.3406 33.48C9.78717 33.2059 9.21863 32.956 8.68148 32.653C8.30594 32.4401 8.22106 32.6102 8.15944 32.9294C7.98737 33.8201 8.10131 34.6922 8.30361 35.5609C8.34663 35.7448 8.38965 35.9276 8.45708 36.2098L8.45592 36.2087ZM44.5659 9.40565C41.7452 11.5652 40.1512 14.4755 39.5246 17.8958C39.0072 20.7205 39.3292 23.5821 39.4664 26.4241C39.5583 28.3211 39.6083 30.1938 38.8293 31.9844C38.7758 32.107 38.7409 32.24 38.7154 32.3707C38.6886 32.5107 38.5863 32.6992 38.8002 32.764C38.9758 32.8172 39.0014 32.6183 39.0653 32.5153C39.7315 31.4326 40.3501 30.3176 41.0639 29.2662C41.8545 28.1014 42.1708 26.8267 42.201 25.4525C42.2347 23.913 42.2405 22.3722 42.3126 20.8338C42.3603 19.8194 42.5393 18.8212 43.2625 17.8253C43.5346 20.8558 43.7927 23.7314 44.0555 26.6659C45.0228 25.3762 45.6111 22.9043 45.3658 21.2248C45.1902 20.0265 44.9751 18.8327 44.803 17.6332C44.4159 14.9231 43.6869 12.2176 44.6438 9.48084C44.6635 9.45192 44.7065 9.41144 44.6996 9.39756C44.6589 9.32006 44.61 9.36633 44.5659 9.40103V9.40565Z" fill="#43474A"/>
<path d="M30.4512 4.38688C30.3524 4.39151 30.2535 4.39729 30.1547 4.40192C29.5304 4.39729 28.9048 4.39266 28.2805 4.38804C28.1073 4.38688 27.927 4.37415 27.8957 4.61359C25.7505 4.89351 23.5985 5.11907 21.4719 5.53201C19.4791 5.9195 17.5282 6.45505 15.5854 7.04034C13.2043 7.75865 11.9184 9.40695 11.2987 11.6914C10.9987 12.7949 10.9208 13.9239 10.9336 15.0644C10.9557 16.9903 10.8894 18.9104 10.4883 20.805C10.15 22.4001 9.40003 23.706 7.97112 24.584C7.03286 25.16 6.27829 25.9176 5.86787 26.9702C5.65975 26.8569 5.74695 26.7065 5.74579 26.5932C5.73998 21.3394 5.73184 16.0869 5.74346 10.8332C5.75044 7.76559 8.13157 4.75471 11.0347 4.10117C11.2219 4.05953 11.4161 4.0445 11.6056 4.01789C18.856 4.01789 26.1063 4.01789 33.3578 4.02368C33.6032 4.02368 33.8624 3.95427 34.0926 4.1058C32.9288 4.31054 31.7592 4.41695 30.5768 4.29666C30.55 4.27584 30.5233 4.25617 30.4977 4.23535L30.4512 4.38457V4.38688Z" fill="#79332D"/>
<path d="M88.1937 80.4202C87.5414 83.0112 86.0928 84.9406 83.514 85.8833C82.9989 86.0718 82.4292 86.1586 81.863 86.1586C79.869 86.1574 77.8762 86.1609 75.8823 86.1539C75.7044 86.1539 75.4451 86.258 75.3695 86.0232C75.3126 85.8474 75.4649 85.6739 75.5765 85.5096C77.081 83.2957 78.225 80.9071 79.1459 78.3971C79.6993 76.8888 80.562 75.5262 81.5444 74.255C82.6943 72.7663 83.9872 71.413 85.6103 70.4159C86.0614 70.1383 86.5392 69.9046 87.0055 69.6513C87.1671 69.5507 87.424 69.5831 87.4694 69.3205L87.4717 69.3182C87.5647 69.2997 87.681 69.3089 87.7484 69.2557C88.1565 68.9376 88.2239 69.1528 88.2076 69.5287C88.2007 69.6826 88.2076 69.8364 88.2076 69.9902C88.203 73.4661 88.1972 76.9431 88.1925 80.419L88.1937 80.4202Z" fill="#F7C307"/>
<path d="M21.7336 49.6794C20.6942 50.6707 19.421 51.1322 18.0224 51.3439C17.6887 51.3948 17.5178 51.2745 17.3399 51.0628C17.3294 50.6186 17.0678 50.2762 16.8655 49.9096C16.5528 48.4949 16.1854 47.0907 15.361 45.8739C14.889 45.1764 14.2577 44.6339 13.3357 44.5182C13.3299 44.7831 13.4287 44.9335 13.5438 45.0942C14.0763 45.838 14.6123 46.5818 15.1134 47.3463C15.6761 48.2046 16.0947 49.1288 16.0679 50.1791C16.04 51.2756 15.954 51.3404 14.8657 51.3439C14.4797 51.3439 14.0926 51.3242 13.7066 51.3288C12.6218 51.345 11.5638 51.2213 10.529 50.8604C9.81978 50.6128 9.31403 50.1004 8.74083 49.669L8.74316 49.6725C8.41064 48.9102 7.97697 48.1942 7.7921 47.366C7.49795 46.0439 7.3468 44.6987 7.06311 43.3777C6.98289 43.0076 6.98289 42.5703 6.64339 42.2823C6.64804 41.8948 6.47481 41.5941 6.18414 41.3512L6.18647 41.3546C6.19344 41.1742 6.10973 41.0377 6.01672 40.8839C5.75279 40.4432 5.50864 39.9874 5.29122 39.5224C5.17379 39.2703 5.17379 39.0401 5.58421 39.047C7.63166 39.0806 9.6326 39.3235 11.551 40.1077C12.3695 40.442 13.0485 40.9972 13.8391 41.3662H13.8379C13.8426 41.5524 14.0158 41.6137 14.124 41.6982C15.211 42.5426 15.9947 43.6125 16.6225 44.8247C16.783 45.1336 16.7446 45.5442 17.0864 45.7605V45.7582C17.1597 46.4672 17.3352 47.1451 17.6457 47.8796C18.5386 45.8935 20.5744 45.3105 22.4079 45.7351C22.6149 45.7825 22.7114 45.8739 22.6939 46.0844C22.6532 46.5979 22.6439 47.1069 22.5509 47.6239C22.4149 48.3793 22.0231 49.0039 21.7313 49.6794H21.7336Z" fill="#F6C30A"/>
<path d="M68.175 86.1493C66.4798 86.1354 65.1207 85.8937 63.8685 85.2066C61.9989 84.1794 61.199 82.4629 61.5304 80.3612C61.6246 79.7678 61.7955 79.8002 62.2512 80.0292C63.9324 80.8748 65.7113 81.3548 67.6134 81.2854C70.3934 81.1836 72.5943 79.9031 74.4534 77.9379C75.5358 76.7939 76.3427 75.4579 77.1566 74.1243C79.0296 71.0567 81.0736 68.1164 83.7198 65.6387C84.3139 65.0835 84.9592 64.5919 85.6672 64.1882C86.4253 63.7568 87.2275 63.6157 88.0647 63.9222C88.5169 64.0876 88.8983 64.371 88.9727 64.8834C89.0494 65.4143 88.7181 65.759 88.3053 66.0066C87.7589 66.3327 87.2113 66.6751 86.6264 66.9169C82.6071 68.5744 80.0807 71.6975 78.1274 75.4001C77.2903 76.9859 76.6148 78.6458 75.8555 80.2663C75.5126 80.9985 75.1463 81.7203 74.7115 82.4039C73.0803 84.9695 70.9375 86.1458 68.1762 86.1505L68.175 86.1493Z" fill="#7B2F2D"/>
<path d="M61.4699 6.68661C61.9315 7.31585 62.1233 8.06771 62.3372 8.78717C62.8093 10.3765 63.0465 11.9959 62.8907 13.6777C62.693 15.8222 61.9349 17.7123 60.6316 19.4091C60.2456 19.9123 59.8398 20.3946 59.3597 20.8122C59.2318 20.9232 59.1074 21.1153 58.9271 21.0389C58.7202 20.9498 58.8434 20.7393 58.8539 20.5739C59.0004 18.1263 58.9109 15.7031 58.2784 13.3099C58.0575 12.4759 57.7308 11.6824 57.5099 10.8519C57.5099 10.5882 57.4901 10.3545 57.3587 10.0908C56.7785 8.92945 56.2286 7.75309 55.5136 6.66348C55.0904 6.0192 54.6788 5.36798 54.2544 4.72601C54.1626 4.5872 53.973 4.48773 54.0649 4.28531C54.1591 4.07826 54.3672 4.1546 54.5276 4.15344C56.0507 4.14766 57.5738 4.15807 59.0969 4.14419C59.5771 4.13956 60.0503 4.08288 60.2549 4.66702C60.2944 4.77922 60.4026 4.84168 60.5328 4.83936C60.6967 5.52876 60.9688 6.16494 61.4699 6.68661Z" fill="#F7C307"/>
<path d="M31.035 56.3776C30.0444 55.576 29.0456 54.7836 28.0644 53.9716C26.9052 53.0116 25.7658 52.0272 24.6054 51.0683C24.3357 50.8451 24.2439 50.6831 24.5229 50.387C25.1414 49.7323 25.3716 48.8729 25.6914 48.0621C25.7902 48.0447 25.9076 48.0054 25.9006 47.9013C25.8495 47.1749 26.2355 46.5132 26.1739 45.7741C26.1122 45.028 26.1657 45.0234 26.8552 45.1668C28.941 46.2298 31.1396 46.216 33.3742 45.84C33.4463 45.8273 33.5126 45.7799 33.5812 45.7475C34.0311 45.7047 34.18 45.98 34.0009 46.305C33.7719 46.7238 33.6033 47.1564 33.4672 47.604C33.2184 48.4253 32.8522 49.228 32.8964 50.1083C32.9592 51.3401 32.758 52.5709 33.0696 53.812C33.201 54.3371 33.3952 54.8993 33.3603 55.4753C33.3521 55.6141 33.4591 55.6708 33.587 55.6859C33.5603 56.3498 33.5579 56.9918 33.9625 57.5967C34.2613 58.042 34.0509 58.4052 33.5637 58.4723C33.4928 58.4157 33.4219 58.3601 33.3498 58.3035C33.3382 58.2283 33.3521 58.1311 33.3103 58.0825C32.7487 57.4302 31.9523 57.0461 31.3663 56.4169C31.3082 56.3544 31.1454 56.3891 31.0315 56.3787L31.035 56.3776Z" fill="#F7C307"/>
<path d="M38.4364 67.4095C38.5177 67.915 38.2736 67.9173 37.9062 67.7577C37.047 67.3829 36.304 66.8277 35.5739 66.2574C32.8951 64.1638 30.4105 61.8423 27.798 59.6712C26.3435 58.4613 24.8542 57.3023 23.2718 56.2543C21.6847 55.2052 20.2337 55.2364 18.67 56.3364C16.3737 57.9524 14.2588 59.7799 12.1277 61.5925C10.143 63.2801 8.21298 65.0337 6.11437 66.5848C5.5249 67.0209 4.92846 67.4512 4.24365 67.7345C3.71348 67.9543 3.69371 67.9173 3.66697 67.3343C3.6472 66.8902 3.90299 66.6172 4.16924 66.3407C5.47142 64.992 6.89684 63.7763 8.33506 62.578C11.8056 59.6862 15.311 56.8373 19.1129 54.377C21.1081 53.0861 21.3964 53.0769 23.3008 54.4476C28.3677 58.0958 33.1695 62.069 37.7771 66.2748C38.1073 66.5755 38.5457 66.845 38.4364 67.4095Z" fill="#43474A"/>
<path d="M86.308 51.0699C86.0057 49.6541 85.8313 48.2105 85.3871 46.8259C85.1511 46.088 84.9174 45.3488 84.6826 44.6109C84.5396 43.3882 83.8164 42.427 83.2199 41.4091C83.2002 41.3756 83.113 41.3802 83.0572 41.3663V41.3686C83.1025 41.0031 82.9432 40.7741 82.5886 40.6758L82.5909 40.6781C82.5828 40.3947 82.7084 39.9829 82.9421 40.0812C83.492 40.3137 83.9152 39.7909 84.421 39.9644C84.564 40.0142 84.6709 39.8996 84.6826 39.7365H84.6791C84.9209 39.6868 85.2639 39.9355 85.3802 39.5075H85.3767C85.9685 39.5283 86.4777 39.3838 86.7742 38.8147L86.7719 38.817C87.0556 38.9107 87.2253 38.64 87.459 38.6018C87.6369 38.5729 87.7776 38.2698 88.0113 38.5428C88.2054 38.7707 88.2345 39.0229 88.0857 39.2264C87.902 39.4798 87.9473 39.7389 87.9473 39.9991C87.9438 47.1591 87.9392 54.3202 87.9531 61.4801C87.9531 61.9833 87.852 62.1823 87.2904 62.1742C86.6486 62.1649 85.9871 62.0296 85.3534 62.2979C85.1302 62.3928 85.1407 62.195 85.1837 62.0735C85.3697 61.5461 85.5778 61.0267 85.7673 60.5016C86.1382 59.4779 86.4301 58.4056 86.5021 57.345C86.6335 55.4098 86.5417 53.4596 86.5393 51.5152C86.5393 51.3324 86.5928 51.1092 86.3056 51.0699H86.308Z" fill="#F7C307"/>
<path d="M87.4927 28.8789C88.1635 29.9014 88.3577 31.05 88.4205 32.2425C88.4682 33.1401 88.2438 33.944 87.7066 34.6635C87.1334 34.9654 86.8067 35.5368 86.3172 35.9278C85.5313 36.5559 84.657 37.0879 83.6594 37.1816C82.3793 37.3019 81.0608 37.3632 79.9424 36.4865C79.4529 36.1024 78.9797 35.6756 78.8995 35.0464C78.7785 34.1013 78.946 33.1806 79.2692 32.2715C79.4401 31.7891 79.7122 31.2929 79.5785 30.7354C79.6773 30.7192 79.7447 30.6787 79.7982 30.5792C80.2423 29.7441 79.8494 28.7667 80.2609 27.9234C80.3121 27.8182 80.3051 27.6204 80.2365 27.5325C79.9819 27.2074 80.0749 26.8384 80.047 26.4833C80.0075 25.979 80.1342 25.462 79.8401 24.975C79.7436 24.8154 79.7622 24.5378 79.8784 24.3203C80.3563 24.458 80.233 25.1288 80.7434 25.1821C80.7376 25.3914 80.7144 25.5985 80.7958 25.8055C81.0306 26.3989 81.1422 27.0281 81.1934 27.6539C81.2515 28.3607 81.1818 29.0755 81.2062 29.7869C81.2294 30.4612 81.0004 31.102 81.1492 31.8146C81.2736 32.4114 81.3876 32.9793 81.6619 33.5265C81.7829 33.7682 81.9491 33.7347 82.1363 33.737H82.1351C82.2154 34.025 82.3967 34.2031 82.7072 34.1985C83.1327 34.1927 83.5466 34.2749 83.9849 34.2575C84.8918 34.2216 85.4894 33.8029 86.0487 33.2003C86.6614 32.541 86.5533 31.4722 85.7673 31.0419C85.4359 30.8603 85.1546 30.6498 84.9232 30.3756C84.7721 30.1952 84.1733 30.009 84.8604 29.7036C84.9941 29.6434 84.9232 29.3832 84.9081 29.212C84.9011 29.1796 84.9058 29.1484 84.922 29.1183C85.1767 29.0917 85.1639 28.9182 85.1325 28.7354C85.1581 28.6949 85.1836 28.6533 85.2092 28.6128C85.3999 28.6591 85.5836 28.6926 85.6115 28.4139C86.1556 28.5203 86.8346 28.1536 87.2148 28.8661C87.2369 28.9078 87.3974 28.8754 87.4939 28.8777L87.4927 28.8789Z" fill="#F6C30A"/>
<path d="M33.3521 73.2562C33.3137 73.3163 33.2881 73.3938 33.2335 73.4343C30.2885 75.6216 27.3353 77.7916 24.0485 79.4677C20.3489 81.3531 16.9004 80.622 13.5717 78.5296C13.188 78.2878 12.8369 77.9929 12.5067 77.5256C12.9764 77.573 13.3357 77.5938 13.6915 77.6459C16.3749 78.0426 18.963 77.4666 21.5545 76.9033C24.6437 76.2324 27.5492 74.9947 30.5431 74.0277C31.2965 73.7848 32.0511 73.5465 32.8091 73.3175C32.9858 73.2643 33.166 73.1579 33.3625 73.2643L33.3521 73.2562Z" fill="#43474A"/>
<path d="M5.72485 50.4766C6.67242 51.7698 7.73626 52.8131 9.21284 53.4169C10.6522 54.0056 12.1486 54.1364 13.8612 54.075C13.124 54.717 12.5206 55.2572 11.9021 55.7789C10.0604 57.3346 8.21295 58.8846 6.36664 60.4346C6.26433 60.5213 6.15271 60.5988 6.04226 60.6752C5.81903 60.829 5.73299 60.7399 5.73299 60.4993C5.73299 60.2877 5.72718 60.076 5.72718 59.8643C5.72718 57.0732 5.72718 54.2821 5.72718 51.4898C5.72718 51.1521 5.72718 50.8143 5.72718 50.4766H5.72485Z" fill="#F6C30A"/>
<path d="M14.8575 14.2749C14.8459 13.6919 14.9006 13.1193 15.1331 12.578C15.5551 11.5925 16.5132 11.2362 17.4817 11.7035C17.927 11.9187 18.2839 12.2449 18.5664 12.6416C19.6989 14.224 20.1883 15.9856 20.0023 17.9231C19.9767 18.1868 19.9023 18.454 19.8058 18.7027C19.3931 19.7565 18.4211 20.1289 17.398 19.6339C16.7445 19.3181 16.3074 18.7791 15.9504 18.1764C15.2401 16.9746 14.8831 15.6699 14.8587 14.276L14.8575 14.2749Z" fill="#404548"/>
<path d="M79.7352 56.5804C79.755 58.2032 78.3773 59.5855 76.7123 59.6121C74.8497 59.6421 73.3092 58.2032 73.2848 56.4126C73.2627 54.6961 74.6916 53.3925 76.6135 53.3752C78.4645 53.359 79.712 54.6394 79.7352 56.5804Z" fill="#404548"/>
<path d="M86.3078 51.0673C86.5961 51.1055 86.5415 51.3287 86.5415 51.5126C86.5438 53.4571 86.6357 55.4072 86.5043 57.3424C86.4322 58.4019 86.1392 59.4753 85.7695 60.499C85.5788 61.0242 85.3718 61.5447 85.1858 62.071C85.1428 62.1924 85.1323 62.3902 85.3556 62.2954C85.9892 62.027 86.6508 62.1624 87.2926 62.1716C87.8541 62.1797 87.9564 61.9808 87.9553 61.4776C87.9413 54.3176 87.9448 47.1565 87.9495 39.9966C87.9495 39.7363 87.9041 39.4772 88.0878 39.2239C88.2355 39.0192 88.2076 38.7681 88.0134 38.5403C87.7809 38.2673 87.639 38.5704 87.4612 38.5993C87.2263 38.6374 87.0577 38.907 86.774 38.8144C87.0891 38.324 87.6704 38.1239 88.0309 37.6751C88.1506 37.5259 88.3227 37.5895 88.3517 37.8046C88.3715 37.9561 88.3634 38.1123 88.3634 38.2661C88.3645 46.0241 88.3669 53.7821 88.3657 61.5401C88.3657 62.3416 88.3599 62.3567 87.553 62.3451C86.7112 62.3336 85.902 62.4828 85.1079 62.7407C85.001 62.7754 84.88 62.8645 84.7859 62.7696C84.6754 62.6586 84.758 62.5337 84.8103 62.4041C85.423 60.8992 85.8788 59.3597 86.1276 57.7426C86.4531 55.6316 86.3217 53.5253 86.2938 51.4143C86.2927 51.2998 86.3031 51.1841 86.309 51.0696L86.3078 51.0673Z" fill="#ECC738"/>
<path d="M38.7944 36.9844C38.1364 39.6934 36.7923 41.8957 34.081 42.9853C31.8801 43.8702 29.6385 43.7129 28.4851 42.6314C30.6128 42.5481 32.5951 42.1618 34.3938 41.1149C36.1784 40.0762 37.5771 38.6327 38.7944 36.9844Z" fill="#43474A"/>
<path d="M38.5957 71.6251C40.3025 70.259 49.7235 69.5037 51.6105 70.5586C50.985 71.2515 50.1491 71.3995 49.3085 71.5094C47.8819 71.6968 46.4518 71.6228 45.0217 71.5383C42.9034 71.4134 40.7838 71.2561 38.5957 71.6239V71.6251Z" fill="#43474A"/>
<path d="M26.6238 15.5368C26.6691 13.9451 26.7319 12.3558 27.4655 10.8903C28.3422 9.14022 31.1837 8.60236 32.6778 9.89207C32.8219 10.0158 32.9428 10.1708 33.0533 10.327C33.1765 10.5017 33.1428 10.6058 32.8975 10.5953C29.7095 10.4589 28.0887 12.4148 26.9505 15.0116C26.8738 15.1874 26.7947 15.3621 26.7133 15.5356C26.7098 15.5425 26.6784 15.5356 26.6249 15.5356L26.6238 15.5368Z" fill="#43474A"/>
<path d="M17.7516 39.7613C19.7084 40.5953 21.6454 41.4697 23.5417 42.4448C22.4988 42.4182 21.4756 42.2806 20.4362 42.4633C19.82 42.5721 19.2166 42.7086 18.6876 43.0105C18.2853 43.2406 18.1714 43.0336 18.083 42.7629C17.7842 41.8561 17.2319 41.1077 16.6413 40.379C16.3343 39.973 16.146 39.4744 15.6449 39.2234C15.4554 39.1286 15.3542 38.9458 15.6693 38.8359L15.6879 38.8429C16.2937 39.3298 17.0285 39.53 17.7505 39.7601L17.7516 39.7613Z" fill="#F6C30A"/>
<path d="M8.74209 49.6742C9.31412 50.1045 9.82104 50.6181 10.5303 50.8656C11.5639 51.2265 12.6219 51.3503 13.7078 51.3341C14.0938 51.3283 14.4798 51.3491 14.867 51.3491C15.9552 51.3468 16.0413 51.282 16.0692 50.1843C16.0959 49.134 15.6774 48.2087 15.1146 47.3516C14.6124 46.587 14.0775 45.8432 13.545 45.0995C13.4299 44.9387 13.33 44.7883 13.3369 44.5234C14.2589 44.6391 14.8902 45.1816 15.3623 45.8791C16.1866 47.0959 16.5552 48.5002 16.8668 49.916C16.4912 49.6754 16.3215 49.7691 16.3982 50.2144C16.5133 50.8783 16.1773 51.2982 15.6611 51.6394C15.5239 51.7297 15.3541 51.828 15.2344 51.754C14.7193 51.437 14.1985 51.8025 13.7299 51.7274C12.8393 51.5862 11.8813 51.7401 11.0837 51.4648C10.3303 51.2045 9.51178 50.8205 8.90022 50.1982C8.74326 50.0386 8.72 49.872 8.74209 49.6754V49.6742Z" fill="#FAF7D1"/>
<path d="M62.85 59.401C62.0722 59.2009 61.3804 58.7844 60.5909 58.5866C58.8702 58.1552 58.147 58.855 57.9924 60.3159C57.8506 61.6611 58.1563 62.9879 58.3424 64.3192C58.5191 65.5881 58.8318 66.8455 58.7063 68.1514C58.5714 69.5545 57.9412 70.7354 57.1413 71.8424C55.4066 74.2425 52.9988 75.7 50.2386 76.6496C50.1409 76.6832 50.0503 76.682 49.9712 76.608C50.084 76.1338 50.5711 76.2055 50.856 76.1245C51.8617 75.8376 52.7279 75.3044 53.5696 74.7411C54.7335 73.9615 55.8798 73.161 56.6774 71.9442C57.0355 71.3971 57.5424 70.9309 57.7971 70.3167C58.3563 68.9703 58.7318 67.5279 58.3935 66.1167C57.904 64.0682 57.6424 62.0209 57.7622 59.9319C57.8099 59.1025 58.5691 58.0361 59.462 58.1309C60.2956 58.2188 61.2316 58.2084 61.9664 58.8284C62.228 59.0482 62.7581 58.8909 62.85 59.4021V59.401Z" fill="#FAF7D1"/>
<path d="M84.9069 29.2095C84.922 29.3807 84.9941 29.641 84.8592 29.7011C84.1721 30.0065 84.7708 30.1927 84.922 30.3731C85.1522 30.6473 85.4335 30.8578 85.7661 31.0394C86.552 31.4697 86.6602 32.5385 86.0474 33.1978C85.4882 33.8004 84.8917 34.218 83.9837 34.255C83.5454 34.2724 83.1315 34.1902 82.7059 34.196C82.3955 34.2007 82.2153 34.0225 82.1339 33.7334C82.7792 34.041 83.4628 34.0607 84.1558 33.9878C85.0057 33.8988 85.5952 33.3806 86.0474 32.7282C86.3776 32.2528 86.2567 31.7762 85.7893 31.4072C85.1615 30.9133 84.4709 30.4981 83.9698 29.8515C83.207 28.8648 83.5152 27.6121 84.6336 27.1541C85.0917 26.9667 85.5056 27.0962 85.9056 27.2801C86.6299 27.611 87.2729 28.0389 87.4926 28.8741C87.3961 28.8718 87.2357 28.9041 87.2136 28.8625C86.8334 28.15 86.1544 28.5166 85.6103 28.4102C85.7696 28.1939 86.0532 28.3697 86.2381 28.2217C85.7963 27.8006 85.1592 27.6896 84.7418 28.0008C84.3639 28.283 84.1686 28.6659 84.3546 29.1505C84.4127 29.302 84.4209 29.5264 84.6336 29.538C84.8255 29.5484 84.7743 29.2882 84.9069 29.2084V29.2095Z" fill="#ECC738"/>
<path d="M75.4998 25.1053C76.3311 25.5136 76.5148 26.3395 76.7799 27.1041C77.1717 28.233 77.1833 29.4371 77.4333 30.5938C77.4601 30.7176 77.4217 30.8668 77.6124 30.9605C77.9135 30.536 78.0379 30.0305 78.1425 29.5516C78.6878 27.0601 78.289 24.7872 76.516 22.8289C76.1602 22.4368 75.6637 22.1927 75.4033 21.715C75.694 21.6537 75.8626 21.8411 76.0497 22.0123C77.0485 22.9238 77.7693 24.0284 78.3437 25.2383C78.3681 25.2892 78.4053 25.3459 78.4006 25.3968C78.3239 26.4286 78.875 27.4349 78.6239 28.4493C78.3809 29.4337 78.346 30.5001 77.6961 31.3584C77.61 31.4729 77.5298 31.6591 77.3426 31.5782C77.195 31.5146 77.2822 31.3364 77.2484 31.2138C77.0031 30.3451 77.0008 29.4394 76.8287 28.5557C76.6625 27.6986 76.3741 26.904 76.0916 26.0954C76.0242 25.9023 75.9044 25.782 75.7114 25.6952C75.551 25.9948 75.6742 26.2863 75.6335 26.5616C75.2836 25.9104 74.9324 25.2591 74.5325 24.5154C74.9475 24.6472 75.3359 24.6241 75.4591 25.0752C75.3475 25.0232 75.2126 24.8994 75.1789 25.1423C75.1626 25.2568 75.1859 25.3875 75.3312 25.391C75.5277 25.3956 75.4975 25.2348 75.4998 25.1064V25.1053Z" fill="#FAF7D1"/>
<path d="M58.218 36.7367C58.6215 36.9102 58.8645 37.2699 59.1423 37.5753C59.5586 38.0333 60.0864 38.3422 60.5561 38.7285C60.6538 38.8083 60.7642 38.8361 60.8759 38.7806C60.9049 38.7667 60.9166 38.688 60.9131 38.6395C60.8817 38.1964 61.1107 38.0148 61.5456 38.156C63.2523 38.7089 65.0173 38.658 66.7636 38.5481C67.4728 38.503 68.1739 38.1872 68.9087 38.1351C68.6959 38.4694 68.2971 38.4521 67.996 38.5215C66.1764 38.9379 64.3359 38.9633 62.4931 38.6487C62.1966 38.5978 61.9013 38.5203 61.5502 38.6348C62.1408 39.4769 63.1256 39.3844 63.8848 39.7545C63.9767 39.8806 64.079 39.9893 64.258 39.9454L64.2929 39.9627C63.9011 40.3063 63.4849 39.8482 63.0872 39.9997C61.1084 39.5718 59.4783 38.599 58.2831 36.9484C58.2413 36.8917 58.2389 36.8061 58.218 36.7344V36.7367Z" fill="#ECC738"/>
<path d="M79.5784 30.7266C79.7121 31.2841 79.44 31.7792 79.2691 32.2627C78.947 33.173 78.7785 34.0937 78.8994 35.0376C78.9796 35.6668 79.4528 36.0936 79.9423 36.4777C81.0608 37.3544 82.3792 37.292 83.6593 37.1728C84.6569 37.0791 85.5312 36.5471 86.3172 35.919C86.8078 35.5269 87.1334 34.9566 87.7065 34.6547C87.1124 35.9329 85.987 36.6246 84.7697 37.1404C83.2687 37.7766 81.7526 37.7084 80.2667 36.975C79.0424 36.3701 78.4506 35.2597 78.5796 33.8901C78.6564 33.0816 78.925 32.3321 79.2517 31.6068C79.3819 31.3176 79.2331 30.9301 79.5784 30.7277V30.7266Z" fill="#ECC738"/>
<path d="M60.534 4.84575C60.4038 4.84806 60.2957 4.7856 60.2561 4.6734C60.0515 4.08927 59.5783 4.14595 59.0981 4.15058C57.575 4.16446 56.052 4.15405 54.5289 4.15983C54.3684 4.15983 54.1615 4.08464 54.0661 4.29169C53.9743 4.49412 54.1638 4.59359 54.2556 4.7324C54.68 5.37436 55.0928 6.02558 55.5148 6.66986C56.2298 7.75947 56.7786 8.93583 57.36 10.0972C57.4913 10.3609 57.5123 10.5945 57.5111 10.8583C57.1018 10.3782 56.9635 9.7594 56.6844 9.21228C55.8427 7.56515 54.8358 6.02443 53.7987 4.4999C53.7069 4.36572 53.515 4.24311 53.6104 4.0511C53.7069 3.85793 53.9196 3.9389 54.0801 3.93774C55.931 3.92965 57.7832 3.93196 59.6341 3.92965C60.2492 3.92965 60.4119 4.36572 60.5329 4.84459L60.534 4.84575Z" fill="#ECC738"/>
<path d="M13.8402 41.3645C13.0508 40.9956 12.3706 40.4415 11.5521 40.1061C9.6337 39.3218 7.63276 39.0778 5.58531 39.0454C5.17489 39.0384 5.17489 39.2698 5.29232 39.5208C5.50974 39.9869 5.7539 40.4415 6.01782 40.8822C6.10967 41.036 6.19455 41.1725 6.18757 41.353C5.65623 41.1471 5.49346 40.6104 5.29232 40.1847C5.16443 39.914 4.94701 39.6017 5.00049 39.2247C5.04002 38.9459 5.1063 38.8082 5.41208 38.8129C6.20385 38.8268 7.0212 38.6949 7.78274 38.8487C9.14887 39.1252 10.5615 39.2015 11.8486 39.8932C12.602 40.2981 13.3379 40.6543 13.8402 41.3645Z" fill="#FAF7D1"/>
<path d="M21.7336 49.6776C22.0255 49.0009 22.4173 48.3774 22.5533 47.6221C22.6463 47.1051 22.6545 46.5961 22.6963 46.0825C22.7126 45.872 22.6161 45.7806 22.4103 45.7332C20.5768 45.3087 18.541 45.8917 17.648 47.8777C17.3376 47.1432 17.1621 46.4654 17.0876 45.7563C17.4155 45.9368 17.5097 46.2526 17.5562 46.5857C17.612 46.9848 17.7829 46.9744 18.0538 46.7569C18.3794 46.4955 18.6398 46.1785 19.0084 45.9449C19.9025 45.3758 20.8779 45.3076 21.8778 45.2971C22.7056 45.2879 22.8486 45.5181 22.9242 46.3324C23.0149 47.3167 22.658 48.1912 22.3905 49.0865C22.3138 49.3444 22.0592 49.5954 21.736 49.6787L21.7336 49.6776Z" fill="#FAF7D1"/>
<path d="M33.5905 55.6926C33.4626 55.6776 33.3556 55.622 33.3637 55.4821C33.3986 54.906 33.2044 54.3439 33.0731 53.8188C32.7615 52.5765 32.9615 51.3457 32.8998 50.115C32.8557 49.2348 33.2207 48.432 33.4707 47.6108C33.6067 47.1631 33.7742 46.7305 34.0044 46.3118C34.1834 45.9856 34.0334 45.7115 33.5846 45.7543C33.8067 45.4489 34.1916 45.4801 34.4927 45.3448C34.7659 45.2222 34.7554 45.4766 34.6613 45.6421C34.2729 46.3187 33.9369 47.0139 33.7044 47.7634C33.1684 49.4869 32.9859 51.2358 33.23 53.0253C33.3509 53.9148 33.4707 54.8031 33.5916 55.6926H33.5905Z" fill="#ECC738"/>
<path d="M56.3519 78.3487C56.2647 77.9762 56.6088 77.827 56.746 77.5691C57.1355 76.838 57.6564 76.2203 58.2423 75.6408C60.0491 73.8549 61.8431 72.0574 63.6464 70.2691C63.7499 70.1673 63.8266 70.0054 64.0161 70.0251C63.8429 70.4403 63.515 70.7364 63.2092 71.0476C61.3408 72.9457 59.3666 74.7398 57.6168 76.7524C57.1704 77.266 56.9018 77.9184 56.3519 78.3475V78.3487Z" fill="#ECC738"/>
<path d="M88.1936 80.427C88.1982 76.9512 88.2041 73.4741 88.2087 69.9982C88.2087 69.8444 88.2017 69.6906 88.2087 69.5367C88.225 69.1608 88.1575 68.9456 87.7494 69.2637C87.682 69.3158 87.5669 69.3065 87.4727 69.3262C87.4658 69.1168 87.6413 69.007 87.7715 68.9352C87.9436 68.8415 88.1273 68.6148 88.3238 68.7247C88.4994 68.823 88.4052 69.0775 88.4064 69.2614C88.411 72.772 88.4122 76.2814 88.4017 79.792C88.4017 80.0083 88.5517 80.3125 88.1924 80.427H88.1936Z" fill="#FAF7D1"/>
<path d="M82.1362 33.7346C81.9491 33.7323 81.7828 33.7659 81.6619 33.5241C81.3887 32.977 81.2736 32.409 81.1491 31.8122C81.0003 31.0985 81.2294 30.4577 81.2061 29.7845C81.1817 29.0743 81.2515 28.3583 81.1933 27.6515C81.1422 27.0258 81.0306 26.3965 80.7957 25.8031C80.7143 25.5973 80.7376 25.389 80.7434 25.1797C81.184 25.5267 81.2724 26.0727 81.3584 26.5423C81.52 27.4179 81.6991 28.29 81.5072 29.2223C81.2898 30.2738 81.3282 31.3692 81.4433 32.4461C81.4991 32.9596 81.8677 33.324 82.1351 33.7335L82.1362 33.7346Z" fill="#ECC738"/>
<path d="M65.6462 9.69531C65.9613 9.83874 66.0461 10.1661 66.0822 10.4287C66.2182 11.4234 66.4438 12.4124 66.3496 13.4314C66.3089 13.8698 66.295 14.3198 66.3461 14.7547C66.4542 15.6639 66.0194 16.4435 65.788 17.2682C65.6485 17.7679 65.4439 18.2549 65.1823 18.7152C65.066 18.92 64.9684 19.1166 64.7184 19.1768C64.8428 18.5151 65.2892 17.9911 65.4939 17.3561C66.1275 15.3955 66.3229 13.4233 65.9496 11.3818C65.8473 10.8219 65.5915 10.2829 65.645 9.69531H65.6462Z" fill="#ECC738"/>
<path d="M80.7445 25.1786C80.2341 25.1254 80.3574 24.4534 79.8795 24.3169C79.7632 24.5343 79.7447 24.8119 79.8412 24.9716C80.1353 25.4585 80.0086 25.9756 80.0481 26.4799C80.076 26.835 79.983 27.204 80.2376 27.529C80.3062 27.6158 80.3132 27.8147 80.262 27.92C79.8505 28.7632 80.2434 29.7406 79.7993 30.5758C79.747 30.6741 79.6795 30.7157 79.5796 30.7308C79.5749 29.847 79.8911 29.0061 79.8749 28.1108C79.8493 26.7656 79.8179 25.4308 79.4121 24.1318C79.3621 23.971 79.297 23.7397 79.4284 23.6367C79.6016 23.5026 79.7423 23.7154 79.8586 23.8264C80.2597 24.2058 80.6236 24.6165 80.7457 25.1798L80.7445 25.1786Z" fill="#ECC738"/>
<path d="M49.5759 76.709C49.0248 77.0757 48.3667 77.0988 47.7575 77.1439C45.5124 77.3081 43.6544 78.1676 42.2418 79.9339C42.1616 80.0345 42.1116 80.1779 41.9453 80.1791C41.9616 79.5371 42.4964 79.1681 42.8731 78.8396C43.6021 78.2034 44.4764 77.7269 45.3798 77.3186C45.8449 77.108 46.3762 77.0329 46.7994 77.0132C47.7377 76.9715 48.6376 76.6616 49.5759 76.7078V76.709Z" fill="#FAF7D1"/>
<path d="M64.0173 70.0244C63.9789 69.7965 64.0789 69.6369 64.2277 69.4622C64.8149 68.7717 65.4601 68.0973 65.7531 67.2287C65.9961 66.5092 66.4751 65.8048 66.31 65.017C66.1391 64.2027 66.0496 63.3398 65.5276 62.6354C65.409 62.4758 65.409 62.3208 65.4171 62.1484C65.4869 62.16 65.5555 62.1704 65.6252 62.182V62.1797C65.6183 62.3509 65.6659 62.4931 65.8403 62.5637C65.8368 62.5903 65.8461 62.6111 65.8659 62.6285C65.974 63.1085 66.2438 63.5261 66.3577 64.0107C66.5612 64.869 66.4286 65.7076 66.3298 66.5543C65.8252 67.7561 65.1916 68.8781 64.2858 69.8335C64.2056 69.918 64.1475 70.0174 64.0161 70.0244H64.0173Z" fill="#ECC738"/>
<path d="M6.64464 42.2824C6.98414 42.5693 6.98414 43.0077 7.06437 43.3778C7.34805 44.6987 7.50036 46.0451 7.79335 47.3661C7.97705 48.1943 8.41189 48.9103 8.74441 49.6725C8.11309 49.4724 8.11309 48.8177 7.84451 48.3724C7.49571 47.7929 7.53524 47.07 7.33759 46.4257C6.97484 45.2424 7.09808 43.9689 6.66441 42.796C6.60744 42.6433 6.6493 42.4536 6.64464 42.2812V42.2824Z" fill="#FAF7D1"/>
<path d="M56.9054 29.6808C57.2181 29.8995 56.8356 30.0313 56.8391 30.2083C56.8623 31.4737 56.6519 32.7449 57.1542 33.9895C57.3751 34.5378 57.4576 35.1555 57.7797 35.6644C57.9924 36.001 58.3145 36.2706 58.2145 36.7263C57.6808 36.4336 57.5634 35.853 57.3495 35.373C56.6542 33.8103 56.4566 32.1562 56.61 30.4558C56.6368 30.1655 56.6949 29.896 56.9042 29.6797L56.9054 29.6808Z" fill="#ECC738"/>
<path d="M17.0888 45.7626C16.747 45.5463 16.7842 45.1357 16.6249 44.8269C15.9971 43.6147 15.2134 42.5435 14.1263 41.7003C14.0182 41.6159 13.8438 41.5534 13.8403 41.3672C13.9717 41.3834 14.1554 41.351 14.2263 41.425C14.9763 42.2046 15.9099 42.8304 16.3773 43.8495C16.5691 44.2682 16.7528 44.6881 17.1225 44.9726C17.512 45.2722 17.1714 45.5047 17.09 45.7638L17.0888 45.7626Z" fill="#FAF7D1"/>
<path d="M33.5673 58.4751C34.0533 58.4081 34.2637 58.0448 33.9661 57.5995C33.5615 56.9946 33.5638 56.3538 33.5905 55.6875C33.973 55.9177 33.8114 56.3457 33.9102 56.6695C34.1916 57.5856 34.5625 58.474 34.8636 59.5115C34.2544 59.249 33.88 58.902 33.5673 58.4763V58.4751Z" fill="#ECC738"/>
<path d="M15.6703 38.8303C15.3552 38.9402 15.4563 39.1229 15.6459 39.2178C16.147 39.4688 16.3353 39.9685 16.6423 40.3733C16.3144 40.238 16.1191 39.9477 15.8877 39.7082C15.3633 39.1657 14.7169 38.7632 14.0391 38.1328C14.7634 38.2427 15.2413 38.4775 15.6703 38.8315V38.8303Z" fill="#ECC738"/>
<path d="M65.624 62.1819C65.5543 62.1703 65.4857 62.1599 65.4159 62.1484C64.8148 61.245 64.0428 60.5012 63.2138 59.8083C63.0766 59.6938 62.8767 59.614 62.8464 59.3966C63.0429 59.3769 63.2104 59.4 63.3673 59.5585C64.0626 60.2676 64.766 60.9685 65.4787 61.6602C65.6415 61.8187 65.6508 61.9876 65.624 62.1819Z" fill="#FAF7D1"/>
<path d="M26.8563 45.167C26.1668 45.0248 26.1122 45.0294 26.175 45.7743C26.2366 46.5146 25.8506 47.1751 25.9017 47.9015C25.9087 48.0056 25.7913 48.0449 25.6925 48.0622C25.6669 47.0328 26.068 46.0427 25.9796 45.0051C25.9692 44.8813 26.0378 44.6592 26.1552 44.6905C26.4308 44.7622 26.7447 44.8327 26.8563 45.167Z" fill="#ECC738"/>
<path d="M66.331 66.5586C66.4286 65.7119 66.5612 64.8733 66.3589 64.0151C66.2438 63.5304 65.974 63.1128 65.8671 62.6328C66.3286 62.7809 66.367 63.2447 66.4496 63.5801C66.6147 64.2557 67.1076 64.9277 66.6054 65.6691C66.431 65.9271 66.7949 66.3713 66.3321 66.5575L66.331 66.5586Z" fill="#FAF7D1"/>
<path d="M31.0349 56.3755C31.1489 56.3859 31.3116 56.3512 31.3698 56.4136C31.9557 57.0417 32.7522 57.4269 33.3137 58.0793C33.3556 58.1279 33.3416 58.225 33.3533 58.3002C33.3393 58.3129 33.3149 58.3395 33.3137 58.3384C32.544 57.6964 31.686 57.1562 31.0349 56.3766V56.3755Z" fill="#ECC738"/>
<path d="M64.6161 7.14464C64.8754 7.11109 65.0649 7.29385 65.1102 7.46967C65.2974 8.20649 65.8706 8.85308 65.6462 9.6859C65.259 9.20009 65.2637 8.55812 64.9742 8.02951C64.8219 7.7519 64.7335 7.44075 64.6161 7.14348V7.14464Z" fill="#ECC738"/>
<path d="M84.6824 39.7272C84.6708 39.8903 84.5638 40.0048 84.4208 39.9551C83.9151 39.7816 83.4919 40.3056 82.9419 40.0719C82.7082 39.9736 82.5838 40.3842 82.5908 40.6688C82.2757 40.5172 82.1664 40.2084 81.9327 39.8302C82.9129 39.9655 83.7872 39.7122 84.6824 39.7272Z" fill="#ECC738"/>
<path d="M83.057 41.3672C83.1128 41.3811 83.2 41.3753 83.2198 41.41C83.8162 42.4279 84.5382 43.3891 84.6824 44.6117C84.2941 44.2705 84.2813 43.7419 84.0371 43.3232C83.6709 42.6939 83.3802 42.0207 83.057 41.3672Z" fill="#ECC738"/>
<path d="M17.7515 39.761C17.0295 39.532 16.2959 39.3307 15.689 38.8438C16.4784 38.9224 17.119 39.3319 17.7515 39.761Z" fill="#ECC738"/>
<path d="M86.7741 38.8125C86.4776 39.3816 85.9684 39.5262 85.3766 39.5065C85.8103 39.2116 86.2718 38.9721 86.7741 38.8125Z" fill="#ECC738"/>
<path d="M6.18656 41.3516C6.47722 41.5956 6.65046 41.8964 6.64581 42.2839C5.83543 42.2931 6.30282 41.6801 6.18656 41.3516Z" fill="#FAF7D1"/>
<path d="M63.0872 39.9983C63.4848 39.8456 63.901 40.3049 64.2928 39.9613C64.4986 39.9578 64.6974 39.9729 64.9486 40.2401C64.244 40.1406 63.6336 40.4032 63.0872 39.9983Z" fill="#FAF7D1"/>
<path d="M16.8656 49.9141C17.0679 50.2807 17.3295 50.622 17.3399 51.0673C16.69 50.8834 16.8877 50.3548 16.8656 49.9141Z" fill="#FAF7D1"/>
<path d="M82.5886 40.6719C82.9432 40.769 83.1025 40.9981 83.0583 41.3647C82.7665 41.2248 82.67 40.9541 82.5886 40.6719Z" fill="#ECC738"/>
<path d="M85.38 39.5078C85.2638 39.9369 84.9208 39.6871 84.679 39.7392C84.8406 39.4442 85.1301 39.5356 85.38 39.5078Z" fill="#ECC738"/>
<path d="M87.4717 69.327C87.4263 69.5896 87.1694 69.5572 87.0078 69.6578C86.9845 69.2992 87.2252 69.3096 87.4717 69.327Z" fill="#FAF7D1"/>
<path d="M65.8392 62.5637C65.6648 62.492 65.6171 62.3509 65.6229 62.1797C65.9159 62.1843 65.8775 62.374 65.8392 62.5637Z" fill="#FAF7D1"/>
<path d="M64.258 39.9434C64.0778 39.9873 63.9766 39.8798 63.8848 39.7525C64.051 39.734 64.2185 39.7144 64.258 39.9434Z" fill="#FAF7D1"/>
<path d="M33.3626 73.2679C33.3195 73.2285 33.3253 73.1996 33.3812 73.188C33.3974 73.1846 33.416 73.1985 33.4346 73.2042L33.3521 73.2598L33.3626 73.2679Z" fill="#43474A"/>
<path d="M37.8772 56.9689C37.9191 56.9308 37.9493 56.9389 37.9597 56.9932C37.9621 57.0094 37.9481 57.0279 37.9423 57.0453C37.9237 57.0164 37.9051 56.9874 37.8865 56.9585L37.8784 56.9689H37.8772Z" fill="#79332D"/>
<path d="M76.9775 43.1846L76.9368 43.1661C76.9507 43.1475 76.9647 43.129 76.9775 43.1094L77.0182 43.1475C77.0042 43.1603 76.9903 43.173 76.9775 43.1846Z" fill="#FCFCFA"/>
<path d="M59.9329 31.3239C60.0748 29.3066 60.6747 27.5114 62.3466 26.246C63.2454 25.5658 64.2766 25.4814 65.2974 25.9545C66.3334 26.4345 66.4752 27.7462 65.6916 28.8832C65.2068 29.5877 64.5045 29.9451 63.7325 30.2065C62.4478 30.6426 61.5688 31.5911 61.6595 33.2023C61.6874 33.7009 61.663 34.2029 61.656 34.7037C61.6537 34.831 61.6978 34.9975 61.5386 35.0577C61.3909 35.1132 61.2932 34.9813 61.1909 34.8969C60.527 34.3533 60.3073 33.5713 60.1085 32.7987C59.9852 32.3198 59.9852 31.8085 59.9318 31.3227L59.9329 31.3239Z" fill="#FCFCFA"/>
<path d="M44.6439 9.48925C43.6858 12.226 44.4148 14.9315 44.8031 17.6417C44.9752 18.8411 45.1903 20.0337 45.3659 21.2332C45.6124 22.9127 45.0229 25.3846 44.0556 26.6743C43.7928 23.7398 43.5347 20.8642 43.2626 17.8337C42.5394 18.8284 42.3592 19.8267 42.3127 20.8422C42.2418 22.3806 42.236 23.9214 42.2011 25.4609C42.1709 26.8351 41.8546 28.1098 41.064 29.2746C40.3502 30.3248 39.7316 31.4399 39.0654 32.5237C39.0015 32.6267 38.9759 32.8256 38.8003 32.7724C38.5876 32.7065 38.6887 32.5191 38.7154 32.3791C38.741 32.2473 38.7759 32.1154 38.8294 31.9928C39.6084 30.2022 39.5584 28.3295 39.4665 26.4326C39.3293 23.5894 39.0073 20.7277 39.5247 17.9042C40.1513 14.4839 41.7453 11.5736 44.566 9.41406C44.5915 9.44182 44.6171 9.46843 44.6439 9.49387V9.48925Z" fill="#FCFCFA"/>
<path d="M44.566 9.4051C44.6102 9.3704 44.6591 9.32413 44.6997 9.40163C44.7067 9.41551 44.6637 9.45715 44.6439 9.48491C44.6172 9.45946 44.5905 9.43286 44.566 9.4051Z" fill="#FCFCFA"/>
<path d="M84.9068 29.2065C84.7743 29.2863 84.8254 29.5465 84.6336 29.5361C84.4208 29.5246 84.4127 29.3002 84.3545 29.1486C84.1685 28.664 84.365 28.2823 84.7417 27.9989C85.1579 27.6866 85.7951 27.7988 86.238 28.2198C86.052 28.3679 85.7695 28.1909 85.6102 28.4083C85.4312 28.3852 85.2788 28.4153 85.2079 28.6085C85.1823 28.6489 85.1568 28.6906 85.1312 28.7311C85.001 28.8259 84.887 28.93 84.9207 29.1139C84.9045 29.1428 84.8987 29.1741 84.9068 29.2076V29.2065Z" fill="#FAF7D1"/>
<path d="M85.2091 28.612C85.28 28.4188 85.4323 28.3899 85.6114 28.413C85.5835 28.6918 85.3998 28.6583 85.2091 28.612Z" fill="#ECC738"/>
<path d="M84.9219 29.1172C84.8894 28.9333 85.0021 28.8292 85.1324 28.7344C85.1626 28.9171 85.1765 29.0906 84.9219 29.1172Z" fill="#ECC738"/>
<path d="M75.4997 25.1015C75.4974 25.2299 75.5276 25.3906 75.3311 25.386C75.1858 25.3825 75.1625 25.2518 75.1788 25.1373C75.2125 24.8944 75.3474 25.0182 75.459 25.0702L75.4985 25.1015H75.4997Z" fill="#FCFCFA"/>
</svg>
