<svg width="86" height="13" viewBox="0 0 86 13" fill="none" xmlns="http://www.w3.org/2000/svg">
<path d="M52.5554 5.53786C53.6358 4.54103 54.84 3.44263 56.0294 2.32729C56.3755 2.00348 56.6824 1.63628 56.9998 1.28284C57.2993 0.947396 57.4125 0.613003 56.9194 0.248983C57.9935 0.289195 59.0379 0.203482 60.1829 0.190783C60.0728 0.330466 60.0485 0.392899 60.0178 0.395015C58.986 0.499777 58.2495 1.10718 57.5533 1.8056C56.385 2.97808 55.2019 4.13575 54.0199 5.29553C53.8252 5.48601 53.712 5.6204 53.9702 5.88177C55.7035 7.63415 57.3564 9.46801 59.2009 11.1093C59.6104 11.4744 60.0495 11.7865 60.5522 12.0193C60.9035 12.1823 61.1532 12.0966 61.3966 11.8394C61.6834 11.5368 61.8326 11.1622 61.9723 10.7812C63.2009 7.42885 64.4273 4.07543 65.6601 0.724113C65.7553 0.465913 65.7903 0.0309937 66.04 0.0235864C66.367 0.0140626 66.3765 0.463797 66.4792 0.725172C67.6929 3.83945 68.8887 6.96008 70.0961 10.0765C70.2358 10.4363 70.3987 10.7886 70.5712 11.1347C70.9088 11.8098 71.4008 12.2691 72.2146 12.25C72.2908 12.2479 72.3458 12.2892 72.4029 12.4574C71.2844 12.5262 70.1966 12.4405 68.9458 12.4299C69.3987 12.0997 69.2686 11.8087 69.1543 11.5082C68.7204 10.3749 68.2855 9.24155 67.8739 8.09976C67.7606 7.78653 67.604 7.66801 67.2633 7.67648C66.3299 7.70082 65.3966 7.69658 64.4633 7.67754C64.1352 7.67119 63.9543 7.75372 63.8495 8.09129C63.5617 9.0151 63.2262 9.92303 62.9278 10.8426C62.5818 11.9082 62.6432 12.0236 63.6389 12.3431C63.622 12.4955 63.495 12.4743 63.4051 12.4743C62.2263 12.4743 61.0474 12.4542 59.8696 12.4712C58.8284 12.4849 58.0644 11.941 57.367 11.2744C55.7998 9.77594 54.3585 8.15795 52.9152 6.54209C52.8231 6.43944 52.73 6.3368 52.6347 6.23203C52.4644 6.33997 52.5406 6.49553 52.5406 6.61934C52.5406 7.95796 52.5469 9.29658 52.5628 10.6352C52.566 10.9156 52.6157 11.195 52.64 11.4754C52.6834 11.9632 52.967 12.1802 53.4379 12.2225C53.6157 12.2384 53.8316 12.1601 54.0591 12.4775C52.6739 12.4627 51.3808 12.4109 50.0284 12.4923C50.1035 12.3537 50.1141 12.305 50.1363 12.2987C51.058 12.0363 51.1522 11.9431 51.1765 10.9188C51.2517 7.81933 51.2369 4.71881 51.1935 1.61829C51.1808 0.699776 51.0305 0.555862 50.1437 0.435227C50.0432 0.42147 49.9279 0.446869 49.858 0.337875C50.0993 0.18761 53.1332 0.139985 53.6485 0.278609C53.6601 0.438397 53.531 0.417238 53.44 0.435227C52.7247 0.577026 52.5691 0.725172 52.5607 1.43946C52.5437 2.89342 52.5554 4.34738 52.5554 5.53786ZM65.8178 2.47543C65.7649 2.50823 65.7173 2.51882 65.7098 2.54316C65.2379 3.96114 64.7702 5.38124 64.3014 6.80029C64.1998 7.10822 64.3966 7.11034 64.6104 7.11034C65.4379 7.10823 66.2665 7.10082 67.094 7.11563C67.422 7.12092 67.4823 7.02992 67.368 6.71775C66.9913 5.69447 66.6506 4.65744 66.277 3.6331C66.1363 3.2458 66.0527 2.83098 65.8188 2.47543H65.8178Z" fill="#79332D"/>
<path d="M36.0708 2.61021C36.147 5.37634 36.1978 8.08851 36.3111 10.7986C36.3502 11.7276 36.3809 12.2493 37.6507 12.2451C37.7216 12.2451 37.7904 12.2642 37.8349 12.4112H34.0497C34.1015 12.2197 34.2391 12.2451 34.3566 12.2292C35.0814 12.1287 35.1788 12.0419 35.2507 11.3065C35.2931 10.8694 35.3068 10.4282 35.3079 9.98797C35.3163 7.06311 35.3174 4.13931 35.3216 1.21445C35.3216 1.00281 35.3153 0.791171 35.3259 0.58059C35.3365 0.377416 35.2603 0.0948776 35.4825 0.0123381C35.674 -0.0585612 35.7989 0.19329 35.9259 0.329798C37.5206 2.0462 39.1121 3.76471 40.7015 5.48534C42.0401 6.93507 43.3745 8.38692 44.7089 9.83982C44.8232 9.96363 44.9248 10.0991 44.9999 10.1901C44.9999 8.13612 45.0052 6.11708 44.9978 4.0991C44.9946 3.3245 44.9671 2.54884 44.946 1.77424C44.9163 0.714984 44.784 0.568952 43.7555 0.430328C43.6433 0.415513 43.5005 0.457842 43.4179 0.246202H47.0888C47.0243 0.331916 47.0094 0.3753 46.984 0.382707C45.9364 0.698051 45.9131 0.720273 45.91 1.83138C45.8973 5.17846 45.893 8.52554 45.8793 11.8726C45.8793 12.0948 45.9745 12.4102 45.7629 12.5128C45.5036 12.6388 45.3407 12.3266 45.1777 12.1657C42.1872 9.22501 39.3502 6.13931 36.546 3.02185C36.4222 2.88323 36.329 2.70546 36.0708 2.6081V2.61021Z" fill="#79332D"/>
<path d="M73.3712 0.31477C73.4061 0.214241 73.4929 0.189903 73.5807 0.196252C75.2495 0.324294 76.9246 0.0809108 78.5924 0.277736C80.1543 0.460804 81.2929 1.49995 81.4104 2.82693C81.5045 3.89783 81.1606 4.84069 80.5352 5.6883C80.2961 6.01317 80.0252 6.31898 79.7384 6.60258C79.5447 6.79412 79.4823 6.92005 79.6791 7.16237C80.677 8.39306 81.6135 9.67136 82.6749 10.8502C83.3945 11.6502 84.2082 12.2502 85.3426 12.2512C85.4326 12.2512 85.5183 12.2714 85.55 12.3751C84.1225 12.8777 82.2484 12.4005 81.2897 11.2629C80.3479 10.1454 79.495 8.95708 78.6516 7.76449C78.4051 7.41528 78.1416 7.2174 77.6982 7.2629C77.1627 7.31793 76.4707 7.02269 76.1268 7.36872C75.8083 7.68936 76.0368 8.37401 76.04 8.89781C76.0442 9.67136 76.0717 10.447 76.1236 11.2184C76.1786 12.029 76.3395 12.1666 77.1596 12.2364C77.2813 12.247 77.4019 12.265 77.5215 12.2883C77.5448 12.2925 77.5585 12.3423 77.6104 12.4248H73.5839C73.6146 12.3497 73.6199 12.319 73.6273 12.319C74.5881 12.2618 74.6633 11.5878 74.6876 10.8428C74.7913 7.79729 74.7426 4.75074 74.7183 1.70524C74.7098 0.681966 74.5998 0.60472 73.5818 0.437525C73.495 0.423768 73.4051 0.419533 73.3723 0.315829L73.3712 0.31477ZM76.0283 3.66397V4.98354C76.0283 6.72322 76.1543 6.84174 77.9342 6.77084C78.004 6.76766 78.0749 6.76132 78.1447 6.75814C78.9119 6.72322 79.4178 6.31899 79.731 5.63857C80.0114 5.03116 80.0749 4.39095 80.0527 3.73275C79.9797 1.58672 78.6125 0.451278 76.495 0.758155C76.149 0.807891 76.0114 0.928528 76.0209 1.29043C76.0442 2.08196 76.0284 2.8735 76.0273 3.66503L76.0283 3.66397Z" fill="#79332D"/>
<path d="M3.59258 12.425C2.40846 12.4071 1.21799 12.479 0 12.4896C0.0486771 12.3034 0.104762 12.2589 0.179894 12.2621C1.20317 12.3012 1.62433 11.6367 1.92804 10.8018C3.11851 7.52771 4.31533 4.25575 5.52697 0.989095C5.65395 0.646238 5.65184 0.058943 6.0402 0.0547102C6.35131 0.0504774 6.39469 0.639894 6.52485 0.974285C7.70686 4.00708 8.87405 7.04623 10.0497 10.0822C10.1767 10.4102 10.3164 10.734 10.4719 11.0494C10.819 11.751 11.2952 12.2822 12.165 12.26C12.2391 12.2578 12.2994 12.2949 12.3449 12.4356H8.91638C9.34918 12.1139 9.22537 11.824 9.11109 11.5224C8.67723 10.3891 8.24442 9.25468 7.83067 8.11395C7.7185 7.80495 7.564 7.67797 7.22114 7.68644C6.28781 7.71077 5.35342 7.70443 4.42009 7.68749C4.09523 7.68115 3.91216 7.75733 3.80634 8.10125C3.51639 9.04199 3.17036 9.96579 2.87195 10.9044C2.53862 11.951 2.59682 12.0473 3.5947 12.4272L3.59258 12.425ZM5.76612 2.46634C5.70475 2.5256 5.64972 2.55312 5.63596 2.59439C5.17353 3.99227 4.71745 5.3912 4.25501 6.78908C4.16189 7.0695 4.29734 7.12241 4.53861 7.1203C5.36295 7.115 6.18834 7.1076 7.01268 7.12453C7.3513 7.13088 7.44548 7.05363 7.31638 6.70866C6.95448 5.74041 6.62538 4.76051 6.27617 3.78697C6.11956 3.35099 6.01268 2.89385 5.76612 2.46528V2.46634Z" fill="#79332D"/>
<path d="M33.4814 12.4332H30.147C30.5036 12.0554 30.3491 11.7284 30.2211 11.3941C29.8052 10.3105 29.383 9.23004 28.9925 8.13798C28.874 7.80676 28.7258 7.66602 28.3544 7.67766C27.4221 7.70623 26.4888 7.69989 25.5565 7.67978C25.2232 7.67237 25.0549 7.77184 24.9512 8.10412C24.6634 9.02687 24.328 9.9348 24.0295 10.8544C23.6867 11.9094 23.7544 12.0332 24.7512 12.412H21.1735C21.1936 12.3009 21.2475 12.2544 21.3227 12.2575C22.3142 12.3009 22.7597 11.6787 23.0581 10.8575C23.8994 8.54538 24.7481 6.23534 25.5936 3.92424C26.0221 2.75175 26.4475 1.57821 26.8835 0.408898C26.9406 0.254401 26.965 0.0120756 27.1671 0.00784285C27.3766 0.00466826 27.3957 0.251228 27.4549 0.404667C28.7025 3.6163 29.9428 6.8311 31.1872 10.0438C31.3015 10.339 31.4221 10.6322 31.5576 10.9179C31.9385 11.7263 32.4687 12.3422 33.5173 12.2533L33.4793 12.4332H33.4814ZM26.9703 2.47661L26.819 2.48085C26.347 3.92318 25.875 5.3655 25.4041 6.80888C25.3036 7.11681 25.5068 7.11364 25.7163 7.11364C26.383 7.11152 27.0496 7.11364 27.7163 7.11364C28.3124 7.11364 28.5131 6.83675 28.3184 6.28296C27.8697 5.01418 27.42 3.74539 26.9703 2.47661Z" fill="#79332D"/>
<path d="M13.511 12.3405C13.564 12.3109 13.6063 12.2738 13.6539 12.2622C14.5142 12.0389 14.5692 11.9987 14.6126 11.1119C14.7682 7.97861 14.6952 4.84211 14.6666 1.70773C14.6571 0.665401 14.5396 0.58709 13.5322 0.44C13.4444 0.427302 13.3555 0.423068 13.2666 0.200846C14.655 0.209312 15.9936 0.273867 17.3629 0.179688C17.2962 0.503496 17.1184 0.430477 17.001 0.447408C16.2666 0.551112 16.1036 0.709843 16.0856 1.46751C16.0624 2.45375 16.0592 3.44 16.0613 4.42624C16.0655 6.29396 16.056 8.16168 16.0962 10.0273C16.1311 11.641 16.401 11.8791 18.0042 11.8971C18.3915 11.9013 18.7809 11.9109 19.1661 11.8791C20.0708 11.8061 20.4475 11.4876 20.711 10.622C20.7502 10.4939 20.711 10.3278 20.9597 10.2262C20.9883 10.9532 20.91 11.6336 20.6602 12.2834C20.5555 12.5564 20.256 12.5331 20.0105 12.5289C18.8486 12.5109 17.6867 12.477 16.5248 12.4643C15.7333 12.4548 14.9407 12.4738 14.1481 12.4717C13.9491 12.4717 13.729 12.5574 13.51 12.3426L13.511 12.3405Z" fill="#79332D"/>
</svg>
