<svg width="36" height="35" viewBox="0 0 36 35" fill="none" xmlns="http://www.w3.org/2000/svg">
<path d="M18.074 33.7295C27.0806 33.7295 34.3818 26.4447 34.3818 17.4585C34.3818 8.47228 27.0806 1.1875 18.074 1.1875C9.06748 1.1875 1.76624 8.47228 1.76624 17.4585C1.76624 26.4447 9.06748 33.7295 18.074 33.7295Z" fill="#FFBB10"/>
<path d="M34.2036 25.1566C33.6036 26.2421 32.9331 27.2873 32.1965 28.2857V28.2857L31.8516 28.6716L31.1616 29.4851C31.0591 29.5112 30.9645 29.5619 30.8862 29.6328C30.8078 29.7037 30.7481 29.7926 30.7121 29.8919L30.4194 30.1214C28.5391 31.962 26.2534 33.3385 23.745 34.1408C21.2365 34.943 18.5748 35.1489 15.9724 34.7419C13.0568 34.3231 10.2943 33.1767 7.94101 31.409C5.5877 29.6413 3.71969 27.3095 2.5101 24.6297C1.30051 21.9499 0.788485 19.0089 1.02147 16.079C1.25446 13.1492 2.22493 10.3255 3.84293 7.86954C5.46093 5.41358 7.67411 3.40488 10.2774 2.02959C12.8806 0.654289 15.7897 -0.0430961 18.735 0.00206151C21.6803 0.0472192 24.5666 0.833457 27.1262 2.28791C29.6859 3.74237 31.8362 5.81797 33.3778 8.32237C35.6805 11.9701 36.5065 16.3552 35.6881 20.5882C35.3682 21.9746 34.9633 23.34 34.4754 24.6768C34.3934 24.7276 34.3255 24.7982 34.278 24.882C34.2305 24.9659 34.2049 25.0603 34.2036 25.1566V25.1566ZM18.3558 33.2921C21.4945 33.3086 24.5674 32.3955 27.1856 30.6683C29.8038 28.9412 31.8494 26.4777 33.0634 23.5898C34.2774 20.702 34.6052 17.5196 34.0054 14.4457C33.4055 11.3719 31.9049 8.54473 29.6936 6.32232C27.4822 4.09991 24.6597 2.58219 21.5833 1.96135C18.5069 1.34051 15.3151 1.64448 12.4119 2.83476C9.50882 4.02503 7.02498 6.04808 5.27496 8.64773C3.52494 11.2474 2.58744 14.3067 2.58119 17.4383C2.58927 21.6207 4.2502 25.6312 7.2035 28.5993C10.1568 31.5674 14.1642 33.2537 18.3558 33.2921Z" fill="#080808"/>
<path d="M14.8329 16.3459C14.8412 16.8228 14.7544 17.2966 14.5775 17.7397C14.4007 18.1829 14.1373 18.5865 13.8027 18.9272C13.468 19.2678 13.0689 19.5387 12.6284 19.7241C12.1879 19.9094 11.7149 20.0055 11.2368 20.0069C10.2852 19.9963 9.375 19.6173 8.69821 18.9498C8.02141 18.2823 7.631 17.3786 7.60937 16.4293C7.60662 15.9532 7.69807 15.4811 7.87848 15.0403C8.05889 14.5995 8.32471 14.1985 8.66072 13.8603C8.99672 13.5222 9.39631 13.2535 9.83657 13.0697C10.2768 12.8859 10.7491 12.7906 11.2264 12.7892C11.6976 12.7851 12.165 12.8739 12.6017 13.0507C13.0384 13.2275 13.4358 13.4886 13.771 13.8192C14.1062 14.1497 14.3725 14.5431 14.5548 14.9767C14.737 15.4104 14.8315 15.8757 14.8329 16.3459V16.3459ZM12.4704 13.8426C12.3238 13.8419 12.1788 13.8719 12.0446 13.9307C11.9104 13.9895 11.7902 14.0759 11.6916 14.184C11.593 14.2922 11.5184 14.4199 11.4724 14.5587C11.4265 14.6976 11.4103 14.8445 11.425 14.99C11.4229 15.1421 11.4523 15.2931 11.5114 15.4334C11.5705 15.5737 11.658 15.7003 11.7684 15.8054C11.8788 15.9104 12.0097 15.9915 12.153 16.0437C12.2963 16.0959 12.4489 16.118 12.6011 16.1086C12.7534 16.0993 12.902 16.0586 13.0378 15.9893C13.1736 15.92 13.2936 15.8234 13.3902 15.7057C13.4869 15.5879 13.5581 15.4515 13.5995 15.3051C13.6409 15.1586 13.6515 15.0051 13.6307 14.8544C13.6093 14.5675 13.4755 14.3005 13.2584 14.1112C13.0413 13.9219 12.7582 13.8254 12.4704 13.8426V13.8426Z" fill="#080808"/>
<path d="M25.7157 20.0016C25.2408 19.9832 24.7741 19.8715 24.3423 19.6731C23.9106 19.4746 23.5223 19.1933 23.1995 18.8451C22.8767 18.4969 22.6259 18.0887 22.4612 17.6438C22.2966 17.1989 22.2214 16.7259 22.2399 16.252C22.2584 15.7781 22.3703 15.3125 22.5692 14.8817C22.7681 14.4509 23.0501 14.0635 23.3991 13.7414C23.748 13.4194 24.1572 13.1691 24.6031 13.0048C25.049 12.8405 25.523 12.7655 25.998 12.784C26.9142 12.8796 27.7596 13.3193 28.3627 14.014C28.9658 14.7087 29.2814 15.6064 29.2455 16.5247C29.2096 17.4431 28.8248 18.3135 28.1693 18.9592C27.5138 19.6049 26.6366 19.9776 25.7157 20.0016ZM24.4927 16.0695C24.7699 16.0695 25.0358 15.9596 25.2319 15.764C25.4279 15.5684 25.538 15.3031 25.538 15.0265C25.5575 14.8786 25.5449 14.7282 25.5011 14.5856C25.4574 14.4429 25.3835 14.3113 25.2844 14.1996C25.1853 14.0879 25.0634 13.9987 24.9268 13.938C24.7902 13.8773 24.6422 13.8466 24.4927 13.8479C24.2079 13.8495 23.934 13.9575 23.7251 14.1505C23.5161 14.3436 23.3872 14.6077 23.3637 14.8909C23.3659 15.1939 23.484 15.4846 23.6938 15.7036C23.9037 15.9227 24.1894 16.0535 24.4927 16.0695V16.0695Z" fill="#080808"/>
<path d="M18.4492 21.6886C17.7537 21.6927 17.0771 21.9143 16.5145 22.3222C15.9519 22.7301 15.5317 23.3037 15.3131 23.9624C15.2399 24.2336 15.0831 24.5882 15.4908 24.7342C15.8985 24.8803 15.9716 24.5361 16.0971 24.2545C16.2537 23.7339 16.5786 23.2797 17.0211 22.9628C17.4636 22.6458 17.9988 22.4838 18.5432 22.5022C19.0961 22.4903 19.6357 22.6713 20.0689 23.0141C20.5022 23.3569 20.8019 23.8399 20.9162 24.3796C21.0208 24.6612 21.1776 24.8177 21.4703 24.7134C21.763 24.6091 21.7421 24.3692 21.6689 24.098C21.483 23.3931 21.0638 22.7715 20.4793 22.3342C19.8949 21.8968 19.1795 21.6693 18.4492 21.6886V21.6886Z" fill="#080808"/>
</svg>
