<?xml version="1.0" encoding="UTF-8"?><svg id="Layer_1" xmlns="http://www.w3.org/2000/svg" viewBox="0 0 519.3 373.5"><defs><style>.cls-1{fill:#f38b1c;}</style></defs><path class="cls-1" d="M23.8,59.97c6.72-4.71,10.19-3.33,11.27,4.76,4.85,36.32,9.6,72.65,14.4,108.98,.14,1.03,.33,2.06,.58,3.58h5.05c24.3,0,48.59-.02,72.89,0,17.14,.02,28.48,10.65,27.63,27.65-.96,19.29,5.73,36.94,9.84,55.15,3.56,15.77,7.74,31.4,11.62,47.1,1.17,4.73-.09,7.67-3.74,8.29-4.35,.74-5.78-2.08-6.7-5.74-6.57-26.19-13.27-52.35-19.81-78.54-.61-2.44-1.37-3.59-4.15-3.58-28.57,.1-57.15,.06-85.72,.08-.6,0-1.19,.14-2.14,.27-2.99,12.4-6,24.84-8.98,37.29-3.52,14.69-6.88,29.42-10.64,44.04-.59,2.31-2.66,5.39-4.6,5.88-1.89,.47-4.5-1.93-6.8-3.07,0-1.22,0-2.44,0-3.67,.27-.53,.67-1.03,.8-1.59,6.5-27.45,12.98-54.9,19.42-82.35,.34-1.45,.58-3.02,.41-4.48-.79-6.82-1.73-13.62-2.62-20.43-4.79-36.3-9.56-72.61-14.4-108.9-1.04-7.81-2.39-15.59-3.6-23.38v-7.33Zm121,156.49c0-3.98,.01-7.75,0-11.52-.04-10.84-5.81-16.62-16.68-16.63-23.95-.02-47.91,0-71.86,0h-4.68c1.26,9.82,2.43,18.98,3.6,28.16h89.63Z"/><path class="cls-1" d="M493.2,312.11c-2.32,1.15-5.11,3.68-6.82,3.09-2.09-.72-4.1-3.87-4.71-6.32-6.38-25.76-12.48-51.58-18.66-77.39-.28-1.17-.64-2.33-.99-3.61h-91.21c-2.89,11.51-5.78,23-8.66,34.49-3.99,15.98-7.97,31.96-11.94,47.95-.88,3.55-2.73,5.9-6.73,5.17-3.51-.64-4.94-3.65-4.03-7.89,.1-.45,.29-.87,.4-1.31,6.6-26.33,13.44-52.61,19.63-79.03,1.61-6.86,1.54-14.19,1.63-21.31,.22-18.33,10.37-28.63,28.72-28.64,23.83-.01,47.66,0,71.49,0,1.67,0,3.33,0,5.41,0,1.19-8.67,2.37-17.1,3.5-25.54,3.9-29.04,7.74-58.09,11.7-87.13,1.09-8.04,4.81-9.49,11.27-4.66v7.33c-.29,.83-.74,1.64-.85,2.49-6.1,45.32-12.24,90.63-18.15,135.97-.99,7.59-2.81,15.03-.63,23.03,4.91,18.07,8.84,36.4,13.28,54.6,1.97,8.08,4.23,16.08,6.35,24.12v4.58Zm-31.35-95.66c1.17-9.35,2.33-18.5,3.46-27.55-.64-.28-.92-.5-1.19-.5-26.09-.03-52.18-.13-78.27,0-6.23,.03-12.07,4.68-12.99,10.93-.82,5.58-.17,11.39-.17,17.12h89.16Z"/><path class="cls-1" d="M431.25,106.69c-2.91-11.05-10.7-16.53-23.69-16.53-99.75-.01-199.51-.01-299.25-.01-1.37,0-2.75-.04-4.12,.09-8.67,.75-14.95,4.98-18.37,13.03-7.02,16.51,3.67,32.74,21.6,32.75,40.63,.05,81.26,.02,121.9,.02h6.25v3.57c0,33.76,.02,67.53-.04,101.29-.01,3.34-.32,6.74-.95,10.01-2.85,14.64-9.39,26.44-24.84,31.04-3.28,.97-4.5,3.25-4.45,6.58,.1,6.72-.01,13.45,.05,20.17,.05,4.99,1.93,6.94,6.94,6.94,30.87,.04,61.72,.05,92.57,0,4.94-.01,6.8-2.03,6.83-7.07,.06-6.42-.11-12.84,.06-19.25,.12-4.13-1.49-6.48-5.53-7.7-8.98-2.73-15.21-8.78-19.28-17.13-3.87-7.97-5.48-16.47-5.48-25.28-.02-32.85-.01-65.69,0-98.54,0-1.47,.12-2.93,.21-4.63h5.88c40.47,0,80.96,.04,121.43-.02,16.15-.02,26.39-13.63,22.27-29.33Zm-147.68,172.08c3.78,4.4,8.9,7.81,13.84,11.01,2.36,1.53,3.59,2.7,3.34,5.54-.26,2.87-.05,5.78-.05,9.13h-84.38c0-3.81-.12-7.43,.09-11.04,.05-.93,.92-2.24,1.76-2.64,20.79-9.82,27.91-27.87,28.26-49.05,.55-33.3,.13-66.61,.13-99.92v-5.39h23.89v5.17c0,32.7-.05,65.4,.02,98.09,.04,14.45,3.58,27.97,13.1,39.1Z"/></svg>