<svg width="33" height="33" viewBox="0 0 33 33" fill="none" xmlns="http://www.w3.org/2000/svg">
<path d="M13.9189 5.20212C14.7575 5.60807 15.5324 6.13429 16.2189 6.76411C16.9052 6.13394 17.6801 5.60769 18.519 5.20212C17.8979 4.61334 17.0747 4.28516 16.2189 4.28516C15.3632 4.28516 14.54 4.61334 13.9189 5.20212Z" fill="#F0912C"/>
<path d="M9.77214 4.25369C10.5222 4.25337 11.2697 4.34165 11.9991 4.51669C12.4865 3.8563 13.1222 3.31956 13.8549 2.94967C14.5876 2.57979 15.3969 2.38709 16.2176 2.38709C17.0384 2.38709 17.8477 2.57979 18.5804 2.94967C19.3131 3.31956 19.9488 3.8563 20.4361 4.51669C21.1652 4.34136 21.9123 4.25275 22.6621 4.25269C22.7981 4.25269 22.9341 4.25269 23.0691 4.26169C22.4391 2.98265 21.4635 1.90556 20.2529 1.15238C19.0423 0.399192 17.6449 0 16.2191 0C14.7933 0 13.396 0.399192 12.1854 1.15238C10.9748 1.90556 9.9992 2.98265 9.36914 4.26169C9.50414 4.25569 9.64014 4.25269 9.77614 4.25269L9.77214 4.25369Z" fill="#F0912C"/>
<path d="M25.865 12.836C25.6601 12.1455 25.2376 11.5397 24.6604 11.1089C24.0832 10.6781 23.3822 10.4453 22.662 10.4453C21.9417 10.4453 21.2408 10.6781 20.6636 11.1089C20.0864 11.5397 19.6638 12.1455 19.459 12.836H25.865Z" fill="#F0912C"/>
<path d="M22.662 6.15234C20.741 6.15295 18.8907 6.87741 17.48 8.18134C17.9751 8.85863 18.3786 9.59837 18.68 10.3813C19.3224 9.62762 20.1655 9.07148 21.1112 8.77745C22.0569 8.48342 23.0667 8.46354 24.0233 8.72012C24.9798 8.97669 25.8441 9.49921 26.5157 10.2271C27.1874 10.9549 27.6389 11.8583 27.818 12.8323H30.238C30.0033 10.9881 29.1047 9.2926 27.7102 8.06306C26.3158 6.83353 24.5211 6.15425 22.662 6.15234Z" fill="#F0912C"/>
<path d="M10.6572 30.0547H21.7772V32.4317H10.6572V30.0547Z" fill="#F0912C"/>
<path d="M4.61777 12.839C4.84006 11.6343 5.47732 10.5455 6.41887 9.7618C7.36041 8.97809 8.54674 8.54897 9.77177 8.54897C10.9968 8.54897 12.1831 8.97809 13.1247 9.7618C14.0662 10.5455 14.7035 11.6343 14.9258 12.839H17.3458C17.114 10.9936 16.2165 9.29624 14.8218 8.06575C13.4271 6.83526 11.6312 6.15625 9.77127 6.15625C7.91136 6.15625 6.11542 6.83526 4.72073 8.06575C3.32604 9.29624 2.42854 10.9936 2.19678 12.839H4.61777Z" fill="#F0912C"/>
<path d="M12.9719 12.836C12.7671 12.1455 12.3445 11.5397 11.7673 11.1089C11.1901 10.6781 10.4892 10.4453 9.76892 10.4453C9.04867 10.4453 8.3477 10.6781 7.7705 11.1089C7.1933 11.5397 6.77078 12.1455 6.56592 12.836H12.9719Z" fill="#F0912C"/>
<path d="M0.0170898 19.0156C0.165046 21.4863 1.25002 23.8074 3.05069 25.5055C4.85135 27.2036 7.23204 28.1507 9.70709 28.1536H22.7271C25.2021 28.1507 27.5828 27.2036 29.3835 25.5055C31.1842 23.8074 32.2691 21.4863 32.4171 19.0156H0.0170898Z" fill="#F0912C"/>
<path d="M0 14.7383H32.435V17.1153H0V14.7383Z" fill="#F0912C"/>
</svg>
