<svg width="30" height="30" viewBox="0 0 30 30" fill="none" xmlns="http://www.w3.org/2000/svg">
<path fill-rule="evenodd" clip-rule="evenodd" d="M2.5976 0.724792C0.112233 2.24 -0.728861 5.24745 0.684993 7.56583C2.1652 9.99396 4.80333 10.8011 7.22343 9.56703C10.9068 7.68906 11.0712 2.88604 7.52603 0.724792C6.8727 0.326302 5.76364 0 5.06182 0C4.35999 0 3.25093 0.326302 2.5976 0.724792ZM25.2962 2.01906C23.692 2.28047 22.1422 2.50724 21.8523 2.52219C21.5085 2.54005 21.7295 2.96698 22.4874 3.74865L23.6497 4.94812L21.5012 7.07401C19.258 9.29396 19.1263 9.32094 17.5419 7.89396L16.715 7.14911L13.8432 10.2269L10.9717 13.3047L9.82911 12.2237L8.68687 11.1431L5.33015 14.4995L1.97343 17.8562L2.96984 18.8522L3.96588 19.8483L6.3302 17.5047L8.69489 15.1612L9.80249 16.2225L10.9105 17.2838L13.9106 14.3197L16.9108 11.3557L18.1165 12.3018L19.3221 13.2479L22.5068 10.0782L25.6914 6.90849L26.7432 8.00661C27.3218 8.61036 27.8392 9.06026 27.8931 9.00667C27.9467 8.95271 28.1633 7.76489 28.3744 6.36708C28.5855 4.96927 28.848 3.29255 28.9577 2.64068C29.0995 1.79995 29.02 1.46854 28.685 1.49953C28.4254 1.52323 26.9004 1.75729 25.2962 2.01906ZM6.15557 5.10161V8.01828H5.06182C3.99322 8.01828 3.96807 7.97635 3.96807 6.20667C3.96807 4.74651 3.86197 4.43588 3.42119 4.60505C3.04202 4.75089 2.87432 4.5799 2.87432 4.04797C2.87432 3.53172 3.26187 3.11135 4.05921 2.76245C6.10562 1.86776 6.15557 1.92318 6.15557 5.10161ZM24.7493 21.1433V29.1641H26.2076H27.666V21.1433V13.1224H26.2076H24.7493V21.1433ZM18.916 22.6016V29.1641H20.3743H21.8326V22.6016V16.0391H20.3743H18.916V22.6016ZM13.0826 24.0599V29.1641H14.541H15.9993V24.0599V18.9558H14.541H13.0826V24.0599ZM7.24932 25.5183V29.1641H8.70765H10.166V25.5183V21.8724H8.70765H7.24932V25.5183ZM1.41598 26.9766V29.1641H2.87432H4.33265V26.9766V24.7891H2.87432H1.41598V26.9766Z" fill="#F0912C"/>
</svg>
