<svg width="37" height="37" viewBox="0 0 37 37" fill="none" xmlns="http://www.w3.org/2000/svg">
<path d="M18.7015 36.3989C28.4778 36.3989 36.403 28.4746 36.403 18.6994C36.403 8.92431 28.4778 1 18.7015 1C8.92523 1 1 8.92431 1 18.6994C1 28.4746 8.92523 36.3989 18.7015 36.3989Z" fill="black" stroke="black"/>
<path d="M11 23.7833V27.1403H14.3648L24.2939 17.2124L20.9291 13.8555L11 23.7833Z" fill="white"/>
<path d="M26.8856 13.3603L24.7909 11.2629C24.6225 11.0946 24.394 11 24.1559 11C23.9177 11 23.6893 11.0946 23.5208 11.2629L21.879 12.9045L25.2437 16.2689L26.8856 14.6273C27.053 14.459 27.147 14.2312 27.147 13.9938C27.147 13.7564 27.053 13.5286 26.8856 13.3603Z" fill="white"/>
</svg>
