<svg width="27" height="34" viewBox="0 0 27 34" fill="none" xmlns="http://www.w3.org/2000/svg">
<path d="M11.0002 2.04433H16.6603V2.99717H18.7049V1.91748C18.7049 1.41021 18.5039 0.923604 18.1458 0.564218C17.7878 0.204832 17.3019 0.00195105 16.7946 0L10.866 0C10.3586 0.00195105 9.87275 0.204832 9.51471 0.564218C9.15666 0.923604 8.95562 1.41021 8.95563 1.91748V3.00307H11.0002V2.04433Z" fill="black"/>
<path d="M23.4253 11.0938H4.23562C4.11136 11.0938 3.98846 11.1195 3.87464 11.1693C3.76083 11.2192 3.65858 11.2921 3.57432 11.3834C3.49007 11.4747 3.42564 11.5825 3.38509 11.6999C3.34455 11.8173 3.32877 11.9419 3.33875 12.0657L4.94367 31.9008C4.98632 32.4345 5.22842 32.9326 5.62177 33.2958C6.01513 33.6591 6.53089 33.8609 7.06635 33.8611H20.596C21.1315 33.8609 21.6472 33.6591 22.0406 33.2958C22.434 32.9326 22.6761 32.4345 22.7187 31.9008L24.3236 12.0657C24.3336 11.9419 24.3178 11.8173 24.2773 11.6999C24.2367 11.5825 24.1723 11.4747 24.0881 11.3834C24.0038 11.2921 23.9015 11.2192 23.7877 11.1693C23.6739 11.1195 23.551 11.0938 23.4268 11.0938H23.4253ZM8.8822 31.743H8.81878C8.55881 31.7428 8.3087 31.6435 8.11935 31.4654C7.92999 31.2873 7.8156 31.0438 7.79947 30.7843L6.79345 14.5009C6.78341 14.2342 6.87808 13.9741 7.05724 13.7763C7.23641 13.5785 7.48586 13.4586 7.75227 13.4422C8.01868 13.4258 8.28093 13.5143 8.48298 13.6887C8.68502 13.8631 8.81083 14.1096 8.83352 14.3755L9.83807 30.6589C9.85462 30.9294 9.76307 31.1954 9.58355 31.3984C9.40403 31.6014 9.15123 31.7248 8.88073 31.7415L8.8822 31.743ZM14.8638 30.7224C14.8638 30.9935 14.7561 31.2534 14.5644 31.4451C14.3726 31.6368 14.1126 31.7445 13.8415 31.7445C13.5704 31.7445 13.3104 31.6368 13.1187 31.4451C12.927 31.2534 12.8193 30.9935 12.8193 30.7224V14.4419C12.8193 14.1708 12.927 13.9108 13.1187 13.7191C13.3104 13.5274 13.5704 13.4197 13.8415 13.4197C14.1126 13.4197 14.3726 13.5274 14.5644 13.7191C14.7561 13.9108 14.8638 14.1708 14.8638 14.4419V30.7224ZM20.8674 14.4979L19.9072 30.7814C19.8917 31.0413 19.7777 31.2856 19.5882 31.4643C19.3988 31.6431 19.1483 31.7427 18.8879 31.743H18.8274C18.5569 31.7271 18.3038 31.6044 18.1237 31.4019C17.9437 31.1995 17.8514 30.9338 17.8671 30.6634L18.8274 14.3799C18.8507 14.115 18.9765 13.8695 19.1779 13.6958C19.3794 13.522 19.6406 13.4336 19.9062 13.4494C20.1717 13.4651 20.4207 13.5837 20.6002 13.7801C20.7797 13.9764 20.8756 14.235 20.8674 14.5009V14.4979Z" fill="black"/>
<path d="M26.9598 7.93978L26.2887 5.92795C26.2018 5.66983 26.036 5.44552 25.8147 5.28672C25.5934 5.12792 25.3278 5.04266 25.0555 5.04297H2.60558C2.3332 5.04266 2.06761 5.12792 1.84632 5.28672C1.62504 5.44552 1.45925 5.66983 1.37237 5.92795L0.701193 7.93978C0.659193 8.06645 0.647844 8.20127 0.668079 8.33318C0.688313 8.46508 0.739552 8.59031 0.817589 8.69857C0.895625 8.80683 0.998233 8.89504 1.11699 8.95595C1.23574 9.01686 1.36725 9.04872 1.50071 9.04894H26.1603C26.317 9.04868 26.4704 9.0042 26.6029 8.92063C26.7635 8.82064 26.8857 8.66951 26.95 8.49157C27.0142 8.31364 27.0166 8.11927 26.9569 7.93978H26.9598Z" fill="black"/>
</svg>
