<svg width="28" height="28" viewBox="0 0 28 28" fill="none" xmlns="http://www.w3.org/2000/svg">
<path d="M2.33398 9.83203C2.33398 7.94641 2.33398 7.0036 2.91977 6.41782C3.50556 5.83203 4.44837 5.83203 6.33398 5.83203H21.6673C23.5529 5.83203 24.4957 5.83203 25.0815 6.41782C25.6673 7.0036 25.6673 7.94641 25.6673 9.83203V10.6654C25.6673 11.1368 25.6673 11.3725 25.5209 11.5189C25.3744 11.6654 25.1387 11.6654 24.6673 11.6654H3.33399C2.86258 11.6654 2.62688 11.6654 2.48043 11.5189C2.33398 11.3725 2.33398 11.1368 2.33398 10.6654V9.83203Z" fill="black"/>
<path d="M2.33398 21.668C2.33398 23.5536 2.33398 24.4964 2.91977 25.0822C3.50556 25.668 4.44837 25.668 6.33398 25.668H21.6673C23.5529 25.668 24.4957 25.668 25.0815 25.0822C25.6673 24.4964 25.6673 23.5536 25.6673 21.668V15.0013C25.6673 14.5299 25.6673 14.2942 25.5209 14.1477C25.3744 14.0013 25.1387 14.0013 24.6673 14.0013H3.33399C2.86258 14.0013 2.62688 14.0013 2.48043 14.1477C2.33398 14.2942 2.33398 14.5299 2.33398 15.0013V21.668Z" fill="black"/>
<path d="M8.16602 3.5L8.16601 7" stroke="black" stroke-width="2" stroke-linecap="round"/>
<path d="M19.834 3.5L19.834 7" stroke="black" stroke-width="2" stroke-linecap="round"/>
</svg>
