<svg width="30" height="30" viewBox="0 0 30 30" fill="none" xmlns="http://www.w3.org/2000/svg">
<path d="M15 27.5C21.9036 27.5 27.5 21.9036 27.5 15C27.5 8.09644 21.9036 2.5 15 2.5C8.09644 2.5 2.5 8.09644 2.5 15C2.5 21.9036 8.09644 27.5 15 27.5Z" stroke="url(#paint0_linear_5321_2108)" stroke-width="2"/>
<path d="M8.68332 22.1476C8.56771 22.1474 8.4534 22.1231 8.34766 22.0764C8.24193 22.0296 8.14708 21.9613 8.06916 21.8759C7.98982 21.7912 7.92929 21.6907 7.89152 21.581C7.85374 21.4713 7.83959 21.3548 7.84999 21.2392L8.05416 18.9942L17.4858 9.56592L20.4333 12.5126L11.0042 21.9401L8.75916 22.1443C8.73395 22.1466 8.70864 22.1477 8.68332 22.1476V22.1476ZM21.0217 11.9234L18.075 8.97675L19.8425 7.20925C19.9199 7.13177 20.0118 7.0703 20.113 7.02837C20.2141 6.98643 20.3226 6.96484 20.4321 6.96484C20.5416 6.96484 20.65 6.98643 20.7512 7.02837C20.8524 7.0703 20.9443 7.13177 21.0217 7.20925L22.7892 8.97675C22.8666 9.05414 22.9281 9.14605 22.97 9.24722C23.012 9.34838 23.0336 9.45682 23.0336 9.56633C23.0336 9.67585 23.012 9.78428 22.97 9.88545C22.9281 9.98661 22.8666 10.0785 22.7892 10.1559L21.0225 11.9226L21.0217 11.9234V11.9234Z" fill="url(#paint1_linear_5321_2108)"/>
<defs>
<linearGradient id="paint0_linear_5321_2108" x1="-10.1953" y1="4.46429" x2="-2.59127" y2="31.4602" gradientUnits="userSpaceOnUse">
<stop stop-color="#A7A7A7"/>
<stop offset="1" stop-color="#BBBBBB"/>
</linearGradient>
<linearGradient id="paint1_linear_5321_2108" x1="0.134589" y1="8.15777" x2="4.75153" y2="24.5533" gradientUnits="userSpaceOnUse">
<stop stop-color="#A7A7A7"/>
<stop offset="1" stop-color="#BBBBBB"/>
</linearGradient>
</defs>
</svg>
