<svg width="40" height="40" viewBox="0 0 40 40" fill="none" xmlns="http://www.w3.org/2000/svg">
<path fill-rule="evenodd" clip-rule="evenodd" d="M18.5837 28.5013C24.0605 28.5013 28.5003 24.0615 28.5003 18.5846C28.5003 13.1078 24.0605 8.66797 18.5837 8.66797C13.1068 8.66797 8.66699 13.1078 8.66699 18.5846C8.66699 24.0615 13.1068 28.5013 18.5837 28.5013ZM18.5837 11.918C17.7082 11.918 16.8413 12.0904 16.0324 12.4254C15.2236 12.7605 14.4887 13.2515 13.8696 13.8706C13.2506 14.4896 12.7595 15.2246 12.4245 16.0334C12.0894 16.8422 11.917 17.7092 11.917 18.5846C11.917 19.1369 12.3647 19.5846 12.917 19.5846C13.4693 19.5846 13.917 19.1369 13.917 18.5846C13.917 17.9718 14.0377 17.365 14.2722 16.7988C14.5067 16.2326 14.8505 15.7181 15.2838 15.2848C15.7172 14.8515 16.2316 14.5077 16.7978 14.2732C17.364 14.0387 17.9708 13.918 18.5837 13.918C19.1359 13.918 19.5837 13.4703 19.5837 12.918C19.5837 12.3657 19.1359 11.918 18.5837 11.918Z" fill="#F0912C"/>
<path d="M31.3333 31.3333L28.5 28.5" stroke="#F0912C" stroke-width="2" stroke-linecap="round"/>
</svg>
