<svg width="26" height="26" viewBox="0 0 26 26" fill="none" xmlns="http://www.w3.org/2000/svg">
<path d="M3 9.49075C3 7.59828 3 6.65204 3.58579 6.06626C4.17157 5.48047 5.11438 5.48047 7 5.48047H19.0514C20.937 5.48047 21.8798 5.48047 22.4656 6.06626C23.0514 6.65204 23.0514 7.59828 23.0514 9.49075V9.49075C23.0514 9.96387 23.0514 10.2004 22.9049 10.3469C22.7585 10.4933 22.5228 10.4933 22.0514 10.4933H4C3.5286 10.4933 3.29289 10.4933 3.14645 10.3469C3 10.2004 3 9.96387 3 9.49075V9.49075Z" fill="black"/>
<path d="M3 18.5273C3 20.413 3 21.3558 3.58579 21.9416C4.17157 22.5273 5.11438 22.5273 7 22.5273H19.0514C20.937 22.5273 21.8798 22.5273 22.4656 21.9416C23.0514 21.3558 23.0514 20.413 23.0514 18.5273V13.5016C23.0514 13.0302 23.0514 12.7945 22.9049 12.6481C22.7585 12.5016 22.5228 12.5016 22.0514 12.5016H4C3.5286 12.5016 3.29289 12.5016 3.14645 12.6481C3 12.7945 3 13.0302 3 13.5016V18.5273Z" fill="black"/>
<path d="M8.01367 3.47656L8.01367 6.48427" stroke="black" stroke-width="2" stroke-linecap="round"/>
<path d="M18.0381 3.47656L18.0381 6.48427" stroke="black" stroke-width="2" stroke-linecap="round"/>
</svg>
