<svg width="40" height="40" viewBox="0 0 40 40" fill="none" xmlns="http://www.w3.org/2000/svg">
<path d="M17.3414 5.04433H23.0016V5.99717H25.0461V4.91748C25.0462 4.41021 24.8451 3.9236 24.4871 3.56422C24.129 3.20483 23.6432 3.00195 23.1358 3L17.2072 3C16.6999 3.00195 16.214 3.20483 15.856 3.56422C15.4979 3.9236 15.2969 4.41021 15.2969 4.91748V6.00307H17.3414V5.04433Z" fill="black"/>
<path d="M29.7672 14.0938H10.5775C10.4533 14.0938 10.3303 14.1195 10.2165 14.1693C10.1027 14.2192 10.0005 14.2921 9.91621 14.3834C9.83195 14.4747 9.76752 14.5825 9.72698 14.6999C9.68644 14.8173 9.67066 14.9419 9.68064 15.0657L11.2856 34.9008C11.3282 35.4345 11.5703 35.9326 11.9637 36.2958C12.357 36.6591 12.8728 36.8609 13.4082 36.8611H26.9379C27.4734 36.8609 27.9891 36.6591 28.3825 36.2958C28.7758 35.9326 29.018 35.4345 29.0606 34.9008L30.6655 15.0657C30.6755 14.9419 30.6597 14.8173 30.6192 14.6999C30.5786 14.5825 30.5142 14.4747 30.4299 14.3834C30.3457 14.2921 30.2434 14.2192 30.1296 14.1693C30.0158 14.1195 29.8929 14.0938 29.7686 14.0938H29.7672ZM15.2241 34.743H15.1607C14.9007 34.7428 14.6506 34.6435 14.4612 34.4654C14.2719 34.2873 14.1575 34.0438 14.1414 33.7843L13.1353 17.5009C13.1253 17.2342 13.22 16.9741 13.3991 16.7763C13.5783 16.5785 13.8277 16.4586 14.0942 16.4422C14.3606 16.4258 14.6228 16.5143 14.8249 16.6887C15.0269 16.8631 15.1527 17.1096 15.1754 17.3755L16.18 33.6589C16.1965 33.9294 16.105 34.1954 15.9254 34.3984C15.7459 34.6014 15.4931 34.7248 15.2226 34.7415L15.2241 34.743ZM21.2057 33.7224C21.2057 33.9935 21.0979 34.2534 20.9062 34.4451C20.7145 34.6368 20.4545 34.7445 20.1834 34.7445C19.9123 34.7445 19.6523 34.6368 19.4606 34.4451C19.2689 34.2534 19.1611 33.9935 19.1611 33.7224V17.4419C19.1611 17.1708 19.2689 16.9108 19.4606 16.7191C19.6523 16.5274 19.9123 16.4197 20.1834 16.4197C20.4545 16.4197 20.7145 16.5274 20.9062 16.7191C21.0979 16.9108 21.2057 17.1708 21.2057 17.4419V33.7224ZM27.2093 17.4979L26.249 33.7814C26.2336 34.0413 26.1196 34.2856 25.9301 34.4643C25.7407 34.6431 25.4902 34.7427 25.2297 34.743H25.1693C24.8988 34.7271 24.6457 34.6044 24.4656 34.4019C24.2856 34.1995 24.1932 33.9338 24.209 33.6634L25.1693 17.3799C25.1926 17.115 25.3184 16.8695 25.5198 16.6958C25.7212 16.522 25.9825 16.4336 26.2481 16.4494C26.5136 16.4651 26.7626 16.5837 26.9421 16.7801C27.1216 16.9764 27.2175 17.235 27.2093 17.5009V17.4979Z" fill="black"/>
<path d="M33.3015 10.9398L32.6303 8.92795C32.5435 8.66983 32.3777 8.44552 32.1564 8.28672C31.9351 8.12792 31.6695 8.04266 31.3971 8.04297H8.94725C8.67487 8.04266 8.40928 8.12792 8.188 8.28672C7.96671 8.44552 7.80092 8.66983 7.71405 8.92795L7.04287 10.9398C7.00087 11.0665 6.98952 11.2013 7.00975 11.3332C7.02999 11.4651 7.08123 11.5903 7.15926 11.6986C7.2373 11.8068 7.33991 11.895 7.45866 11.9559C7.57741 12.0169 7.70892 12.0487 7.84238 12.0489H32.502C32.6587 12.0487 32.8121 12.0042 32.9445 11.9206C33.1051 11.8206 33.2274 11.6695 33.2916 11.4916C33.3559 11.3136 33.3583 11.1193 33.2986 10.9398H33.3015Z" fill="black"/>
</svg>
