<svg width="26" height="26" viewBox="0 0 26 26" fill="none" xmlns="http://www.w3.org/2000/svg">
<path fill-rule="evenodd" clip-rule="evenodd" d="M19.6534 7.46577C19.8486 7.26173 19.9717 7.11442 20.0571 6.96279C20.4002 6.35353 20.4002 5.60932 20.0571 5.00005C19.9225 4.76111 19.6943 4.53291 19.2379 4.07651L19.2379 4.0765C18.7815 3.62009 18.5533 3.39188 18.3143 3.25733C17.7051 2.91422 16.9609 2.91422 16.3516 3.25733C16.2646 3.30632 16.179 3.36774 16.0833 3.44807C16.9917 5.0138 18.2069 6.38068 19.6534 7.46577ZM14.6163 4.88823L6.57112 12.9334L6.57111 12.9334C6.23878 13.2658 6.07261 13.4319 5.95019 13.63C5.82776 13.8281 5.75345 14.0511 5.60482 14.4969L4.31473 18.3672C4.17674 18.7812 4.10775 18.9881 4.21701 19.0974C4.32626 19.2066 4.53323 19.1377 4.94718 18.9997L8.81746 17.7096C9.26334 17.561 9.48628 17.4866 9.68437 17.3642C9.88246 17.2418 10.0486 17.0756 10.381 16.7433L10.381 16.7433L18.2296 8.89469C16.8005 7.78142 15.5769 6.42481 14.6163 4.88823Z" fill="black"/>
<line x1="4" y1="21.8633" x2="22.3267" y2="21.8633" stroke="black" stroke-width="2"/>
</svg>
