<svg width="26" height="26" viewBox="0 0 26 26" fill="none" xmlns="http://www.w3.org/2000/svg">
<path fill-rule="evenodd" clip-rule="evenodd" d="M7.15825 6.25279H9.41904C10.5236 6.25279 11.419 7.14822 11.419 8.25279C11.419 9.35736 10.5236 10.2528 9.41904 10.2528H7.13097V11.6323H9.41904C10.5236 11.6323 11.419 12.5277 11.419 13.6323C11.419 14.7368 10.5236 15.6323 9.41904 15.6323H7.13097V17.0117H9.41904C10.5236 17.0117 11.419 17.9072 11.419 19.0117C11.419 20.1163 10.5236 21.0117 9.41904 21.0117H7.33107C7.41722 21.2687 7.54046 21.4773 7.71676 21.6536C8.30254 22.2394 9.24535 22.2394 11.131 22.2394H18.0005C19.8861 22.2394 20.8289 22.2394 21.4147 21.6536C22.0005 21.0678 22.0005 20.125 22.0005 18.2394V7.94922C22.0005 6.0636 22.0005 5.12079 21.4147 4.53501C20.8289 3.94922 19.8861 3.94922 18.0005 3.94922H11.131C9.24535 3.94922 8.30254 3.94922 7.71676 4.53501C7.34173 4.91003 7.2068 5.43139 7.15825 6.25279ZM17.4253 11.4051C16.873 11.4051 16.4253 10.9574 16.4253 10.4051V8.25336C16.4253 7.70107 16.873 7.25336 17.4253 7.25336C17.9776 7.25336 18.4253 7.70107 18.4253 8.25336V10.4051C18.4253 10.9574 17.9776 11.4051 17.4253 11.4051ZM4.84277 7.25392C4.29049 7.25392 3.84277 7.70164 3.84277 8.25392C3.84277 8.8062 4.29049 9.25392 4.84277 9.25392H9.418C9.97029 9.25392 10.418 8.8062 10.418 8.25392C10.418 7.70164 9.97029 7.25392 9.418 7.25392H4.84277ZM4.84277 12.6334C4.29049 12.6334 3.84277 13.0811 3.84277 13.6334C3.84277 14.1857 4.29049 14.6334 4.84277 14.6334H9.418C9.97029 14.6334 10.418 14.1857 10.418 13.6334C10.418 13.0811 9.97029 12.6334 9.418 12.6334H4.84277ZM4.84277 18.0128C4.29049 18.0128 3.84277 18.4606 3.84277 19.0128C3.84277 19.5651 4.29049 20.0128 4.84277 20.0128H9.418C9.97029 20.0128 10.418 19.5651 10.418 19.0128C10.418 18.4606 9.97029 18.0128 9.418 18.0128H4.84277Z" fill="black"/>
</svg>
