<svg width="26" height="26" viewBox="0 0 26 26" fill="none" xmlns="http://www.w3.org/2000/svg">
<path fill-rule="evenodd" clip-rule="evenodd" d="M15.4442 4H10.5553L10.5553 6.22005C10.5553 7.32462 9.65985 8.22005 8.55528 8.22005C7.45071 8.22005 6.55528 7.32462 6.55528 6.22005L6.55528 4.06496C5.34818 4.16032 4.557 4.39563 3.97631 4.97631C3 5.95262 3 7.52397 3 10.6667V16.2222C3 19.3649 3 20.9363 3.97631 21.9126C4.95262 22.8889 6.52397 22.8889 9.66667 22.8889H16.3333C19.476 22.8889 21.0474 22.8889 22.0237 21.9126C23 20.9363 23 19.3649 23 16.2222V16.2222V10.6667V10.6666C23 7.52396 23 5.95262 22.0237 4.97631C21.4429 4.39554 20.6516 4.16025 19.4442 4.06492V6.22005C19.4442 7.32462 18.5487 8.22005 17.4442 8.22005C16.3396 8.22005 15.4442 7.32462 15.4442 6.22005L15.4442 4ZM7.55583 12.8917C7.55583 12.3394 8.00354 11.8917 8.55583 11.8917L17.4447 11.8917C17.997 11.8917 18.4447 12.3394 18.4447 12.8917C18.4447 13.444 17.997 13.8917 17.4447 13.8917L8.55583 13.8917C8.00354 13.8917 7.55583 13.444 7.55583 12.8917ZM8.55583 16.3351C8.00354 16.3351 7.55583 16.7828 7.55583 17.3351C7.55583 17.8874 8.00354 18.3351 8.55583 18.3351L17.4447 18.3351C17.997 18.3351 18.4447 17.8874 18.4447 17.3351C18.4447 16.7828 17.997 16.3351 17.4447 16.3351L8.55583 16.3351Z" fill="black"/>
</svg>
