<svg width="20" height="20" viewBox="0 0 20 20" fill="none" xmlns="http://www.w3.org/2000/svg">
<path d="M16.9442 10.975C16.9812 10.6625 17.0059 10.3375 17.0059 10C17.0059 9.6625 16.9812 9.3375 16.9318 9.025L19.0178 7.375C19.203 7.225 19.2523 6.95 19.1413 6.7375L17.1663 3.275C17.0429 3.05 16.7837 2.975 16.5615 3.05L14.1052 4.05C13.5868 3.65 13.0437 3.325 12.4389 3.075L12.0686 0.425C12.0316 0.175 11.8218 0 11.5749 0H7.6251C7.37823 0 7.18074 0.175 7.14371 0.425L6.77342 3.075C6.16861 3.325 5.61316 3.6625 5.1071 4.05L2.65081 3.05C2.42863 2.9625 2.16943 3.05 2.04599 3.275L0.0710908 6.7375C-0.0523407 6.9625 -0.00296793 7.225 0.194522 7.375L2.28051 9.025C2.23114 9.3375 2.19411 9.675 2.19411 10C2.19411 10.325 2.2188 10.6625 2.26817 10.975L0.182179 12.625C-0.00296822 12.775 -0.0523407 13.05 0.0587476 13.2625L2.03365 16.725C2.15708 16.95 2.41629 17.025 2.63847 16.95L5.09475 15.95C5.61316 16.35 6.15626 16.675 6.76108 16.925L7.13137 19.575C7.18074 19.825 7.37823 20 7.6251 20H11.5749C11.8218 20 12.0316 19.825 12.0563 19.575L12.4266 16.925C13.0314 16.675 13.5868 16.3375 14.0929 15.95L16.5492 16.95C16.7714 17.0375 17.0306 16.95 17.154 16.725L19.1289 13.2625C19.2523 13.0375 19.203 12.775 19.0055 12.625L16.9442 10.975ZM9.6 13.75C7.56338 13.75 5.89706 12.0625 5.89706 10C5.89706 7.9375 7.56338 6.25 9.6 6.25C11.6366 6.25 13.3029 7.9375 13.3029 10C13.3029 12.0625 11.6366 13.75 9.6 13.75Z" fill="black"/>
</svg>
