<svg width="26" height="26" viewBox="0 0 26 26" fill="none" xmlns="http://www.w3.org/2000/svg">
<path fill-rule="evenodd" clip-rule="evenodd" d="M21.5405 13C21.5405 12.6412 21.3465 12.4056 20.9583 11.9343C19.5382 10.2101 16.406 7 12.7703 7C9.13454 7 6.00233 10.2101 4.58224 11.9343C4.19408 12.4056 4 12.6412 4 13C4 13.3588 4.19408 13.5944 4.58224 14.0657C6.00233 15.7899 9.13454 19 12.7703 19C16.406 19 19.5382 15.7899 20.9583 14.0657C21.3465 13.5944 21.5405 13.3588 21.5405 13ZM12.7703 16C14.4271 16 15.7703 14.6569 15.7703 13C15.7703 11.3431 14.4271 10 12.7703 10C11.1134 10 9.77027 11.3431 9.77027 13C9.77027 14.6569 11.1134 16 12.7703 16Z" fill="black"/>
</svg>
