<svg width="26" height="26" viewBox="0 0 26 26" fill="none" xmlns="http://www.w3.org/2000/svg">
<path d="M20.1051 5.84766H18.3286C18.3286 5.8497 18.3286 5.8497 18.3286 5.85174V6.80444C18.3286 7.85506 17.5308 8.70779 16.5521 8.70779H9.44413C8.46352 8.70779 7.66762 7.85302 7.66762 6.80444V5.85378C7.66762 5.85174 7.66762 5.85174 7.66762 5.8497H5.89301C5.40176 5.8497 5 6.2781 5 6.80648V22.0333C5 22.5597 5.39986 22.9901 5.89301 22.9901H20.107C20.6001 22.9901 21 22.5597 21 22.0333V6.80444C20.9981 6.27607 20.5982 5.84766 20.1051 5.84766Z" fill="white"/>
<path d="M16.553 4.90132H15.6638C15.1744 4.90132 14.7764 4.47291 14.7764 3.95066C14.7764 3.42637 14.3766 3 13.8872 3H12.1126C11.6233 3 11.2253 3.42841 11.2253 3.95066C11.2253 4.47495 10.8255 4.90132 10.338 4.90132H9.44883C8.95948 4.90132 8.56152 5.32973 8.56152 5.85198V6.80263C8.56152 7.32692 8.96138 7.75329 9.44883 7.75329H16.5549C17.0442 7.75329 17.4422 7.32488 17.4422 6.80263V5.85198C17.4422 5.32973 17.0423 4.90132 16.553 4.90132ZM12.998 5.85198C12.5087 5.85198 12.1107 5.42561 12.1107 4.90132C12.1107 4.37499 12.5087 3.95066 12.998 3.95066C13.4893 3.95066 13.8853 4.37703 13.8853 4.90132C13.8872 5.42561 13.4893 5.85198 12.998 5.85198Z" fill="white"/>
</svg>
