<svg width="26" height="26" viewBox="0 0 26 26" fill="none" xmlns="http://www.w3.org/2000/svg">
<path fill-rule="evenodd" clip-rule="evenodd" d="M18.4343 11.2154L20.3029 9.34687C20.9028 8.74691 21.2028 8.44693 21.3528 8.11786C21.5929 7.59098 21.5929 6.98589 21.3528 6.45902C21.2028 6.12994 20.9028 5.82996 20.3029 5.23001C19.7029 4.63005 19.4029 4.33007 19.0739 4.18009C18.547 3.93997 17.9419 3.93997 17.415 4.18009C17.0859 4.33007 16.786 4.63005 16.186 5.23001L14.2936 7.12243C15.2869 8.82027 16.7135 10.2356 18.4343 11.2154ZM12.8392 8.57682L6.56155 14.8545C6.2292 15.1868 6.06303 15.353 5.94061 15.5511C5.81818 15.7492 5.74387 15.9721 5.59524 16.418L4.15164 20.7488C4.01366 21.1627 3.94467 21.3697 4.05392 21.479C4.16317 21.5882 4.37015 21.5192 4.7841 21.3812L9.11489 19.9376C9.56078 19.789 9.78372 19.7147 9.98181 19.5923C10.1799 19.4698 10.3461 19.3037 10.6784 18.9714L10.6784 18.9713L10.6784 18.9713L16.9761 12.6737C15.3063 11.6293 13.8941 10.2273 12.8392 8.57682Z" fill="white"/>
</svg>
