<svg width="26" height="26" viewBox="0 0 26 26" fill="none" xmlns="http://www.w3.org/2000/svg">
<path d="M17.9582 22H19.3164C20.0036 22 20.5682 21.4761 20.65 20.8049L22 7.31514H17.9091V4H16.2973V7.31514H12.2309L12.4764 9.23056C13.8755 9.61528 15.1845 10.3111 15.97 11.0805C17.1482 12.2428 17.9582 13.4461 17.9582 15.4106V22ZM4 21.1814V20.3711H16.2973V21.1814C16.2973 21.6317 15.9291 22 15.4709 22H4.82636C4.36818 22 4 21.6317 4 21.1814ZM16.2973 15.4516C16.2973 8.90314 4 8.90314 4 15.4516H16.2973ZM4.01636 17.0969H16.2891V18.734H4.01636V17.0969Z" fill="white"/>
</svg>
