<svg width="26" height="26" viewBox="0 0 26 26" fill="none" xmlns="http://www.w3.org/2000/svg">
<circle cx="13" cy="13" r="10" fill="white"/>
<path d="M9.79899 15.168C9.14566 15.168 8.60433 14.9113 8.17499 14.398C7.74566 13.8846 7.53099 13.1706 7.53099 12.256C7.53099 11.3413 7.74566 10.632 8.17499 10.128C8.60433 9.62397 9.14566 9.37197 9.79899 9.37197C10.4617 9.37197 11.0077 9.62397 11.437 10.128C11.8663 10.632 12.081 11.3413 12.081 12.256C12.081 13.1706 11.8663 13.8846 11.437 14.398C11.0077 14.9113 10.4617 15.168 9.79899 15.168ZM9.79899 14.02C10.0323 14.02 10.2283 13.8893 10.387 13.628C10.555 13.3666 10.639 12.9093 10.639 12.256C10.639 11.6026 10.555 11.15 10.387 10.898C10.2283 10.646 10.0323 10.52 9.79899 10.52C9.56566 10.52 9.36499 10.646 9.19699 10.898C9.03833 11.15 8.95899 11.6026 8.95899 12.256C8.95899 12.9093 9.03833 13.3666 9.19699 13.628C9.36499 13.8893 9.56566 14.02 9.79899 14.02ZM10.107 18.836L15.035 9.37197H16.225L11.297 18.836H10.107ZM16.533 18.836C15.8797 18.836 15.3383 18.5793 14.909 18.066C14.4797 17.5526 14.265 16.8386 14.265 15.924C14.265 15.0093 14.4797 14.3 14.909 13.796C15.3383 13.292 15.8797 13.04 16.533 13.04C17.1957 13.04 17.7417 13.292 18.171 13.796C18.6003 14.3 18.815 15.0093 18.815 15.924C18.815 16.8386 18.6003 17.5526 18.171 18.066C17.7417 18.5793 17.1957 18.836 16.533 18.836ZM16.533 17.688C16.7663 17.688 16.9623 17.5573 17.121 17.296C17.289 17.0346 17.373 16.5773 17.373 15.924C17.373 15.2706 17.289 14.818 17.121 14.566C16.9623 14.314 16.7663 14.188 16.533 14.188C16.2997 14.188 16.099 14.314 15.931 14.566C15.7723 14.818 15.693 15.2706 15.693 15.924C15.693 16.5773 15.7723 17.0346 15.931 17.296C16.099 17.5573 16.2997 17.688 16.533 17.688Z" fill="black"/>
</svg>
