<svg width="26" height="26" viewBox="0 0 26 26" fill="none" xmlns="http://www.w3.org/2000/svg">
<path d="M4 10.6038V17.2092H7.90233H11.8047V18.1702V19.1313L11.5339 19.1536C8.99206 19.3874 7.66318 20.0293 7.93392 20.894C8.03586 21.2168 8.58082 21.5879 9.25233 21.792C10.4688 22.1594 12.4481 22.3339 14.0969 22.2188C16.3609 22.0592 17.7812 21.5916 18.0519 20.92C18.1293 20.7308 18.0942 20.4673 17.9711 20.2817C17.6019 19.7325 16.3399 19.3244 14.4696 19.1536L14.1953 19.1313V18.1702V17.2092H18.0977H22V10.6038V3.99835H13H4V10.6038ZM21.4023 10.5665V16.5783H13H4.59767V10.5665V4.55478H13H21.4023V10.5665Z" fill="white"/>
<path d="M5.19531 10.5644V15.9453H13H20.8046V10.5644V5.18355H13H5.19531V10.5644ZM8.41199 6.87203C8.46819 6.93136 8.49996 7.00193 8.49996 7.08355C8.49996 7.18747 8.42264 7.28402 7.82496 7.91858C7.06915 8.71639 7.01294 8.75361 6.81954 8.57912C6.73156 8.50118 6.70694 8.44923 6.70694 8.34531C6.70694 8.21909 6.75268 8.15977 7.38543 7.49554C8.02535 6.82027 8.0709 6.77936 8.19396 6.77936C8.28911 6.77936 8.35229 6.80534 8.41199 6.87203ZM9.8957 6.86098C10.0011 6.98351 10.0223 7.0948 9.96256 7.21345C9.93445 7.26909 9.69182 7.5475 9.42458 7.82571C8.97109 8.30072 8.92535 8.33775 8.80229 8.33775C8.6335 8.33775 8.49996 8.20416 8.49996 8.03724C8.49996 7.93332 8.56682 7.84433 9.03427 7.34703C9.52652 6.82376 9.57923 6.77936 9.69513 6.77936C9.78311 6.77936 9.84647 6.80534 9.8957 6.86098ZM11.4004 6.87203C11.46 6.93136 11.4883 7.00193 11.4883 7.08723C11.4883 7.19484 11.4532 7.25048 11.2529 7.462C11.0558 7.66247 10.9926 7.70706 10.8976 7.70706C10.7358 7.70706 10.6093 7.56611 10.6093 7.39162C10.6093 7.27278 10.6409 7.22082 10.8343 7.01686C11.0277 6.8127 11.0769 6.77936 11.1893 6.77936C11.2773 6.77936 11.3407 6.80534 11.4004 6.87203ZM10.5108 7.81098C10.5459 7.84433 10.5812 7.92595 10.5951 7.98915C10.6267 8.1524 10.4721 8.33794 10.3068 8.33794C9.99378 8.33794 9.89901 7.91122 10.1697 7.74797C10.2577 7.69601 10.4335 7.72567 10.5108 7.81098ZM8.42613 8.4752C8.58776 8.66811 8.45074 8.96882 8.19415 8.96882C7.95868 8.96882 7.82496 8.69429 7.95868 8.49382C8.07807 8.31564 8.28194 8.30828 8.42613 8.4752ZM9.92031 8.44923C9.96605 8.49382 9.99066 8.57176 9.99066 8.65338C9.99066 8.77959 9.90984 8.87227 8.57031 10.2899C7.78639 11.1137 7.11837 11.8002 7.08329 11.8115C6.90403 11.8708 6.70713 11.7039 6.70713 11.496C6.70713 11.3735 6.79143 11.2734 8.0676 9.9225C8.81992 9.12838 9.48078 8.44554 9.53717 8.40851C9.66005 8.32301 9.81837 8.33794 9.92031 8.44923ZM7.82496 9.1024C7.97962 9.28794 7.91992 9.42152 7.46992 9.88547C7.17458 10.1935 7.12535 10.2306 7.00945 10.2306C6.83717 10.2306 6.70713 10.097 6.70713 9.9225C6.70713 9.8149 6.75635 9.74801 7.11139 9.38061C7.49454 8.97987 7.51915 8.96126 7.62825 8.98355C7.69143 8.9948 7.77923 9.04676 7.82496 9.1024Z" fill="white"/>
</svg>
