<svg width="26" height="26" viewBox="0 0 26 26" fill="none" xmlns="http://www.w3.org/2000/svg">
<path d="M16.9545 12.1429C18.3882 12.1429 19.5368 10.9943 19.5368 9.57143C19.5368 8.14857 18.3882 7 16.9545 7C15.5209 7 14.3636 8.14857 14.3636 9.57143C14.3636 10.9943 15.5209 12.1429 16.9545 12.1429ZM10.0455 12.1429C11.4791 12.1429 12.6277 10.9943 12.6277 9.57143C12.6277 8.14857 11.4791 7 10.0455 7C8.61182 7 7.45455 8.14857 7.45455 9.57143C7.45455 10.9943 8.61182 12.1429 10.0455 12.1429ZM10.0455 13.8571C8.03318 13.8571 4 14.86 4 16.8571V19H16.0909V16.8571C16.0909 14.86 12.0577 13.8571 10.0455 13.8571ZM16.9545 13.8571C16.7041 13.8571 16.4191 13.8743 16.1168 13.9C17.1186 14.62 17.8182 15.5886 17.8182 16.8571V19H23V16.8571C23 14.86 18.9668 13.8571 16.9545 13.8571Z" fill="white"/>
</svg>
