<svg width="26" height="26" viewBox="0 0 26 26" fill="none" xmlns="http://www.w3.org/2000/svg">
<path fill-rule="evenodd" clip-rule="evenodd" d="M13 22C17.9706 22 22 17.9706 22 13C22 8.02944 17.9706 4 13 4C8.02944 4 4 8.02944 4 13C4 17.9706 8.02944 22 13 22ZM13.0799 6.06601C13.0002 6.14016 13.0002 6.25956 13.0002 6.49836V12.7097C13.0002 12.8506 13.0002 12.921 12.9667 12.979C12.9332 13.037 12.8722 13.0723 12.7502 13.1427L7.37104 16.2484C7.16424 16.3678 7.06084 16.4275 7.03644 16.5335C7.01205 16.6396 7.07579 16.7337 7.20328 16.9221C7.79598 17.7978 8.58072 18.5297 9.50021 19.0605C10.5643 19.6749 11.7714 19.9984 13.0002 19.9984C14.229 19.9984 15.4361 19.6749 16.5002 19.0605C17.5643 18.4462 18.448 17.5625 19.0624 16.4984C19.6768 15.4342 20.0002 14.2271 20.0002 12.9984C20.0002 11.7696 19.6768 10.5625 19.0624 9.49836C18.448 8.43422 17.5643 7.55056 16.5002 6.93618C15.5807 6.40532 14.5545 6.09167 13.4998 6.0162C13.2729 5.99997 13.1595 5.99186 13.0799 6.06601Z" fill="white"/>
</svg>
