<svg width="26" height="26" viewBox="0 0 26 26" fill="none" xmlns="http://www.w3.org/2000/svg">
<path fill-rule="evenodd" clip-rule="evenodd" d="M4.58579 3.58579C4 4.17157 4 5.11438 4 7V17C4 19.8284 4 21.2426 4.87868 22.1213C5.52011 22.7628 6.44692 22.9359 8.00093 22.9827V20.0015C8.00093 19.4492 8.44865 19.0015 9.00093 19.0015C9.55321 19.0015 10.0009 19.4492 10.0009 20.0015V23H16C16.0003 23 16.0006 23 16.0009 23V20.0015C16.0009 19.4492 16.4486 19.0015 17.0009 19.0015C17.5532 19.0015 18.0009 19.4492 18.0009 20.0015V22.9826C19.5538 22.9358 20.4801 22.7625 21.1213 22.1213C22 21.2426 22 19.8284 22 17V7C22 5.11438 22 4.17157 21.4142 3.58579C20.8284 3 19.8856 3 18 3H8C6.11438 3 5.17157 3 4.58579 3.58579ZM9.00093 9.00149C8.44865 9.00149 8.00093 9.4492 8.00093 10.0015C8.00093 10.5538 8.44865 11.0015 9.00093 11.0015H17.0009C17.5532 11.0015 18.0009 10.5538 18.0009 10.0015C18.0009 9.4492 17.5532 9.00149 17.0009 9.00149H9.00093ZM9.00093 15.0015H17.0009C17.5532 15.0015 18.0009 14.5538 18.0009 14.0015C18.0009 13.4492 17.5532 13.0015 17.0009 13.0015H9.00093C8.44865 13.0015 8.00093 13.4492 8.00093 14.0015C8.00093 14.5538 8.44865 15.0015 9.00093 15.0015Z" fill="white"/>
</svg>
