<svg width="26" height="26" viewBox="0 0 26 26" fill="none" xmlns="http://www.w3.org/2000/svg">
<path d="M19.9442 13.975C19.9812 13.6625 20.0059 13.3375 20.0059 13C20.0059 12.6625 19.9812 12.3375 19.9318 12.025L22.0178 10.375C22.203 10.225 22.2523 9.95 22.1413 9.7375L20.1663 6.275C20.0429 6.05 19.7837 5.975 19.5615 6.05L17.1052 7.05C16.5868 6.65 16.0437 6.325 15.4389 6.075L15.0686 3.425C15.0316 3.175 14.8218 3 14.5749 3H10.6251C10.3782 3 10.1807 3.175 10.1437 3.425L9.77342 6.075C9.16861 6.325 8.61316 6.6625 8.1071 7.05L5.65081 6.05C5.42863 5.9625 5.16943 6.05 5.04599 6.275L3.07109 9.7375C2.94766 9.9625 2.99703 10.225 3.19452 10.375L5.28051 12.025C5.23114 12.3375 5.19411 12.675 5.19411 13C5.19411 13.325 5.2188 13.6625 5.26817 13.975L3.18218 15.625C2.99703 15.775 2.94766 16.05 3.05875 16.2625L5.03365 19.725C5.15708 19.95 5.41629 20.025 5.63847 19.95L8.09475 18.95C8.61316 19.35 9.15626 19.675 9.76108 19.925L10.1314 22.575C10.1807 22.825 10.3782 23 10.6251 23H14.5749C14.8218 23 15.0316 22.825 15.0563 22.575L15.4266 19.925C16.0314 19.675 16.5868 19.3375 17.0929 18.95L19.5492 19.95C19.7714 20.0375 20.0306 19.95 20.154 19.725L22.1289 16.2625C22.2523 16.0375 22.203 15.775 22.0055 15.625L19.9442 13.975ZM12.6 16.75C10.5634 16.75 8.89706 15.0625 8.89706 13C8.89706 10.9375 10.5634 9.25 12.6 9.25C14.6366 9.25 16.3029 10.9375 16.3029 13C16.3029 15.0625 14.6366 16.75 12.6 16.75Z" fill="white"/>
</svg>
