<svg width="26" height="26" viewBox="0 0 26 26" fill="none" xmlns="http://www.w3.org/2000/svg">
<path d="M12.6394 7.85119C12.4848 8.15394 12.4238 8.49624 12.4641 8.83413C12.5004 9.09206 12.6028 9.33607 12.7611 9.54227C12.9194 9.74847 13.1282 9.90978 13.3671 10.0104C13.6061 10.1111 13.8669 10.1476 14.124 10.1163C14.3812 10.0851 14.6259 9.98729 14.8342 9.8324C15.3409 9.4626 15.8249 9.06597 16.3202 8.68276C16.3678 8.64636 16.4193 8.61378 16.5107 8.55055C16.3202 9.20584 16.143 9.81324 15.9639 10.4206C15.7163 11.2637 15.468 12.1055 15.219 12.946C15.1552 13.1656 15.1244 13.3936 15.1276 13.6224C15.1276 16.6561 15.1276 19.688 15.1276 22.7179C15.1276 22.8961 15.1009 22.9593 14.9008 22.9574C11.2962 22.9574 7.69157 22.9574 4.08693 22.9574C3.89641 22.9574 3.85449 22.9114 3.85449 22.7236C3.85449 19.6873 3.85449 16.6536 3.85449 13.6224C3.85469 13.4444 3.88101 13.2675 3.93261 13.0974C4.43431 11.4061 4.93157 9.71488 5.42438 8.02364C5.46248 7.89335 5.5063 7.83203 5.6511 7.83203C7.93734 7.83203 10.2198 7.83203 12.4984 7.83203C12.5403 7.84353 12.5803 7.84736 12.6394 7.85119ZM9.32051 14.1339C9.32051 13.8044 9.32051 13.5745 9.32051 13.3464C9.32051 13.3017 9.31174 13.2573 9.2947 13.2159C9.27766 13.1745 9.25268 13.137 9.22119 13.1053C9.18969 13.0736 9.15231 13.0485 9.11116 13.0313C9.07002 13.0142 9.02592 13.0054 8.98139 13.0054C8.93685 13.0054 8.89275 13.0142 8.85161 13.0313C8.81046 13.0485 8.77308 13.0736 8.74159 13.1053C8.7101 13.137 8.68512 13.1745 8.66808 13.2159C8.65103 13.2573 8.64226 13.3017 8.64226 13.3464C8.64226 13.517 8.64226 13.6894 8.64226 13.8619C8.64226 14.3849 8.64226 14.3811 8.11262 14.3696C7.99259 14.3696 7.95258 14.3351 7.95639 14.2125C7.95639 13.927 7.95639 13.6377 7.95639 13.3541C7.95903 13.3073 7.95202 13.2605 7.93577 13.2166C7.91953 13.1727 7.89442 13.1326 7.86202 13.099C7.82962 13.0653 7.79064 13.0388 7.74753 13.021C7.70442 13.0033 7.65812 12.9947 7.61155 12.9958C7.56608 12.9975 7.5214 13.0083 7.48016 13.0277C7.43892 13.047 7.40194 13.0744 7.3714 13.1084C7.34086 13.1423 7.31739 13.182 7.30235 13.2252C7.28731 13.2684 7.28103 13.3142 7.28385 13.3599C7.28385 13.5246 7.28385 13.6894 7.28385 13.8523C7.28385 14.3926 7.28385 14.3888 6.74087 14.3696C6.62656 14.3696 6.59608 14.3294 6.59989 14.2202C6.59989 13.9558 6.59989 13.6913 6.59989 13.4269C6.59989 13.1625 6.46462 12.9958 6.25314 12.9958C6.04166 12.9958 5.92926 13.1529 5.90449 13.4173C5.78683 14.3015 5.98973 15.1986 6.47605 15.9446C6.47605 15.9561 6.48748 15.9695 6.4951 15.981C6.56291 16.0964 6.58852 16.2319 6.5675 16.3642C6.47224 17.6193 6.37698 18.8724 6.29696 20.1274C6.28581 20.2698 6.30434 20.4131 6.35137 20.5479C6.3984 20.6827 6.4729 20.8062 6.57008 20.9105C6.66727 21.0147 6.78502 21.0974 6.9158 21.1532C7.04658 21.2091 7.18751 21.2369 7.32958 21.2349C7.5201 21.2349 7.69919 21.2349 7.88209 21.2349C8.02669 21.2382 8.17036 21.2107 8.30364 21.1542C8.43693 21.0977 8.55682 21.0135 8.65544 20.9071C8.75405 20.8007 8.82916 20.6745 8.87581 20.5368C8.92247 20.3991 8.93962 20.253 8.92614 20.1082C8.85374 19.0314 8.78706 17.9546 8.68608 16.8816C8.6152 16.4178 8.7068 15.9437 8.94519 15.5403C9.23097 15.0786 9.43864 14.5938 9.32051 14.1339ZM12.3936 15.7147C12.3936 14.7969 12.3765 14.1608 12.3936 13.5246C12.4107 13.0169 12.1478 12.9498 11.7877 13.0131C11.1228 13.1299 10.7132 13.5706 10.3912 14.1282C9.97918 14.93 9.73229 15.8072 9.66535 16.7072C9.65221 16.786 9.66619 16.8669 9.70499 16.9366C9.7438 17.0063 9.80509 17.0605 9.87874 17.0904C9.95186 17.1353 10.029 17.1732 10.1093 17.2035C10.3379 17.2667 10.355 17.4181 10.3322 17.6288C10.2407 18.4451 10.1664 19.2632 10.0864 20.0795C10.0653 20.3436 10.1324 20.6072 10.2769 20.8286C10.6008 21.3881 12.1116 21.3766 12.4469 20.8421C12.6216 20.5556 12.6892 20.216 12.6375 19.884C12.4736 18.401 12.3155 16.9237 12.3936 15.7147Z" fill="white"/>
<path d="M10.3926 5.05326C11.1547 4.64131 11.9167 4.22552 12.6788 3.8174C12.82 3.74909 12.9757 3.71684 13.1323 3.72352C15.4426 3.72352 17.7536 3.72352 20.0653 3.72352C20.1986 3.72352 20.2558 3.75226 20.2558 3.89788C20.2558 4.4727 20.2558 5.04751 20.2558 5.62233C20.2558 5.76987 20.2082 5.80244 20.0653 5.79669C19.8595 5.79669 19.6538 5.79669 19.448 5.79669C19.3745 5.79307 19.3011 5.80444 19.2322 5.83011C19.1632 5.85578 19.1001 5.89523 19.0467 5.94607C18.9933 5.99691 18.9507 6.0581 18.9214 6.12595C18.8922 6.1938 18.8769 6.2669 18.8764 6.34085C18.8193 7.08045 18.3563 7.54988 17.6209 7.50007C17.3224 7.47083 17.0212 7.50709 16.738 7.60633C16.4548 7.70557 16.1963 7.86543 15.9805 8.07488C15.5195 8.49833 15.0013 8.85855 14.504 9.24176C14.0982 9.55408 13.6257 9.52342 13.3228 9.16895C13.0198 8.81448 13.0618 8.36038 13.4218 7.99633L15.6128 5.77945C15.7443 5.64916 15.8624 5.51695 15.7767 5.31193C15.6909 5.10691 15.5195 5.09541 15.3328 5.09541C13.7692 5.09541 12.2044 5.09541 10.6383 5.09541H10.4059L10.3926 5.05326Z" fill="white"/>
<path d="M15.8442 22.4391C15.8071 22.3659 15.7945 22.2826 15.808 22.2015C15.808 19.3466 15.808 16.493 15.808 13.6406C15.8079 13.455 15.8349 13.2703 15.8881 13.0926C16.292 11.722 16.694 10.3526 17.094 8.98457C17.1112 8.92326 17.1321 8.86386 17.155 8.79297C17.2446 8.83129 17.235 8.91368 17.2522 8.97499C17.6573 10.3584 18.0619 11.7418 18.4658 13.1252C18.5158 13.2891 18.5415 13.4595 18.542 13.631C18.542 16.4923 18.542 19.353 18.542 22.213C18.5553 22.2843 18.5439 22.3581 18.5096 22.4219L17.557 21.4639C17.4846 21.391 17.5132 21.301 17.5132 21.2186C17.5132 18.9015 17.5132 16.5843 17.5132 14.2671V14.1177C17.5132 13.8284 17.3893 13.6693 17.1703 13.6693C16.9512 13.6693 16.8292 13.8284 16.8292 14.1177C16.8292 16.4566 16.8292 18.7954 16.8292 21.1343C16.8366 21.2301 16.8215 21.3264 16.7851 21.4152C16.7487 21.5041 16.692 21.5831 16.6196 21.6459C16.3567 21.895 16.1091 22.1671 15.8442 22.4391Z" fill="white"/>
<path d="M14.6437 5.78906C14.1769 6.25658 13.7501 6.68386 13.3272 7.11114C13.3006 7.13231 13.27 7.14767 13.2371 7.15624C13.2043 7.16482 13.1701 7.16643 13.1367 7.16096C10.4224 7.16096 7.70748 7.16096 4.99193 7.16096C4.9251 7.1652 4.85852 7.14922 4.8008 7.11507C4.74307 7.08092 4.69684 7.03017 4.66805 6.96935C4.56471 6.77182 4.52604 6.54651 4.55755 6.32556C4.61089 5.90594 4.74807 5.78906 5.1634 5.78906H14.6513H14.6437Z" fill="white"/>
<path d="M20.9277 4.90339C20.9277 4.34581 20.9277 3.78824 20.9277 3.23067C20.9277 3.09271 20.9468 3.03906 21.1183 3.03906C21.6898 3.04864 22.2614 3.03906 22.8329 3.03906C22.9606 3.03906 23.0006 3.06972 23.0006 3.20384C23.0006 4.35348 23.0006 5.50311 23.0006 6.65275C23.0006 6.78879 22.9568 6.81753 22.831 6.81561C22.2595 6.81561 21.6879 6.81561 21.1259 6.81561C20.9887 6.81561 20.9354 6.78112 20.9468 6.63742C20.9334 6.06069 20.9277 5.48204 20.9277 4.90339Z" fill="white"/>
<path d="M16.3252 22.8983C16.5805 22.6473 16.8358 22.4002 17.0873 22.1472C17.154 22.0802 17.1978 22.0821 17.2606 22.1472C17.5121 22.4021 17.7655 22.6512 18.0646 22.9501H16.35L16.3252 22.8983Z" fill="white"/>
<path d="M7.61365 20.5465H7.56983C7.03066 20.5465 6.96207 20.4641 6.99827 19.9161C7.09353 18.8258 7.16212 17.7356 7.2269 16.6377C7.23833 16.4576 7.29548 16.402 7.46695 16.4193C7.63842 16.4365 7.83275 16.3714 7.94325 16.4499C8.05375 16.5285 7.9966 16.7565 8.00993 16.9174C8.09186 17.9809 8.16807 19.0423 8.24428 20.1058C8.25746 20.162 8.25702 20.2205 8.24299 20.2765C8.22895 20.3325 8.20174 20.3843 8.16363 20.4275C8.12553 20.4707 8.07766 20.5041 8.02405 20.5248C7.97045 20.5455 7.91268 20.5529 7.85561 20.5465H7.61365Z" fill="white"/>
<path d="M6.80957 15.0625H8.42708C8.31849 15.2809 8.21751 15.4859 8.11273 15.691C8.08034 15.7542 8.01366 15.7369 7.96031 15.7389H7.27253C7.20776 15.7389 7.14489 15.7389 7.10869 15.6718C7.01343 15.4745 6.91436 15.279 6.80957 15.0625Z" fill="white"/>
<path d="M11.7123 15.4354C11.7123 15.9355 11.7123 16.4356 11.7123 16.9357C11.7123 17.0717 11.6818 17.1273 11.537 17.1158C11.4451 17.1081 11.3527 17.1081 11.2607 17.1158C11.1293 17.1158 11.034 17.1158 10.9731 16.9549C10.9121 16.7939 10.6739 16.7307 10.5082 16.6368C10.4129 16.5851 10.3691 16.5352 10.3882 16.4222C10.4722 15.7342 10.6753 15.0662 10.9883 14.4487C11.1185 14.1934 11.3113 13.9758 11.5484 13.8164C11.6666 13.7416 11.7161 13.7455 11.7142 13.9083C11.7066 14.4218 11.7123 14.9277 11.7123 15.4354Z" fill="white"/>
<path d="M11.3544 20.5453H11.143C10.88 20.5453 10.7467 20.4035 10.7619 20.1391C10.8038 19.6141 10.861 19.0891 10.9124 18.5641C10.9315 18.3591 10.9639 18.1541 10.9734 17.9471C10.9734 17.8207 11.0286 17.7862 11.1411 17.7996C11.183 17.7996 11.2268 17.7996 11.2687 17.7996C11.7488 17.7996 11.7431 17.7996 11.7869 18.2709C11.8384 18.8457 11.9031 19.4206 11.9565 19.9954C11.9965 20.4437 11.8974 20.5453 11.4554 20.5453H11.3544Z" fill="white"/>
</svg>
